SplineFontDB: 3.0
FontName: DoppioOne-Regular
FullName: Doppio One Regular
FamilyName: Doppio One
Weight: Book
Copyright: Copyright (c) 2011, Sorkin Type Co (www.sorkintype.com) with Reserved Font Name "Doppio"
Version: 1.002
ItalicAngle: 0
UnderlinePosition: -103
UnderlineWidth: 102
Ascent: 1638
Descent: 410
LayerCount: 2
Layer: 0 1 "Back"  1
Layer: 1 1 "Fore"  0
XUID: [1021 631 1661839179 2374956]
FSType: 0
OS2Version: 3
OS2_WeightWidthSlopeOnly: 0
OS2_UseTypoMetrics: 1
CreationTime: 1327240620
ModificationTime: 1327225571
PfmFamily: 17
TTFWeight: 400
TTFWidth: 5
LineGap: 0
VLineGap: 0
Panose: 2 1 6 3 3 0 0 2 8 4
OS2TypoAscent: 422
OS2TypoAOffset: 1
OS2TypoDescent: -90
OS2TypoDOffset: 1
OS2TypoLinegap: 0
OS2WinAscent: 0
OS2WinAOffset: 1
OS2WinDescent: 0
OS2WinDOffset: 1
HheadAscent: 0
HheadAOffset: 1
HheadDescent: 0
HheadDOffset: 1
OS2SubXSize: 1434
OS2SubYSize: 1331
OS2SubXOff: 0
OS2SubYOff: 287
OS2SupXSize: 1434
OS2SupYSize: 1331
OS2SupXOff: 0
OS2SupYOff: 977
OS2StrikeYSize: 102
OS2StrikeYPos: 512
OS2Vendor: 'STC '
OS2CodePages: 20000093.00000000
OS2UnicodeRanges: a00000af.4000204a.00000000.00000000
Lookup: 1 0 0 "'smcp' Lowercase to Small Capitals in Latin lookup 0"  {"'smcp' Lowercase to Small Capitals in Latin lookup 0 subtable"  } ['smcp' ('latn' <'dflt' > ) ]
Lookup: 4 0 1 "'liga' Standard Ligatures in Latin lookup 1"  {"'liga' Standard Ligatures in Latin lookup 1 subtable"  } ['liga' ('latn' <'dflt' > ) ]
Lookup: 6 0 0 "'calt' Contextual Alternates in Latin lookup 2"  {"'calt' Contextual Alternates in Latin lookup 2 subtable"  } ['calt' ('latn' <'dflt' > ) ]
Lookup: 1 0 0 "'sups' Superscript in Latin lookup 3"  {"'sups' Superscript in Latin lookup 3 subtable" ("superior" ) } ['sups' ('latn' <'dflt' > ) ]
Lookup: 1 0 0 "'subs' Subscript in Latin lookup 4"  {"'subs' Subscript in Latin lookup 4 subtable" ("inferior" ) } ['subs' ('latn' <'dflt' > ) ]
Lookup: 1 0 0 "Single Substitution lookup 5"  {"Single Substitution lookup 5 subtable"  } []
DEI: 91125

StartChar: .notdef
Encoding: 65536 -1 0
Width: 1092
Flags: HW
LayerCount: 2
Fore
SplineSet
459 299 m 1,0,1
 400.237 349.368 400.237 349.368 373 422 c 1,2,-1
 74 1188 l 1,3,-1
 166 1448 l 1,4,-1
 436 1554 l 1,5,-1
 678 1432 l 1,6,-1
 981 664 l 2,7,8
 1004 604.857 1004 604.857 1004 570.929 c 128,-1,9
 1004 537 1004 537 1001 512 c 1,10,-1
 940 135 l 1,11,12
 923.632 22.2407 923.632 22.2407 881 6 c 1,13,14
 850.133 -2.81904 850.133 -2.81904 760 68 c 1,15,-1
 459 299 l 1,0,1
522 1227 m 1,16,-1
 584 1374 l 1,17,-1
 430 1456 l 1,18,-1
 231 1378 l 1,19,-1
 174 1217 l 1,20,-1
 326 1149 l 1,21,-1
 522 1227 l 1,16,-1
268 1268 m 1,22,23
 251.657 1310.49 251.657 1310.49 313 1356.5 c 0,24,25
 331 1370 331 1370 359.5 1381 c 128,-1,26
 388 1392 388 1392 416 1392 c 0,27,28
 474.176 1392 474.176 1392 489 1356 c 0,29,30
 508.378 1310.78 508.378 1310.78 448 1265.5 c 0,31,32
 399.333 1229 399.333 1229 341.877 1229 c 128,-1,33
 284.421 1229 284.421 1229 268 1268 c 1,22,23
852 551 m 1,34,-1
 871 572.5 l 2,35,36
 880 583 880 583 886.5 592 c 2,37,-1
 899 610 l 1,38,-1
 641 1276 l 1,39,-1
 598 1182 l 1,40,-1
 852 551 l 1,34,-1
643 438 m 1,41,42
 660.125 438 660.125 438 691.562 452 c 128,-1,43
 723 466 723 466 735.5 471 c 0,44,45
 762.286 481.714 762.286 481.714 776 492 c 1,46,-1
 524 1130 l 1,47,-1
 453 1104 l 1,48,-1
 387 1075 l 1,49,-1
 643 438 l 1,41,42
459 440 m 1,50,51
 479 432 479 432 543 432 c 1,52,-1
 295 1063 l 1,53,-1
 203 1104 l 1,54,-1
 459 440 l 1,50,51
567 334 m 1,55,-1
 745 199 l 1,56,57
 780.695 175.798 780.695 175.798 813 186 c 1,58,-1
 811 186 l 1,59,60
 836 196 836 196 845 209 c 128,-1,61
 854 222 854 222 860 244 c 1,62,-1
 860 242 l 1,63,64
 862 249 862 249 864.5 263 c 2,65,-1
 870 294 l 2,66,67
 873 311 873 311 876 330 c 2,68,-1
 897 463 l 1,69,70
 841.593 402.775 841.593 402.775 745 367 c 1,71,72
 660.85 334 660.85 334 573 334 c 2,73,-1
 567 334 l 1,55,-1
EndSplineSet
Ligature2: "'liga' Standard Ligatures in Latin lookup 1 subtable" f t
Ligature2: "'liga' Standard Ligatures in Latin lookup 1 subtable" f f l
Ligature2: "'liga' Standard Ligatures in Latin lookup 1 subtable" f f i
Ligature2: "'liga' Standard Ligatures in Latin lookup 1 subtable" e w i p l o g o
EndChar

StartChar: y
Encoding: 121 121 4
Width: 1089
Flags: HW
LayerCount: 2
Fore
SplineSet
127 -301 m 1,0,1
 169 -307 169 -307 227.5 -307 c 128,-1,2
 286 -307 286 -307 311.5 -300 c 128,-1,3
 337 -293 337 -293 355.5 -277 c 0,4,5
 390.458 -246.766 390.458 -246.766 416 -178 c 2,6,-1
 481 0 l 1,7,-1
 379 0 l 1,8,-1
 12 1055 l 1,9,-1
 276 1055 l 1,10,-1
 547 209 l 1,11,-1
 555 209 l 1,12,-1
 827 1055 l 1,13,-1
 1089 1055 l 1,14,-1
 637 -219 l 2,15,16
 581.357 -374.007 581.357 -374.007 515.5 -437 c 128,-1,17
 449.636 -500 449.636 -500 332.068 -500 c 128,-1,18
 214.5 -500 214.5 -500 127 -465 c 1,19,-1
 127 -301 l 1,0,1
EndSplineSet
Substitution2: "'smcp' Lowercase to Small Capitals in Latin lookup 0 subtable" .notdef
EndChar

StartChar: o
Encoding: 111 111 5
Width: 1188
Flags: HW
LayerCount: 2
Fore
SplineSet
594 -31 m 256,0,1
 94 -31 94 -31 94 528 c 256,2,3
 94 1085 94 1085 594 1085 c 256,4,5
 1094 1085 1094 1085 1094 528 c 256,6,7
 1094 -31 1094 -31 594 -31 c 256,0,1
594.5 170 m 0,8,9
 673 170 673 170 722 193.5 c 128,-1,10
 771 217 771 217 798 262.5 c 0,11,12
 844 340.019 844 340.019 844 528 c 0,13,14
 844 714.982 844 714.982 798 792.5 c 0,15,16
 743.11 885 743.11 885 594 885 c 0,17,18
 446.407 885 446.407 885 390.5 792.5 c 0,19,20
 344 715.564 344 715.564 344 528 c 0,21,22
 344 339.436 344 339.436 390.5 262.5 c 0,23,24
 446.407 170 446.407 170 594.5 170 c 0,8,9
EndSplineSet
Substitution2: "'sups' Superscript in Latin lookup 3 subtable" ordmasculine
Substitution2: "'smcp' Lowercase to Small Capitals in Latin lookup 0 subtable" .notdef
EndChar

StartChar: a
Encoding: 97 97 6
Width: 1193
Flags: HW
LayerCount: 2
Fore
SplineSet
200 1020 m 1,0,1
 347.5 1079 347.5 1079 602 1079 c 0,2,3
 743.308 1079 743.308 1079 801.654 1060.5 c 0,4,5
 968.725 1007.53 968.725 1007.53 1006 846 c 0,6,7
 1022 776.667 1022 776.667 1022 639 c 2,8,-1
 1022 0 l 1,9,-1
 821 0 l 1,10,-1
 803 78 l 1,11,12
 648.29 -31 648.29 -31 463 -31 c 0,13,14
 282.385 -31 282.385 -31 204.5 44 c 0,15,16
 127 118.63 127 118.63 127 299 c 256,17,18
 127 468.736 127 468.736 225.5 551 c 0,19,20
 311.711 623 311.711 623 475.998 623 c 128,-1,21
 640.286 623 640.286 623 786 572 c 1,22,-1
 786 670 l 2,23,24
 786 774.952 786 774.952 758.5 809 c 0,25,26
 722.888 853.091 722.888 853.091 655.944 865.046 c 128,-1,27
 589 877 589 877 478.833 877 c 128,-1,28
 368.667 877 368.667 877 200 854 c 1,29,-1
 200 1020 l 1,0,1
786 411 m 1,30,31
 663.333 434 663.333 434 586.167 434 c 128,-1,32
 509 434 509 434 473.5 429.5 c 128,-1,33
 438 425 438 425 415 410.5 c 0,34,35
 370 382.13 370 382.13 370 299 c 256,36,37
 370 217.143 370 217.143 413 189.5 c 0,38,39
 446.444 168 446.444 168 554.458 168 c 128,-1,40
 662.471 168 662.471 168 786 228 c 1,41,-1
 786 411 l 1,30,31
EndSplineSet
Substitution2: "'sups' Superscript in Latin lookup 3 subtable" ordfeminine
Substitution2: "'smcp' Lowercase to Small Capitals in Latin lookup 0 subtable" .notdef
EndChar

StartChar: n
Encoding: 110 110 7
Width: 1243
Flags: HW
LayerCount: 2
Fore
SplineSet
403 829 m 1,0,-1
 403 0 l 1,1,-1
 166 0 l 1,2,-1
 166 1055 l 1,3,-1
 340 1055 l 1,4,-1
 369 977 l 1,5,6
 567 1085 567 1085 774 1085 c 0,7,8
 930 1085 930 1085 1004.5 1003.5 c 128,-1,9
 1079 922 1079 922 1079 748 c 2,10,-1
 1079 0 l 1,11,-1
 842 0 l 1,12,-1
 842 719 l 2,13,14
 842 807.694 842 807.694 818.5 831.847 c 0,15,16
 777.486 874 777.486 874 652.118 874 c 128,-1,17
 526.75 874 526.75 874 403 829 c 1,0,-1
EndSplineSet
Substitution2: "'sups' Superscript in Latin lookup 3 subtable" .notdef
Substitution2: "'smcp' Lowercase to Small Capitals in Latin lookup 0 subtable" .notdef
EndChar

StartChar: h
Encoding: 104 104 8
Width: 1254
Flags: HW
LayerCount: 2
Fore
SplineSet
764.5 856 m 128,-1,1
 728 866 728 866 641.35 866 c 128,-1,2
 554.7 866 554.7 866 403 829 c 1,3,-1
 403 0 l 1,4,-1
 166 0 l 1,5,-1
 166 1554 l 1,6,-1
 403 1554 l 1,7,-1
 403 1004 l 1,8,9
 601.75 1079 601.75 1079 776 1079 c 256,10,11
 933.215 1079 933.215 1079 1005.5 1008.5 c 0,12,13
 1090 926.086 1090 926.086 1090 729 c 2,14,-1
 1090 0 l 1,15,-1
 852 0 l 1,16,-1
 852 700 l 2,17,18
 852 792.385 852 792.385 826.5 819.192 c 128,-1,0
 801 846 801 846 764.5 856 c 128,-1,1
EndSplineSet
Substitution2: "'smcp' Lowercase to Small Capitals in Latin lookup 0 subtable" .notdef
EndChar

StartChar: e
Encoding: 101 101 9
Width: 1085
Flags: HW
LayerCount: 2
Fore
SplineSet
965 37 m 1,0,1
 782.474 -31 782.474 -31 590 -31 c 0,2,3
 343.504 -31 343.504 -31 224.5 95.5 c 0,4,5
 94 234.22 94 234.22 94 539 c 0,6,7
 94 842.113 94 842.113 251 977 c 0,8,9
 376.705 1085 376.705 1085 600 1085 c 0,10,11
 931.651 1085 931.651 1085 993 817 c 0,12,13
 1012 734 1012 734 1012 641.417 c 128,-1,14
 1012 548.833 1012 548.833 999 434 c 1,15,-1
 338 434 l 1,16,17
 340.007 291.486 340.007 291.486 401.5 235.5 c 0,18,19
 464.656 178 464.656 178 646.078 178 c 128,-1,20
 827.5 178 827.5 178 965 203 c 1,21,-1
 965 37 l 1,0,1
793 612 m 1,22,-1
 793 650 l 2,23,24
 793 780.087 793 780.087 755 828 c 0,25,26
 709.793 885 709.793 885 578 885 c 0,27,28
 434.884 885 434.884 885 381.5 815.5 c 0,29,30
 336 756.264 336 756.264 336 612 c 1,31,-1
 793 612 l 1,22,-1
EndSplineSet
Substitution2: "'smcp' Lowercase to Small Capitals in Latin lookup 0 subtable" .notdef
EndChar

StartChar: p
Encoding: 112 112 10
Width: 1218
Flags: HW
LayerCount: 2
Fore
SplineSet
725 -31 m 0,0,1
 557.8 -31 557.8 -31 403 41 c 1,2,-1
 403 -485 l 1,3,-1
 166 -485 l 1,4,-1
 166 1055 l 1,5,-1
 340 1055 l 1,6,-1
 369 977 l 1,7,8
 567 1085 567 1085 774 1085 c 256,9,10
 943.267 1085 943.267 1085 1023.5 954.5 c 0,11,12
 1106 820.313 1106 820.313 1106 528 c 0,13,14
 1106 84.6056 1106 84.6056 889 -2.5 c 0,15,16
 818 -31 818 -31 725 -31 c 0,0,1
763.5 856 m 128,-1,18
 727 874 727 874 636.25 874 c 128,-1,19
 545.5 874 545.5 874 403 829 c 1,20,-1
 403 211 l 1,21,22
 496.444 182 496.444 182 599.222 182 c 128,-1,23
 702 182 702 182 744.5 194.5 c 128,-1,24
 787 207 787 207 811.5 245 c 0,25,26
 856 314.02 856 314.02 856 535 c 0,27,28
 856 727.366 856 727.366 820.5 797.5 c 0,29,17
 800 838 800 838 763.5 856 c 128,-1,18
EndSplineSet
Substitution2: "'smcp' Lowercase to Small Capitals in Latin lookup 0 subtable" .notdef
EndChar

StartChar: m
Encoding: 109 109 11
Width: 1823
Flags: HW
LayerCount: 2
Fore
SplineSet
647 874 m 0,0,1
 526.75 874 526.75 874 403 829 c 1,2,-1
 403 0 l 1,3,-1
 166 0 l 1,4,-1
 166 1055 l 1,5,-1
 340 1055 l 1,6,-1
 369 977 l 1,7,8
 570.6 1085 570.6 1085 746.8 1085 c 128,-1,9
 923 1085 923 1085 987 973 c 1,10,11
 1187 1085 1187 1085 1378 1085 c 0,12,13
 1524 1085 1524 1085 1591.5 1002.5 c 128,-1,14
 1659 920 1659 920 1659 748 c 2,15,-1
 1659 0 l 1,16,-1
 1421 0 l 1,17,-1
 1421 702 l 2,18,19
 1421 800.529 1421 800.529 1398 828.265 c 128,-1,20
 1375 856 1375 856 1345.5 865 c 128,-1,21
 1316 874 1316 874 1273 874 c 128,-1,22
 1230 874 1230 874 1194.5 869.5 c 128,-1,23
 1159 865 1159 865 1127.5 858 c 128,-1,24
 1096 851 1096 851 1070.5 843 c 2,25,-1
 1027 829 l 1,26,27
 1032 785.667 1032 785.667 1032 727 c 2,28,-1
 1032 0 l 1,29,-1
 795 0 l 1,30,-1
 795 702 l 2,31,32
 795 799.324 795 799.324 771.5 827.662 c 128,-1,33
 748 856 748 856 719.5 865 c 128,-1,34
 691 874 691 874 647 874 c 0,0,1
EndSplineSet
Substitution2: "'smcp' Lowercase to Small Capitals in Latin lookup 0 subtable" .notdef
EndChar

StartChar: b
Encoding: 98 98 12
Width: 1228
Flags: HW
LayerCount: 2
Fore
SplineSet
745 -31 m 0,0,1
 553.906 -31 553.906 -31 385 84 c 1,2,-1
 371 0 l 1,3,-1
 166 0 l 1,4,-1
 166 1554 l 1,5,-1
 403 1554 l 1,6,-1
 403 1010 l 1,7,8
 579.25 1085 579.25 1085 756 1085 c 0,9,10
 957.993 1085 957.993 1085 1042 938.5 c 0,11,12
 1116 809.451 1116 809.451 1116 532 c 0,13,14
 1116 89.1223 1116 89.1223 902.5 -1.5 c 0,15,16
 833 -31 833 -31 745 -31 c 0,0,1
763.5 858.5 m 128,-1,18
 720 874 720 874 631.8 874 c 128,-1,19
 543.6 874 543.6 874 403 836 c 1,20,-1
 403 238 l 1,21,22
 515 182 515 182 670 182 c 0,23,24
 786.949 182 786.949 182 827.5 256.5 c 0,25,26
 866 327.233 866 327.233 866 476.616 c 128,-1,27
 866 626 866 626 859 694.5 c 128,-1,28
 852 763 852 763 829.5 803 c 128,-1,17
 807 843 807 843 763.5 858.5 c 128,-1,18
EndSplineSet
Substitution2: "'smcp' Lowercase to Small Capitals in Latin lookup 0 subtable" .notdef
EndChar

StartChar: i
Encoding: 105 105 13
Width: 604
Flags: HW
LayerCount: 2
Fore
SplineSet
303 1234 m 256,0,1
 222.2 1234 222.2 1234 199.1 1255 c 128,-1,2
 176 1276 176 1276 169.5 1302 c 128,-1,3
 163 1328 163 1328 163 1369 c 256,4,5
 163 1450.39 163 1450.39 186 1472.7 c 128,-1,6
 209 1495 209 1495 235.5 1501 c 128,-1,7
 262 1507 262 1507 303 1507 c 256,8,9
 385 1507 385 1507 407 1485 c 0,10,11
 441 1451 441 1451 441 1369 c 256,12,13
 441 1287.25 441 1287.25 419 1266.62 c 0,14,15
 384.2 1234 384.2 1234 303 1234 c 256,0,1
184 1055 m 1,16,-1
 422 1055 l 1,17,-1
 422 0 l 1,18,-1
 184 0 l 1,19,-1
 184 1055 l 1,16,-1
EndSplineSet
Substitution2: "'smcp' Lowercase to Small Capitals in Latin lookup 0 subtable" .notdef
EndChar

StartChar: v
Encoding: 118 118 14
Width: 1052
Flags: HW
LayerCount: 2
Fore
SplineSet
6 1055 m 1,0,-1
 264 1055 l 1,1,-1
 524 221 l 1,2,-1
 528 221 l 1,3,-1
 788 1055 l 1,4,-1
 1046 1055 l 1,5,-1
 682 0 l 1,6,-1
 371 0 l 1,7,-1
 6 1055 l 1,0,-1
EndSplineSet
Substitution2: "'smcp' Lowercase to Small Capitals in Latin lookup 0 subtable" .notdef
EndChar

StartChar: d
Encoding: 100 100 15
Width: 1218
Flags: HW
LayerCount: 2
Fore
SplineSet
833 84 m 1,0,1
 671.281 -31 671.281 -31 466 -31 c 0,2,3
 281.847 -31 281.847 -31 197 92.5 c 0,4,5
 105.948 225.032 105.948 225.032 104 523 c 1,6,7
 98.2743 958.154 98.2743 958.154 311.5 1054.5 c 0,8,9
 379 1085 379 1085 464 1085 c 0,10,11
 656.5 1085 656.5 1085 814 1010 c 1,12,-1
 814 1554 l 1,13,-1
 1052 1554 l 1,14,-1
 1052 0 l 1,15,-1
 847 0 l 1,16,-1
 833 84 l 1,0,1
814 836 m 1,17,18
 658.2 874 658.2 874 568.6 874 c 128,-1,19
 479 874 479 874 444 855.5 c 128,-1,20
 409 837 409 837 389 794 c 0,21,22
 354 718.75 354 718.75 354 508 c 0,23,24
 354 321 354 321 382 269 c 128,-1,25
 410 217 410 217 448.5 199.5 c 128,-1,26
 487 182 487 182 550 182 c 0,27,28
 688.2 182 688.2 182 814 233 c 1,29,-1
 814 836 l 1,17,18
EndSplineSet
Substitution2: "'smcp' Lowercase to Small Capitals in Latin lookup 0 subtable" .notdef
EndChar

StartChar: f
Encoding: 102 102 16
Width: 775
Flags: HW
LayerCount: 2
Fore
SplineSet
809 1354 m 1,0,1
 701 1362 701 1362 639 1362 c 128,-1,2
 577 1362 577 1362 549 1355.5 c 128,-1,3
 521 1349 521 1349 504.5 1334.5 c 0,4,5
 475 1308.58 475 1308.58 475 1241 c 2,6,-1
 475 1055 l 1,7,-1
 745 1055 l 1,8,-1
 745 858 l 1,9,-1
 475 858 l 1,10,-1
 475 0 l 1,11,-1
 238 0 l 1,12,-1
 238 858 l 1,13,-1
 90 858 l 1,14,-1
 90 1055 l 1,15,-1
 238 1055 l 1,16,-1
 238 1231 l 2,17,18
 238 1399.91 238 1399.91 304 1481 c 0,19,20
 375.628 1569 375.628 1569 527.964 1569 c 128,-1,21
 680.3 1569 680.3 1569 809 1530 c 1,22,-1
 809 1354 l 1,0,1
EndSplineSet
Substitution2: "'smcp' Lowercase to Small Capitals in Latin lookup 0 subtable" .notdef
EndChar

StartChar: g
Encoding: 103 103 17
Width: 1228
Flags: HW
LayerCount: 2
Fore
SplineSet
813 -482.5 m 128,-1,1
 730 -500 730 -500 582.5 -500 c 128,-1,2
 435 -500 435 -500 249 -438 c 1,3,-1
 249 -264 l 1,4,5
 361.5 -289 361.5 -289 499.75 -289 c 128,-1,6
 638 -289 638 -289 690.5 -282.5 c 128,-1,7
 743 -276 743 -276 772.5 -259.5 c 0,8,9
 824 -230.695 824 -230.695 824 -143 c 2,10,-1
 824 41 l 1,11,12
 662.947 -27 662.947 -27 535.474 -27 c 128,-1,13
 408 -27 408 -27 332.5 1.5 c 128,-1,14
 257 30 257 30 208.5 96 c 0,15,16
 114 224.598 114 224.598 114 532 c 0,17,18
 114 926.902 114 926.902 332.5 1041.5 c 0,19,20
 404 1079 404 1079 497 1079 c 0,21,22
 691.071 1079 691.071 1079 855 977 c 1,23,-1
 882 1055 l 1,24,-1
 1062 1055 l 1,25,-1
 1062 -158 l 2,26,27
 1062 -343.865 1062 -343.865 951.5 -424.5 c 0,28,0
 896 -465 896 -465 813 -482.5 c 128,-1,1
824 815 m 1,29,30
 681.929 866 681.929 866 552 866 c 0,31,32
 445.7 866 445.7 866 405 792 c 0,33,34
 364 717.455 364 717.455 364 522 c 0,35,36
 364 325.13 364 325.13 393 274.065 c 128,-1,37
 422 223 422 223 469 204.5 c 128,-1,38
 516 186 516 186 616.875 186 c 128,-1,39
 717.75 186 717.75 186 824 211 c 1,40,-1
 824 815 l 1,29,30
EndSplineSet
Substitution2: "'smcp' Lowercase to Small Capitals in Latin lookup 0 subtable" .notdef
EndChar

StartChar: braceleft
Encoding: 123 123 18
Width: 772
Flags: HW
LayerCount: 2
Fore
SplineSet
756 -270 m 1,0,1
 661.5 -297 661.5 -297 548.75 -297 c 128,-1,2
 436 -297 436 -297 388 -277.5 c 128,-1,3
 340 -258 340 -258 311 -219.5 c 0,4,5
 256 -146.483 256 -146.483 256 12 c 2,6,-1
 256 444 l 2,7,8
 256 585.227 256 585.227 213 638 c 0,9,10
 178.578 680.245 178.578 680.245 82 700 c 1,11,-1
 82 911 l 1,12,13
 178.295 930.697 178.295 930.697 206.648 964.848 c 0,14,15
 256 1024.3 256 1024.3 256 1165 c 2,16,-1
 256 1599 l 2,17,18
 256 1756.48 256 1756.48 311 1829.5 c 0,19,20
 369.377 1907 369.377 1907 512.688 1907 c 128,-1,21
 656 1907 656 1907 756 1882 c 1,22,-1
 756 1712 l 1,23,24
 572.211 1712 572.211 1712 536.105 1687.5 c 128,-1,25
 500 1663 500 1663 492.5 1626.5 c 128,-1,26
 485 1590 485 1590 485 1528 c 2,27,-1
 485 1030 l 2,28,29
 485 926.241 485 926.241 410 859 c 0,30,31
 367.254 820.676 367.254 820.676 315 805 c 1,32,33
 408.172 784.295 408.172 784.295 462 686 c 0,34,35
 485 644 485 644 485 582 c 2,36,-1
 485 84 l 2,37,38
 485 21 485 21 492.5 -15.5 c 128,-1,39
 500 -52 500 -52 528 -71 c 128,-1,40
 556 -90 556 -90 610 -95 c 128,-1,41
 664 -100 664 -100 756 -100 c 1,42,-1
 756 -270 l 1,0,1
EndSplineSet
EndChar

StartChar: braceright
Encoding: 125 125 19
Width: 772
Flags: HW
LayerCount: 2
Fore
SplineSet
383.5 -277.5 m 128,-1,1
 336 -297 336 -297 223.25 -297 c 128,-1,2
 110.5 -297 110.5 -297 16 -270 c 1,3,-1
 16 -100 l 1,4,5
 108 -100 108 -100 162 -95 c 128,-1,6
 216 -90 216 -90 243.5 -71 c 128,-1,7
 271 -52 271 -52 278.5 -15.5 c 128,-1,8
 286 21 286 21 286 84 c 2,9,-1
 286 582 l 2,10,11
 286 688.9 286 688.9 362 753.5 c 0,12,13
 410.761 794.947 410.761 794.947 456 805 c 1,14,15
 360.451 833.665 360.451 833.665 309 926.5 c 0,16,17
 286 968 286 968 286 1030 c 2,18,-1
 286 1528 l 2,19,20
 286 1590 286 1590 278.5 1626.5 c 128,-1,21
 271 1663 271 1663 243.5 1682 c 0,22,23
 200.079 1712 200.079 1712 16 1712 c 1,24,-1
 16 1882 l 1,25,26
 116 1907 116 1907 226 1907 c 128,-1,27
 336 1907 336 1907 383.5 1887.5 c 128,-1,28
 431 1868 431 1868 460.5 1829.5 c 0,29,30
 516 1757.07 516 1757.07 516 1599 c 2,31,-1
 516 1165 l 2,32,33
 516 1024.3 516 1024.3 559 972.5 c 0,34,35
 593.705 930.697 593.705 930.697 690 911 c 1,36,-1
 690 700 l 1,37,38
 593.422 680.245 593.422 680.245 565.211 645.623 c 0,39,40
 516 585.227 516 585.227 516 444 c 2,41,-1
 516 12 l 2,42,43
 516 -147.068 516 -147.068 460.5 -219.5 c 0,44,0
 431 -258 431 -258 383.5 -277.5 c 128,-1,1
EndSplineSet
EndChar

StartChar: c
Encoding: 99 99 20
Width: 965
Flags: HW
LayerCount: 2
Fore
SplineSet
877 37 m 1,0,1
 763.222 -27 763.222 -27 563 -27 c 0,2,3
 347.586 -27 347.586 -27 231.5 90 c 0,4,5
 94 228.583 94 228.583 94 528 c 0,6,7
 94 811.496 94 811.496 229.5 953.5 c 0,8,9
 349.252 1079 349.252 1079 544.095 1079 c 128,-1,10
 738.938 1079 738.938 1079 868 1020 c 1,11,-1
 868 856 l 1,12,13
 834 859 834 859 797 862 c 0,14,15
 698.333 870 698.333 870 625.167 870 c 128,-1,16
 552 870 552 870 498 857 c 128,-1,17
 444 844 444 844 410 807.5 c 0,18,19
 344 736.647 344 736.647 344 530 c 0,20,21
 344 320.513 344 320.513 419 246.5 c 0,22,23
 482.333 184 482.333 184 633.75 184 c 128,-1,24
 785.167 184 785.167 184 877 203 c 1,25,-1
 877 37 l 1,0,1
EndSplineSet
Substitution2: "'smcp' Lowercase to Small Capitals in Latin lookup 0 subtable" .notdef
EndChar

StartChar: s
Encoding: 115 115 21
Width: 1035
Flags: HW
LayerCount: 2
Fore
SplineSet
724 -8.5 m 128,-1,1
 638 -31 638 -31 470.053 -31 c 128,-1,2
 302.105 -31 302.105 -31 116 37 c 1,3,-1
 116 203 l 1,4,5
 270 168 270 168 406 168 c 128,-1,6
 542 168 542 168 590 174 c 128,-1,7
 638 180 638 180 662.5 194.5 c 128,-1,8
 687 209 687 209 694 234 c 128,-1,9
 701 259 701 259 701 288 c 128,-1,10
 701 317 701 317 698.5 333.5 c 128,-1,11
 696 350 696 350 686.5 363.5 c 0,12,13
 666.655 391.701 666.655 391.701 609 401 c 1,14,-1
 388 442 l 1,15,16
 234.538 468.25 234.538 468.25 176.5 535.5 c 0,17,18
 118 603.286 118 603.286 118 762.643 c 128,-1,19
 118 922 118 922 228.5 1003.5 c 128,-1,20
 339 1085 339 1085 529.167 1085 c 128,-1,21
 719.333 1085 719.333 1085 877 1030 c 1,22,-1
 877 860 l 1,23,24
 703 889 703 889 601 889 c 128,-1,25
 499 889 499 889 456 883.5 c 128,-1,26
 413 878 413 878 388 865 c 0,27,28
 343 841.6 343 841.6 343 780 c 0,29,30
 343 727.231 343 727.231 360 707.615 c 0,31,32
 391.105 671.725 391.105 671.725 462 659 c 2,33,-1
 691 616 l 2,34,35
 828.128 589.393 828.128 589.393 880 525 c 0,36,37
 935 456.724 935 456.724 935 297 c 0,38,39
 935 220 935 220 919.5 159 c 128,-1,40
 904 98 904 98 857 56 c 128,-1,0
 810 14 810 14 724 -8.5 c 128,-1,1
EndSplineSet
Substitution2: "'smcp' Lowercase to Small Capitals in Latin lookup 0 subtable" .notdef
EndChar

StartChar: r
Encoding: 114 114 22
Width: 816
Flags: HW
LayerCount: 2
Fore
SplineSet
166 1055 m 1,0,-1
 371 1055 l 1,1,-1
 385 940 l 1,2,3
 556.305 1052.01 556.305 1052.01 778 1063 c 1,4,-1
 776 817 l 1,5,6
 515.062 812.825 515.062 812.825 403 768 c 1,7,-1
 403 0 l 1,8,-1
 166 0 l 1,9,-1
 166 1055 l 1,0,-1
EndSplineSet
Substitution2: "'smcp' Lowercase to Small Capitals in Latin lookup 0 subtable" .notdef
EndChar

StartChar: w
Encoding: 119 119 23
Width: 1554
Flags: HW
LayerCount: 2
Fore
SplineSet
12 1055 m 1,0,-1
 250 1055 l 1,1,-1
 446 211 l 1,2,-1
 463 211 l 1,3,-1
 629 1055 l 1,4,-1
 954 1055 l 1,5,-1
 1120 211 l 1,6,-1
 1134 211 l 1,7,-1
 1335 1055 l 1,8,-1
 1542 1055 l 1,9,-1
 1276 0 l 1,10,-1
 964 0 l 1,11,-1
 788 829 l 1,12,-1
 772 829 l 1,13,-1
 614 0 l 1,14,-1
 287 0 l 1,15,-1
 12 1055 l 1,0,-1
EndSplineSet
Substitution2: "Single Substitution lookup 5 subtable" .notdef
Substitution2: "'smcp' Lowercase to Small Capitals in Latin lookup 0 subtable" .notdef
EndChar

StartChar: l
Encoding: 108 108 24
Width: 569
Flags: HW
LayerCount: 2
Fore
SplineSet
166 1554 m 1,0,-1
 403 1554 l 1,1,-1
 403 0 l 1,2,-1
 166 0 l 1,3,-1
 166 1554 l 1,0,-1
EndSplineSet
Substitution2: "'smcp' Lowercase to Small Capitals in Latin lookup 0 subtable" .notdef
EndChar

StartChar: t
Encoding: 116 116 25
Width: 864
Flags: HW
LayerCount: 2
Fore
SplineSet
782 18 m 1,0,1
 659.5 -31 659.5 -31 551.75 -31 c 128,-1,2
 444 -31 444 -31 390.5 -16 c 128,-1,3
 337 -1 337 -1 303.5 29.5 c 0,4,5
 240 87.3134 240 87.3134 240 215 c 2,6,-1
 240 858 l 1,7,-1
 84 858 l 1,8,-1
 84 1055 l 1,9,-1
 240 1055 l 1,10,-1
 240 1278 l 1,11,-1
 477 1331 l 1,12,-1
 477 1055 l 1,13,-1
 743 1055 l 1,14,-1
 743 858 l 1,15,-1
 477 858 l 1,16,-1
 477 291 l 2,17,18
 477 217 477 217 497 197 c 0,19,20
 528 166 528 166 621.667 166 c 128,-1,21
 715.333 166 715.333 166 782 176 c 1,22,-1
 782 18 l 1,0,1
EndSplineSet
Substitution2: "'smcp' Lowercase to Small Capitals in Latin lookup 0 subtable" .notdef
EndChar

StartChar: q
Encoding: 113 113 26
Width: 1220
Flags: HW
LayerCount: 2
Fore
SplineSet
816 41 m 1,0,1
 661.2 -31 661.2 -31 497 -31 c 0,2,3
 302.206 -31 302.206 -31 211.5 91.5 c 0,4,5
 114 223.175 114 223.175 114 528 c 0,6,7
 114 953.471 114 953.471 323 1052 c 0,8,9
 393 1085 393 1085 486 1085 c 0,10,11
 676.6 1085 676.6 1085 853 977 c 1,12,-1
 880 1055 l 1,13,-1
 1054 1055 l 1,14,-1
 1054 -485 l 1,15,-1
 816 -485 l 1,16,-1
 816 41 l 1,0,1
816 829 m 1,17,18
 681 874 681 874 591.5 874 c 128,-1,19
 502 874 502 874 463.5 858 c 128,-1,20
 425 842 425 842 402.5 803 c 0,21,22
 364 736.267 364 736.267 364 579.133 c 128,-1,23
 364 422 364 422 373.5 352.5 c 128,-1,24
 383 283 383 283 408 245 c 128,-1,25
 433 207 433 207 475.5 194.5 c 128,-1,26
 518 182 518 182 621.889 182 c 128,-1,27
 725.778 182 725.778 182 816 211 c 1,28,-1
 816 829 l 1,17,18
EndSplineSet
Substitution2: "'smcp' Lowercase to Small Capitals in Latin lookup 0 subtable" .notdef
EndChar

StartChar: z
Encoding: 122 122 27
Width: 1092
Flags: HW
LayerCount: 2
Fore
SplineSet
117 158 m 1,0,-1
 651 850 l 1,1,-1
 651 852 l 1,2,-1
 137 852 l 1,3,-1
 137 1055 l 1,4,-1
 979 1055 l 1,5,-1
 979 905 l 1,6,-1
 442 211 l 1,7,-1
 442 209 l 1,8,-1
 991 209 l 1,9,-1
 991 0 l 1,10,-1
 117 0 l 1,11,-1
 117 158 l 1,0,-1
EndSplineSet
Substitution2: "'smcp' Lowercase to Small Capitals in Latin lookup 0 subtable" .notdef
EndChar

StartChar: u
Encoding: 117 117 28
Width: 1245
Flags: HW
LayerCount: 2
Fore
SplineSet
842 225 m 1,0,-1
 842 1055 l 1,1,-1
 1079 1055 l 1,2,-1
 1079 0 l 1,3,-1
 905 0 l 1,4,-1
 877 78 l 1,5,6
 771.311 19.4938 771.311 19.4938 662.156 -5.75311 c 128,-1,7
 553 -31 553 -31 471 -31 c 0,8,9
 316 -31 316 -31 241 51.5 c 128,-1,10
 166 134 166 134 166 309 c 2,11,-1
 166 1055 l 1,12,-1
 403 1055 l 1,13,-1
 403 336 l 2,14,15
 403 247.306 403 247.306 426.5 223.153 c 0,16,17
 466.541 182 466.541 182 595.145 182 c 128,-1,18
 723.75 182 723.75 182 842 225 c 1,0,-1
EndSplineSet
Substitution2: "'smcp' Lowercase to Small Capitals in Latin lookup 0 subtable" .notdef
EndChar

StartChar: j
Encoding: 106 106 29
Width: 630
Flags: HW
LayerCount: 2
Fore
SplineSet
394 1230 m 128,-1,1
 367 1224 367 1224 326.5 1224 c 128,-1,2
 286 1224 286 1224 259.5 1230 c 128,-1,3
 233 1236 233 1236 217 1251 c 0,4,5
 189 1277.25 189 1277.25 189 1359 c 256,6,7
 189 1441 189 1441 211 1463 c 0,8,9
 245 1497 245 1497 306 1497 c 128,-1,10
 367 1497 367 1497 394 1491 c 128,-1,11
 421 1485 421 1485 437.5 1469 c 0,12,13
 467 1440.39 467 1440.39 467 1359 c 256,14,15
 467 1277.82 467 1277.82 444 1256.91 c 128,-1,0
 421 1236 421 1236 394 1230 c 128,-1,1
210 -498 m 0,16,17
 61.2308 -498 61.2308 -498 -40 -451 c 1,18,-1
 -40 -286 l 1,19,20
 17 -292 17 -292 73 -292 c 128,-1,21
 129 -292 129 -292 148 -289 c 128,-1,22
 167 -286 167 -286 181 -276.5 c 0,23,24
 210 -256.821 210 -256.821 210 -206 c 2,25,-1
 210 1055 l 1,26,-1
 448 1055 l 1,27,-1
 448 -266 l 2,28,29
 448 -455.36 448 -455.36 298 -488.5 c 0,30,31
 255 -498 255 -498 210 -498 c 0,16,17
EndSplineSet
Substitution2: "'smcp' Lowercase to Small Capitals in Latin lookup 0 subtable" .notdef
EndChar

StartChar: k
Encoding: 107 107 30
Width: 1147
Flags: HW
LayerCount: 2
Fore
SplineSet
166 1554 m 1,0,-1
 403 1554 l 1,1,-1
 403 670 l 1,2,-1
 559 670 l 1,3,-1
 834 1055 l 1,4,-1
 1105 1055 l 1,5,-1
 745 563 l 1,6,-1
 1107 0 l 1,7,-1
 836 0 l 1,8,-1
 531 473 l 1,9,-1
 403 473 l 1,10,-1
 403 0 l 1,11,-1
 166 0 l 1,12,-1
 166 1554 l 1,0,-1
EndSplineSet
Substitution2: "'smcp' Lowercase to Small Capitals in Latin lookup 0 subtable" .notdef
EndChar

StartChar: x
Encoding: 120 120 31
Width: 1052
Flags: HW
LayerCount: 2
Fore
SplineSet
393 537 m 1,0,-1
 36 1055 l 1,1,-1
 319 1055 l 1,2,-1
 546 726 l 1,3,-1
 770 1055 l 1,4,-1
 1028 1055 l 1,5,-1
 673 542 l 1,6,-1
 1048 0 l 1,7,-1
 765 0 l 1,8,-1
 520 354 l 1,9,-1
 262 0 l 1,10,-1
 4 0 l 1,11,-1
 393 537 l 1,0,-1
EndSplineSet
Substitution2: "'smcp' Lowercase to Small Capitals in Latin lookup 0 subtable" .notdef
EndChar

StartChar: period
Encoding: 46 46 32
Width: 512
Flags: HW
LayerCount: 2
Fore
SplineSet
109.5 63.5 m 128,-1,1
 103 93 103 93 103 139.5 c 128,-1,2
 103 186 103 186 109.5 215.5 c 128,-1,3
 116 245 116 245 133.5 262 c 0,4,5
 163.353 291 163.353 291 232.176 291 c 128,-1,6
 301 291 301 291 331 285 c 128,-1,7
 361 279 361 279 378 262 c 0,8,9
 409 231 409 231 409 162 c 128,-1,10
 409 93 409 93 402 63.5 c 128,-1,11
 395 34 395 34 378 16.5 c 0,12,13
 348.371 -14 348.371 -14 279.186 -14 c 128,-1,14
 210 -14 210 -14 180.5 -7.5 c 128,-1,15
 151 -1 151 -1 133.5 16.5 c 128,-1,0
 116 34 116 34 109.5 63.5 c 128,-1,1
EndSplineSet
EndChar

StartChar: comma
Encoding: 44 44 33
Width: 512
Flags: HW
LayerCount: 2
Fore
SplineSet
131.5 21.5 m 128,-1,1
 105 54 105 54 105 113 c 128,-1,2
 105 172 105 172 112 202 c 128,-1,3
 119 232 119 232 136.5 249.5 c 0,4,5
 168 281 168 281 238 281 c 128,-1,6
 308 281 308 281 338.5 266.5 c 128,-1,7
 369 252 369 252 385 225 c 0,8,9
 411 181.125 411 181.125 411 88.0625 c 128,-1,10
 411 -5 411 -5 388 -80.5 c 128,-1,11
 365 -156 365 -156 331.5 -220.5 c 0,12,13
 260.575 -357.057 260.575 -357.057 193 -399 c 1,14,-1
 103 -334 l 1,15,16
 175.947 -234.526 175.947 -234.526 207 -101 c 0,17,18
 217 -58 217 -58 218 -19 c 1,19,0
 158 -11 158 -11 131.5 21.5 c 128,-1,1
EndSplineSet
EndChar

StartChar: question
Encoding: 63 63 34
Width: 1026
Flags: HW
LayerCount: 2
Fore
SplineSet
376.188 1237 m 0,0,1
 286.375 1237 286.375 1237 116 1208 c 1,2,-1
 116 1389 l 1,3,-1
 143 1398.5 l 1,4,5
 294.789 1450 294.789 1450 501 1450 c 0,6,7
 799.228 1450 799.228 1450 893 1232.5 c 0,8,9
 929 1149 929 1149 929 1029 c 128,-1,10
 929 909 929 909 899 834.5 c 128,-1,11
 869 760 869 760 820 712.5 c 0,12,13
 736.009 631.08 736.009 631.08 583 600 c 1,14,-1
 583 422 l 1,15,-1
 345 422 l 1,16,-1
 345 768 l 1,17,18
 531.825 783.207 531.825 783.207 601 828.5 c 0,19,20
 685 883.5 685 883.5 685 1016 c 0,21,22
 685 1145.5 685 1145.5 611 1194.5 c 0,23,24
 546.816 1237 546.816 1237 376.188 1237 c 0,0,1
318.5 63.5 m 128,-1,26
 312 93 312 93 312 139.5 c 128,-1,27
 312 186 312 186 318.5 215.5 c 128,-1,28
 325 245 325 245 342.5 262 c 0,29,30
 372.353 291 372.353 291 441.176 291 c 128,-1,31
 510 291 510 291 540 285 c 128,-1,32
 570 279 570 279 587 262 c 0,33,34
 618 231 618 231 618 162 c 128,-1,35
 618 93 618 93 611 63.5 c 128,-1,36
 604 34 604 34 587 16.5 c 0,37,38
 557.371 -14 557.371 -14 488.186 -14 c 128,-1,39
 419 -14 419 -14 389.5 -7.5 c 128,-1,40
 360 -1 360 -1 342.5 16.5 c 128,-1,25
 325 34 325 34 318.5 63.5 c 128,-1,26
EndSplineSet
EndChar

StartChar: ogonek
Encoding: 731 731 35
Width: 516
Flags: HW
LayerCount: 2
Fore
SplineSet
453 -479 m 1,0,1
 393 -500 393 -500 326.5 -500 c 128,-1,2
 260 -500 260 -500 214 -486 c 128,-1,3
 168 -472 168 -472 134 -444.5 c 0,4,5
 61 -385.456 61 -385.456 61 -279 c 0,6,7
 61 -144.455 61 -144.455 176 -19 c 0,8,9
 226 37 226 37 291 82 c 1,10,-1
 455 0 l 1,11,12
 283 -109.787 283 -109.787 283 -225 c 0,13,14
 283 -267 283 -267 307.5 -292 c 128,-1,15
 332 -317 332 -317 377.5 -317 c 128,-1,16
 423 -317 423 -317 453 -311 c 1,17,-1
 453 -479 l 1,0,1
EndSplineSet
EndChar

StartChar: H
Encoding: 72 72 36
Width: 1456
Flags: HW
LayerCount: 2
Fore
SplineSet
182 1427 m 1,0,-1
 422 1427 l 1,1,-1
 422 836 l 1,2,-1
 1034 836 l 1,3,-1
 1034 1427 l 1,4,-1
 1274 1427 l 1,5,-1
 1274 0 l 1,6,-1
 1034 0 l 1,7,-1
 1034 612 l 1,8,-1
 422 612 l 1,9,-1
 422 0 l 1,10,-1
 182 0 l 1,11,-1
 182 1427 l 1,0,-1
EndSplineSet
Substitution2: "'smcp' Lowercase to Small Capitals in Latin lookup 0 subtable" .notdef
EndChar

StartChar: A
Encoding: 65 65 37
Width: 1276
Flags: HW
LayerCount: 2
Fore
SplineSet
477 1427 m 1,0,-1
 795 1427 l 1,1,-1
 1262 0 l 1,2,-1
 997 0 l 1,3,-1
 877 387 l 1,4,-1
 391 387 l 1,5,-1
 276 0 l 1,6,-1
 14 0 l 1,7,-1
 477 1427 l 1,0,-1
811 602 m 1,8,-1
 635 1206 l 1,9,-1
 631 1206 l 1,10,-1
 455 602 l 1,11,-1
 811 602 l 1,8,-1
EndSplineSet
Substitution2: "'smcp' Lowercase to Small Capitals in Latin lookup 0 subtable" .notdef
EndChar

StartChar: N
Encoding: 78 78 38
Width: 1521
Flags: HW
LayerCount: 2
Fore
SplineSet
182 1427 m 1,0,-1
 580 1427 l 1,1,-1
 1100 223 l 1,2,-1
 1105 223 l 1,3,4
 1103 296 l 2,5,6
 1102 328 1102 328 1102 365 c 2,7,-1
 1102 1427 l 1,8,-1
 1339 1427 l 1,9,-1
 1339 0 l 1,10,-1
 950 0 l 1,11,-1
 476 1082 l 1,12,-1
 424 1204 l 1,13,-1
 420 1204 l 1,14,-1
 420 0 l 1,15,-1
 182 0 l 1,16,-1
 182 1427 l 1,0,-1
EndSplineSet
Substitution2: "'smcp' Lowercase to Small Capitals in Latin lookup 0 subtable" .notdef
EndChar

StartChar: C
Encoding: 67 67 39
Width: 1179
Flags: HW
LayerCount: 2
Fore
SplineSet
1079 37 m 1,0,1
 927.444 -25 927.444 -25 672 -25 c 0,2,3
 115 -25 115 -25 115 725 c 0,4,5
 115 999.571 115 999.571 207 1177 c 0,6,7
 283.3 1324.15 283.3 1324.15 423 1394 c 0,8,9
 535 1450 535 1450 672 1450 c 0,10,11
 923.222 1450 923.222 1450 1069 1386 c 1,12,-1
 1069 1214 l 1,13,14
 891.335 1227 891.335 1227 811.167 1227 c 128,-1,15
 731 1227 731 1227 680.5 1223 c 128,-1,16
 630 1219 630 1219 583.5 1202.5 c 128,-1,17
 537 1186 537 1186 497 1154 c 128,-1,18
 457 1122 457 1122 427.5 1066.5 c 0,19,20
 365 948.915 365 948.915 365 727 c 0,21,22
 365 388.9 365 388.9 499 275 c 0,23,24
 574.058 211.201 574.058 211.201 684 201.5 c 0,25,26
 735 197 735 197 835 197 c 128,-1,27
 935 197 935 197 1079 209 c 1,28,-1
 1079 37 l 1,0,1
EndSplineSet
Substitution2: "'smcp' Lowercase to Small Capitals in Latin lookup 0 subtable" .notdef
EndChar

StartChar: O
Encoding: 79 79 40
Width: 1401
Flags: HW
LayerCount: 2
Fore
SplineSet
701.5 -31 m 0,0,1
 610 -31 610 -31 531 -18 c 128,-1,2
 452 -5 452 -5 387 27.5 c 128,-1,3
 322 60 322 60 271.5 114 c 128,-1,4
 221 168 221 168 186 250.5 c 0,5,6
 115 417.857 115 417.857 115 675.929 c 128,-1,7
 115 934 115 934 155 1079 c 128,-1,8
 195 1224 195 1224 271 1307.5 c 128,-1,9
 347 1391 347 1391 456 1423.5 c 128,-1,10
 565 1456 565 1456 679 1456 c 128,-1,11
 793 1456 793 1456 872 1442 c 128,-1,12
 951 1428 951 1428 1016 1395 c 128,-1,13
 1081 1362 1081 1362 1131 1306.5 c 128,-1,14
 1181 1251 1181 1251 1215.5 1168 c 0,15,16
 1286 998.391 1286 998.391 1286 709 c 256,17,18
 1286 283.45 1286 283.45 1131 114.5 c 0,19,20
 997.514 -31 997.514 -31 701.5 -31 c 0,0,1
702 190 m 256,21,22
 800 190 800 190 864.5 213 c 128,-1,23
 929 236 929 236 967 294.5 c 0,24,25
 1036 400.724 1036 400.724 1036 709 c 0,26,27
 1036 1018.46 1036 1018.46 967 1126.5 c 0,28,29
 929 1186 929 1186 864.5 1209.5 c 128,-1,30
 800 1233 800 1233 702 1233 c 256,31,32
 604 1233 604 1233 539 1209.5 c 128,-1,33
 474 1186 474 1186 436 1126.5 c 0,34,35
 367 1018.46 367 1018.46 367 709 c 0,36,37
 367 400.724 367 400.724 436 294.5 c 0,38,39
 474 236 474 236 539 213 c 128,-1,40
 604 190 604 190 702 190 c 256,21,22
EndSplineSet
Substitution2: "'smcp' Lowercase to Small Capitals in Latin lookup 0 subtable" .notdef
EndChar

StartChar: R
Encoding: 82 82 41
Width: 1285
Flags: HW
LayerCount: 2
Fore
SplineSet
182 1427 m 1,0,-1
 713 1427 l 2,1,2
 987.745 1427 987.745 1427 1085.5 1258 c 0,3,4
 1147 1151.68 1147 1151.68 1147 969 c 0,5,6
 1147 760.217 1147 760.217 1023 647 c 1,7,8
 968 599 968 599 899 580 c 1,9,-1
 899 578 l 1,10,-1
 1200 0 l 1,11,-1
 926 0 l 1,12,-1
 659 524 l 1,13,-1
 422 524 l 1,14,-1
 422 0 l 1,15,-1
 182 0 l 1,16,-1
 182 1427 l 1,0,-1
711 750 m 2,17,18
 899 750 899 750 899 983 c 0,19,20
 899 1156.08 899 1156.08 785 1192.5 c 0,21,22
 749 1204 749 1204 705 1204 c 2,23,-1
 422 1204 l 1,24,-1
 422 750 l 1,25,-1
 711 750 l 2,17,18
EndSplineSet
Substitution2: "'smcp' Lowercase to Small Capitals in Latin lookup 0 subtable" .notdef
EndChar

StartChar: E
Encoding: 69 69 42
Width: 1149
Flags: HW
LayerCount: 2
Fore
SplineSet
182 1427 m 1,0,-1
 1040 1427 l 1,1,-1
 1040 1204 l 1,2,-1
 422 1204 l 1,3,-1
 422 829 l 1,4,-1
 940 829 l 1,5,-1
 940 610 l 1,6,-1
 422 610 l 1,7,-1
 422 223 l 1,8,-1
 1057 223 l 1,9,-1
 1057 0 l 1,10,-1
 182 0 l 1,11,-1
 182 1427 l 1,0,-1
EndSplineSet
Substitution2: "'smcp' Lowercase to Small Capitals in Latin lookup 0 subtable" .notdef
EndChar

StartChar: bracketleft
Encoding: 91 91 43
Width: 680
Flags: HW
LayerCount: 2
Fore
SplineSet
182 1944 m 1,0,-1
 680 1944 l 1,1,-1
 680 1718 l 1,2,-1
 416 1718 l 1,3,-1
 416 -104 l 1,4,-1
 680 -104 l 1,5,-1
 680 -330 l 1,6,-1
 182 -330 l 1,7,-1
 182 1944 l 1,0,-1
EndSplineSet
EndChar

StartChar: bracketright
Encoding: 93 93 44
Width: 680
Flags: HW
LayerCount: 2
Fore
SplineSet
262 -104 m 1,0,-1
 262 1718 l 1,1,-1
 0 1718 l 1,2,-1
 0 1944 l 1,3,-1
 498 1944 l 1,4,-1
 498 -330 l 1,5,-1
 0 -330 l 1,6,-1
 0 -104 l 1,7,-1
 262 -104 l 1,0,-1
EndSplineSet
EndChar

StartChar: three
Encoding: 51 51 45
Width: 1135
Flags: HW
LayerCount: 2
Fore
SplineSet
130 33 m 1,0,-1
 130 213 l 1,1,2
 294.286 190 294.286 190 398.643 190 c 128,-1,3
 503 190 503 190 559 197.5 c 128,-1,4
 615 205 615 205 654 227 c 0,5,6
 734.137 272.206 734.137 272.206 736 397 c 0,7,8
 737 477 737 477 717 521.5 c 128,-1,9
 697 566 697 566 648 587.5 c 128,-1,10
 599 609 599 609 516.5 615.5 c 128,-1,11
 434 622 434 622 310 625 c 1,12,-1
 312 838 l 1,13,14
 558.196 838 558.196 838 635.5 885.5 c 0,15,16
 677 911 677 911 690 953 c 128,-1,17
 703 995 703 995 702 1051.5 c 128,-1,18
 701 1108 701 1108 686.5 1143 c 128,-1,19
 672 1178 672 1178 639 1199.5 c 0,20,21
 575.302 1241 575.302 1241 445.651 1241 c 128,-1,22
 316 1241 316 1241 142 1212 c 1,23,-1
 142 1384 l 1,24,25
 338.1 1458 338.1 1458 542.55 1458 c 0,26,27
 949 1458 949 1458 949 1069 c 0,28,29
 949 853.636 949 853.636 806.5 778.5 c 0,30,31
 757.019 752.41 757.019 752.41 704 750 c 1,32,-1
 704 748 l 1,33,34
 862.165 730.426 862.165 730.426 929 627.5 c 0,35,36
 986 539.72 986 539.72 986 407.36 c 128,-1,37
 986 275 986 275 953.5 192 c 128,-1,38
 921 109 921 109 860.5 59 c 0,39,40
 749.18 -33 749.18 -33 538.59 -33 c 128,-1,41
 328 -33 328 -33 130 33 c 1,0,-1
EndSplineSet
Substitution2: "'subs' Subscript in Latin lookup 4 subtable" .notdef
Substitution2: "'sups' Superscript in Latin lookup 3 subtable" threesuperior
EndChar

StartChar: six
Encoding: 54 54 46
Width: 1187
Flags: HW
LayerCount: 2
Fore
SplineSet
610 -31 m 0,0,1
 155 -31 155 -31 155 399 c 2,2,-1
 155 950 l 2,3,4
 155 1195.08 155 1195.08 256.5 1318 c 0,5,6
 370.455 1456 370.455 1456 603.043 1456 c 128,-1,7
 835.632 1456 835.632 1456 983 1386 c 1,8,-1
 983 1208 l 1,9,10
 843.714 1233 843.714 1233 732.357 1233 c 128,-1,11
 621 1233 621 1233 561 1224.5 c 128,-1,12
 501 1216 501 1216 463.5 1188.5 c 0,13,14
 393 1136.8 393 1136.8 393 969 c 2,15,-1
 393 836 l 1,16,17
 554.95 915 554.95 915 739 915 c 0,18,19
 905.018 915 905.018 915 988 814.5 c 0,20,21
 1083 699.444 1083 699.444 1083 446 c 0,22,23
 1083 73.3182 1083 73.3182 811 -5.5 c 0,24,25
 723 -31 723 -31 610 -31 c 0,0,1
714 691 m 128,-1,27
 671 700 671 700 585.833 700 c 128,-1,28
 500.667 700 500.667 700 393 662 c 1,29,-1
 393 449 l 2,30,31
 393 305.787 393 305.787 433.5 251.5 c 0,32,33
 479.381 190 479.381 190 610 190 c 0,34,35
 740.891 190 740.891 190 789.5 251 c 0,36,37
 835 308.098 835 308.098 835 455 c 0,38,39
 835 605.444 835 605.444 784 655.5 c 0,40,26
 757 682 757 682 714 691 c 128,-1,27
EndSplineSet
Substitution2: "'subs' Subscript in Latin lookup 4 subtable" .notdef
Substitution2: "'sups' Superscript in Latin lookup 3 subtable" .notdef
EndChar

StartChar: five
Encoding: 53 53 47
Width: 1129
Flags: HW
LayerCount: 2
Fore
SplineSet
518 -31 m 0,0,1
 304.789 -31 304.789 -31 145 35 c 1,2,-1
 145 211 l 1,3,4
 286 190 286 190 405 190 c 128,-1,5
 524 190 524 190 582.5 204.5 c 128,-1,6
 641 219 641 219 678 249.5 c 0,7,8
 749 308.027 749 308.027 749 442 c 128,-1,9
 749 576.039 749 576.039 703.5 626 c 0,10,11
 656.143 678 656.143 678 507.259 678 c 128,-1,12
 358.375 678 358.375 678 188 649 c 1,13,-1
 188 1430 l 1,14,-1
 948 1430 l 1,15,-1
 948 1204 l 1,16,-1
 425 1204 l 1,17,-1
 425 883 l 1,18,19
 521 895 521 895 607 895 c 128,-1,20
 693 895 693 895 768.5 874.5 c 128,-1,21
 844 854 844 854 894.5 801 c 0,22,23
 995 695.525 995 695.525 995 424 c 0,24,25
 995 54.7143 995 54.7143 707.5 -11 c 0,26,27
 620 -31 620 -31 518 -31 c 0,0,1
EndSplineSet
Substitution2: "'subs' Subscript in Latin lookup 4 subtable" .notdef
Substitution2: "'sups' Superscript in Latin lookup 3 subtable" .notdef
EndChar

StartChar: F
Encoding: 70 70 48
Width: 1110
Flags: HW
LayerCount: 2
Fore
SplineSet
182 1427 m 1,0,-1
 1040 1427 l 1,1,-1
 1040 1204 l 1,2,-1
 422 1204 l 1,3,-1
 422 774 l 1,4,-1
 963 774 l 1,5,-1
 963 551 l 1,6,-1
 422 551 l 1,7,-1
 422 0 l 1,8,-1
 182 0 l 1,9,-1
 182 1427 l 1,0,-1
EndSplineSet
Substitution2: "'smcp' Lowercase to Small Capitals in Latin lookup 0 subtable" .notdef
EndChar

StartChar: I
Encoding: 73 73 49
Width: 604
Flags: HW
LayerCount: 2
Fore
SplineSet
182 1427 m 1,0,-1
 422 1427 l 1,1,-1
 422 0 l 1,2,-1
 182 0 l 1,3,-1
 182 1427 l 1,0,-1
EndSplineSet
Substitution2: "'smcp' Lowercase to Small Capitals in Latin lookup 0 subtable" .notdef
EndChar

StartChar: J
Encoding: 74 74 50
Width: 706
Flags: HW
LayerCount: 2
Fore
SplineSet
371 -12.5 m 0,0,1
 320 -25 320 -25 224.75 -25 c 128,-1,2
 129.5 -25 129.5 -25 14 10 c 1,3,-1
 14 182 l 1,4,-1
 62 180 l 2,5,6
 104 178 104 178 145.5 178 c 128,-1,7
 187 178 187 178 211.5 181 c 128,-1,8
 236 184 236 184 252 197 c 0,9,10
 284 223 284 223 284 311 c 2,11,-1
 284 1427 l 1,12,-1
 525 1427 l 1,13,-1
 526 238 l 2,14,15
 526 25.4902 526 25.4902 371 -12.5 c 0,0,1
EndSplineSet
Substitution2: "'smcp' Lowercase to Small Capitals in Latin lookup 0 subtable" .notdef
EndChar

StartChar: L
Encoding: 76 76 51
Width: 1056
Flags: HW
LayerCount: 2
Fore
SplineSet
182 1427 m 1,0,-1
 422 1427 l 1,1,-1
 422 223 l 1,2,-1
 1012 223 l 1,3,-1
 1012 0 l 1,4,-1
 182 0 l 1,5,-1
 182 1427 l 1,0,-1
EndSplineSet
Substitution2: "'smcp' Lowercase to Small Capitals in Latin lookup 0 subtable" .notdef
EndChar

StartChar: U
Encoding: 85 85 52
Width: 1405
Flags: HW
LayerCount: 2
Fore
SplineSet
177 1427 m 1,0,-1
 415 1427 l 1,1,-1
 415 473 l 2,2,3
 415 305.391 415 305.391 479.5 246.5 c 0,4,5
 541.381 190 541.381 190 704 190 c 0,6,7
 854.429 190 854.429 190 919 246.5 c 0,8,9
 990 308.625 990 308.625 990 473 c 2,10,-1
 990 1427 l 1,11,-1
 1228 1427 l 1,12,-1
 1228 459 l 2,13,14
 1228 204.738 1228 204.738 1108 89.5 c 0,15,16
 982.521 -31 982.521 -31 704 -31 c 256,17,18
 424.442 -31 424.442 -31 298.5 88 c 0,19,20
 177 202.803 177 202.803 177 455 c 2,21,-1
 177 1427 l 1,0,-1
EndSplineSet
Substitution2: "'smcp' Lowercase to Small Capitals in Latin lookup 0 subtable" .notdef
EndChar

StartChar: T
Encoding: 84 84 53
Width: 1122
Flags: HW
LayerCount: 2
Fore
SplineSet
440 1206 m 1,0,-1
 12 1206 l 1,1,-1
 12 1427 l 1,2,-1
 1110 1427 l 1,3,-1
 1110 1206 l 1,4,-1
 678 1206 l 1,5,-1
 678 0 l 1,6,-1
 440 0 l 1,7,-1
 440 1206 l 1,0,-1
EndSplineSet
Substitution2: "'smcp' Lowercase to Small Capitals in Latin lookup 0 subtable" .notdef
EndChar

StartChar: P
Encoding: 80 80 54
Width: 1215
Flags: HW
LayerCount: 2
Fore
SplineSet
182 1427 m 1,0,-1
 748 1427 l 2,1,2
 857.128 1427 857.128 1427 915.564 1400.5 c 128,-1,3
 974 1374 974 1374 1011 1341 c 128,-1,4
 1048 1308 1048 1308 1076 1256.5 c 0,5,6
 1135 1147.98 1135 1147.98 1135 961 c 256,7,8
 1135 623.477 1135 623.477 921 533.5 c 0,9,10
 846.081 502 846.081 502 739 502 c 2,11,-1
 422 502 l 1,12,-1
 422 0 l 1,13,-1
 182 0 l 1,14,-1
 182 1427 l 1,0,-1
711 725 m 2,15,16
 854.721 725 854.721 725 878 868 c 0,17,18
 885 911 885 911 885 960.5 c 128,-1,19
 885 1010 885 1010 878 1054 c 128,-1,20
 871 1098 871 1098 851.5 1131.5 c 0,21,22
 809.299 1204 809.299 1204 711 1204 c 2,23,-1
 422 1204 l 1,24,-1
 422 725 l 1,25,-1
 711 725 l 2,15,16
EndSplineSet
Substitution2: "'smcp' Lowercase to Small Capitals in Latin lookup 0 subtable" .notdef
EndChar

StartChar: D
Encoding: 68 68 55
Width: 1370
Flags: HW
LayerCount: 2
Fore
SplineSet
182 1427 m 1,0,-1
 694 1427 l 2,1,2
 962.44 1427 962.44 1427 1093 1299 c 0,3,4
 1255 1140.18 1255 1140.18 1255 725 c 0,5,6
 1255 293.306 1255 293.306 1102 132.5 c 0,7,8
 1008.12 33.8298 1008.12 33.8298 853.5 11 c 0,9,10
 779 0 779 0 694 0 c 2,11,-1
 182 0 l 1,12,-1
 182 1427 l 1,0,-1
629 223 m 2,13,14
 762.167 223 762.167 223 810.583 240.5 c 128,-1,15
 859 258 859 258 893.5 288.5 c 128,-1,16
 928 319 928 319 952.5 375 c 0,17,18
 1004 492.714 1004 492.714 1004 727 c 0,19,20
 1004 1044.84 1004 1044.84 896.5 1139.5 c 0,21,22
 833.926 1194.6 833.926 1194.6 730.5 1201 c 0,23,24
 682 1204 682 1204 629 1204 c 2,25,-1
 422 1204 l 1,26,-1
 422 223 l 1,27,-1
 629 223 l 2,13,14
EndSplineSet
Substitution2: "'smcp' Lowercase to Small Capitals in Latin lookup 0 subtable" .notdef
EndChar

StartChar: G
Encoding: 71 71 56
Width: 1350
Flags: HW
LayerCount: 2
Fore
SplineSet
1217 68 m 1,0,1
 1008.39 -31 1008.39 -31 770 -31 c 0,2,3
 439.586 -31 439.586 -31 288 126 c 0,4,5
 115 305.179 115 305.179 115 727 c 0,6,7
 115 1300.98 115 1300.98 485 1419 c 0,8,9
 601 1456 601 1456 789.353 1456 c 128,-1,10
 977.706 1456 977.706 1456 1163 1393 c 1,11,-1
 1163 1212 l 1,12,13
 974 1233 974 1233 817.5 1233 c 128,-1,14
 661 1233 661 1233 579 1206.5 c 128,-1,15
 497 1180 497 1180 449 1120 c 0,16,17
 362 1011.25 362 1011.25 362 727 c 0,18,19
 362 437.702 362 437.702 450 316 c 0,20,21
 541.108 190 541.108 190 764 190 c 0,22,23
 896.857 190 896.857 190 979 213 c 1,24,-1
 979 580 l 1,25,-1
 719 580 l 1,26,-1
 719 799 l 1,27,-1
 1217 799 l 1,28,-1
 1217 68 l 1,0,1
EndSplineSet
Substitution2: "'smcp' Lowercase to Small Capitals in Latin lookup 0 subtable" .notdef
EndChar

StartChar: hyphen
Encoding: 45 45 57
Width: 794
Flags: HW
LayerCount: 2
Fore
SplineSet
60 702 m 1,0,-1
 734 702 l 1,1,-1
 734 475 l 1,2,-1
 60 475 l 1,3,-1
 60 702 l 1,0,-1
EndSplineSet
EndChar

StartChar: dotaccent
Encoding: 729 729 60
Width: 395
Flags: HW
LayerCount: 2
Fore
SplineSet
265 1210 m 128,-1,1
 239 1204 239 1204 198.5 1204 c 128,-1,2
 158 1204 158 1204 131.5 1210 c 128,-1,3
 105 1216 105 1216 89 1231 c 0,4,5
 61 1257.25 61 1257.25 61 1339 c 256,6,7
 61 1421 61 1421 83 1443 c 0,8,9
 117 1477 117 1477 178 1477 c 128,-1,10
 239 1477 239 1477 265 1471 c 128,-1,11
 291 1465 291 1465 306.5 1449 c 0,12,13
 334 1420.61 334 1420.61 334 1339 c 256,14,15
 334 1257.61 334 1257.61 312.5 1236.81 c 128,-1,0
 291 1216 291 1216 265 1210 c 128,-1,1
EndSplineSet
EndChar

StartChar: Lslash
Encoding: 321 321 61
Width: 1182
Flags: HW
LayerCount: 2
Fore
SplineSet
283 453 m 1,0,-1
 123 352 l 1,1,-1
 123 602 l 1,2,-1
 283 702 l 1,3,-1
 283 1427 l 1,4,-1
 520 1427 l 1,5,-1
 520 829 l 1,6,-1
 850 1047 l 1,7,-1
 850 793 l 1,8,-1
 520 578 l 1,9,-1
 520 229 l 1,10,-1
 1112 229 l 1,11,-1
 1112 0 l 1,12,-1
 283 0 l 1,13,-1
 283 453 l 1,0,-1
EndSplineSet
Substitution2: "'smcp' Lowercase to Small Capitals in Latin lookup 0 subtable" .notdef
EndChar

StartChar: lslash
Encoding: 322 322 62
Width: 745
Flags: HW
LayerCount: 2
Fore
SplineSet
260 537 m 1,0,-1
 90 432 l 1,1,-1
 90 676 l 1,2,-1
 260 784 l 1,3,-1
 260 1554 l 1,4,-1
 494 1554 l 1,5,-1
 494 922 l 1,6,-1
 694 1055 l 1,7,-1
 694 807 l 1,8,-1
 494 672 l 1,9,-1
 494 0 l 1,10,-1
 260 0 l 1,11,-1
 260 537 l 1,0,-1
EndSplineSet
Substitution2: "'smcp' Lowercase to Small Capitals in Latin lookup 0 subtable" .notdef
EndChar

StartChar: B
Encoding: 66 66 65
Width: 1312
Flags: HW
LayerCount: 2
Fore
SplineSet
182 1427 m 1,0,-1
 741 1427 l 2,1,2
 1045.9 1427 1045.9 1427 1111 1209.5 c 0,3,4
 1133 1136 1133 1136 1133 1043.5 c 128,-1,5
 1133 951 1133 951 1115.5 898 c 128,-1,6
 1098 845 1098 845 1072 814 c 0,7,8
 1032.42 766.803 1032.42 766.803 954 750 c 1,9,-1
 954 748 l 1,10,11
 1134.02 727.998 1134.02 727.998 1183 541.5 c 0,12,13
 1196 492 1196 492 1196 393 c 128,-1,14
 1196 294 1196 294 1170 211 c 128,-1,15
 1144 128 1144 128 1091.5 81 c 0,16,17
 1001.02 2.18518e-05 1001.02 2.18518e-05 770 0 c 2,18,-1
 182 0 l 1,19,-1
 182 1427 l 1,0,-1
694 825 m 2,20,21
 808.047 825 808.047 825 840.523 853.5 c 128,-1,22
 873 882 873 882 884 921 c 128,-1,23
 895 960 895 960 895 1018.5 c 128,-1,24
 895 1077 895 1077 882 1112.5 c 128,-1,25
 869 1148 869 1148 844 1169 c 0,26,27
 797.571 1208 797.571 1208 700 1208 c 2,28,-1
 422 1208 l 1,29,-1
 422 825 l 1,30,-1
 694 825 l 2,20,21
741 219 m 2,31,32
 843.932 219 843.932 219 879.466 248.5 c 128,-1,33
 915 278 915 278 929.5 317.5 c 128,-1,34
 944 357 944 357 944 422 c 256,35,36
 944 546.189 944 546.189 892.5 587 c 0,37,38
 849.595 621 849.595 621 729 621 c 2,39,-1
 422 621 l 1,40,-1
 422 219 l 1,41,-1
 741 219 l 2,31,32
EndSplineSet
Substitution2: "'smcp' Lowercase to Small Capitals in Latin lookup 0 subtable" .notdef
EndChar

StartChar: one
Encoding: 49 49 66
Width: 816
Flags: HW
LayerCount: 2
Fore
SplineSet
348 1204 m 1,0,-1
 86 1204 l 1,1,-1
 153 1427 l 1,2,-1
 587 1427 l 1,3,-1
 587 0 l 1,4,-1
 348 0 l 1,5,-1
 348 1204 l 1,0,-1
EndSplineSet
Substitution2: "'subs' Subscript in Latin lookup 4 subtable" .notdef
Substitution2: "'sups' Superscript in Latin lookup 3 subtable" onesuperior
EndChar

StartChar: exclam
Encoding: 33 33 67
Width: 513
Flags: HW
LayerCount: 2
Fore
SplineSet
172 1427 m 1,0,-1
 412 1427 l 1,1,-1
 412 436 l 1,2,-1
 172 436 l 1,3,-1
 172 1427 l 1,0,-1
145.5 63.5 m 128,-1,5
 139 93 139 93 139 139.5 c 128,-1,6
 139 186 139 186 145.5 215.5 c 128,-1,7
 152 245 152 245 169.5 262 c 0,8,9
 199.353 291 199.353 291 268.176 291 c 128,-1,10
 337 291 337 291 367 285 c 128,-1,11
 397 279 397 279 414 262 c 0,12,13
 445 231 445 231 445 162 c 128,-1,14
 445 93 445 93 438 63.5 c 128,-1,15
 431 34 431 34 414 16.5 c 0,16,17
 384.371 -14 384.371 -14 315.186 -14 c 128,-1,18
 246 -14 246 -14 216.5 -7.5 c 128,-1,19
 187 -1 187 -1 169.5 16.5 c 128,-1,4
 152 34 152 34 145.5 63.5 c 128,-1,5
EndSplineSet
EndChar

StartChar: nine
Encoding: 57 57 68
Width: 1200
Flags: HW
LayerCount: 2
Fore
SplineSet
530 -31 m 0,0,1
 379 -31 379 -31 205 27 c 1,2,-1
 205 217 l 1,3,4
 327.571 195 327.571 195 448.786 195 c 128,-1,5
 570 195 570 195 631 204 c 128,-1,6
 692 213 692 213 730.5 235 c 0,7,8
 805 277.571 805 277.571 805 389 c 2,9,-1
 805 567 l 1,10,11
 656.105 498 656.105 498 459 498 c 0,12,13
 293.919 498 293.919 498 210 601.5 c 0,14,15
 115 718.667 115 718.667 115 973 c 0,16,17
 115 1245.73 115 1245.73 238.5 1358 c 0,18,19
 346.3 1456 346.3 1456 588 1456 c 0,20,21
 785.78 1456 785.78 1456 880 1401.5 c 0,22,23
 1019.27 1320.94 1019.27 1320.94 1038.5 1028 c 0,24,25
 1045 929 1045 929 1045 799 c 2,26,-1
 1045 350 l 2,27,28
 1045 146.225 1045 146.225 928 57.5 c 0,29,30
 811.297 -31 811.297 -31 530 -31 c 0,0,1
483 723 m 128,-1,32
 526 713 526 713 612.611 713 c 128,-1,33
 699.222 713 699.222 713 805 741 c 1,34,-1
 805 983 l 2,35,36
 805 1132.6 805 1132.6 760 1183 c 0,37,38
 715.357 1233 715.357 1233 588 1233 c 0,39,40
 455.895 1233 455.895 1233 409 1183.5 c 0,41,42
 359 1130.72 359 1130.72 359 973 c 0,43,44
 359 814 359 814 412 761 c 0,45,31
 440 733 440 733 483 723 c 128,-1,32
EndSplineSet
Substitution2: "'subs' Subscript in Latin lookup 4 subtable" .notdef
Substitution2: "'sups' Superscript in Latin lookup 3 subtable" .notdef
EndChar

StartChar: eight
Encoding: 56 56 69
Width: 1254
Flags: HW
LayerCount: 2
Fore
SplineSet
184 187.5 m 128,-1,1
 149 272 149 272 149 371 c 128,-1,2
 149 470 149 470 161.5 519.5 c 128,-1,3
 174 569 174 569 194 606 c 128,-1,4
 214 643 214 643 238 668 c 128,-1,5
 262 693 262 693 285.5 709 c 0,6,7
 321.894 733.779 321.894 733.779 358 741 c 1,8,-1
 358 743 l 1,9,10
 253.451 765.01 253.451 765.01 204 901 c 0,11,12
 184 956 184 956 184 1042.5 c 128,-1,13
 184 1129 184 1129 204.5 1206 c 128,-1,14
 225 1283 225 1283 276 1338.5 c 0,15,16
 383.973 1456 383.973 1456 630 1456 c 0,17,18
 985.942 1456 985.942 1456 1052.5 1206 c 0,19,20
 1073 1129 1073 1129 1073 1042.5 c 128,-1,21
 1073 956 1073 956 1053.5 901.5 c 128,-1,22
 1034 847 1034 847 1006 814 c 0,23,24
 961.724 761.817 961.724 761.817 899 743 c 1,25,-1
 899 741 l 1,26,27
 960.429 728.714 960.429 728.714 1017.5 668 c 0,28,29
 1105 574.915 1105 574.915 1105 423.457 c 128,-1,30
 1105 272 1105 272 1069.5 187.5 c 128,-1,31
 1034 103 1034 103 970.5 55 c 0,32,33
 859.375 -29 859.375 -29 626 -29 c 256,34,35
 393.625 -29 393.625 -29 282.5 55 c 0,36,0
 219 103 219 103 184 187.5 c 128,-1,1
628 827 m 256,37,38
 744 827 744 827 792 875 c 0,39,40
 839 922 839 922 839 1038 c 256,41,42
 839 1151.44 839 1151.44 792 1197.5 c 0,43,44
 745.571 1243 745.571 1243 628 1243 c 256,45,46
 510.857 1243 510.857 1243 463.5 1197.5 c 0,47,48
 415 1150.9 415 1150.9 415 1038 c 256,49,50
 415 922.549 415 922.549 463.5 875 c 0,51,52
 512.46 827 512.46 827 628 827 c 256,37,38
393 405.5 m 0,53,54
 393 334 393 334 407.5 291 c 128,-1,55
 422 248 422 248 451.5 225 c 0,56,57
 498.957 188 498.957 188 628 188 c 256,58,59
 758.043 188 758.043 188 796.522 218 c 128,-1,60
 835 248 835 248 849.5 291 c 128,-1,61
 864 334 864 334 864 405.5 c 128,-1,62
 864 477 864 477 849.5 522.5 c 128,-1,63
 835 568 835 568 805.5 594.5 c 0,64,65
 753.736 641 753.736 641 628 641 c 256,66,67
 503.264 641 503.264 641 451.5 594.5 c 0,68,69
 393 541.949 393 541.949 393 405.5 c 0,53,54
EndSplineSet
Substitution2: "'subs' Subscript in Latin lookup 4 subtable" .notdef
Substitution2: "'sups' Superscript in Latin lookup 3 subtable" .notdef
EndChar

StartChar: zero
Encoding: 48 48 70
Width: 1375
Flags: HW
LayerCount: 2
Fore
SplineSet
688 -31 m 256,0,1
 493.257 -31 493.257 -31 382 35 c 0,2,3
 207.512 138.51 207.512 138.51 168.5 466.5 c 0,4,5
 155 580 155 580 155 764 c 128,-1,6
 155 948 155 948 185.5 1090 c 128,-1,7
 216 1232 216 1232 281 1313.5 c 128,-1,8
 346 1395 346 1395 446.5 1426.5 c 128,-1,9
 547 1458 547 1458 687.5 1458 c 128,-1,10
 828 1458 828 1458 929 1426.5 c 128,-1,11
 1030 1395 1030 1395 1094.5 1313.5 c 0,12,13
 1220 1154.92 1220 1154.92 1220 727 c 0,14,15
 1220 294.651 1220 294.651 1095 127.5 c 0,16,17
 1011.47 15.7993 1011.47 15.7993 858 -15.5 c 0,18,19
 782 -31 782 -31 688 -31 c 256,0,1
688 190 m 256,20,21
 850.962 190 850.962 190 911.5 321 c 0,22,23
 964 434.607 964 434.607 964 727 c 256,24,25
 964 1014.36 964 1014.36 911.5 1118.5 c 0,26,27
 853.777 1233 853.777 1233 688 1233 c 256,28,29
 523.45 1233 523.45 1233 465.5 1119 c 0,30,31
 413 1015.72 413 1015.72 413 727 c 0,32,33
 413 433.607 413 433.607 465.5 320 c 0,34,35
 525.576 190 525.576 190 688 190 c 256,20,21
EndSplineSet
Substitution2: "'subs' Subscript in Latin lookup 4 subtable" .notdef
Substitution2: "'sups' Superscript in Latin lookup 3 subtable" .notdef
EndChar

StartChar: equal
Encoding: 61 61 71
Width: 1031
Flags: HW
LayerCount: 2
Fore
SplineSet
60 934 m 1,0,-1
 971 934 l 1,1,-1
 971 729 l 1,2,-1
 60 729 l 1,3,-1
 60 934 l 1,0,-1
60 514 m 1,4,-1
 971 514 l 1,5,-1
 971 307 l 1,6,-1
 60 307 l 1,7,-1
 60 514 l 1,4,-1
EndSplineSet
EndChar

StartChar: plus
Encoding: 43 43 72
Width: 1018
Flags: HW
LayerCount: 2
Fore
SplineSet
401 561 m 1,0,-1
 51 561 l 1,1,-1
 51 764 l 1,2,-1
 399 764 l 1,3,-1
 399 1141 l 1,4,-1
 621 1141 l 1,5,-1
 621 764 l 1,6,-1
 967 764 l 1,7,-1
 967 565 l 1,8,-1
 623 565 l 1,9,-1
 623 188 l 1,10,-1
 401 188 l 1,11,-1
 401 561 l 1,0,-1
EndSplineSet
EndChar

StartChar: seven
Encoding: 55 55 73
Width: 1073
Flags: HW
LayerCount: 2
Fore
SplineSet
720 1200 m 1,0,-1
 720 1204 l 1,1,-1
 65 1204 l 1,2,-1
 65 1427 l 1,3,-1
 1003 1427 l 1,4,-1
 1003 1270 l 1,5,-1
 475 0 l 1,6,-1
 198 0 l 1,7,-1
 720 1200 l 1,0,-1
EndSplineSet
Substitution2: "'subs' Subscript in Latin lookup 4 subtable" .notdef
Substitution2: "'sups' Superscript in Latin lookup 3 subtable" .notdef
EndChar

StartChar: two
Encoding: 50 50 74
Width: 1151
Flags: HW
LayerCount: 2
Fore
SplineSet
148 1384 m 1,0,1
 329.3 1458 329.3 1458 545 1458 c 0,2,3
 895.303 1458 895.303 1458 964 1231 c 0,4,5
 987 1155 987 1155 987 1066.5 c 128,-1,6
 987 978 987 978 961 891 c 128,-1,7
 935 804 935 804 873.5 702.5 c 0,8,9
 744.453 489.52 744.453 489.52 459 225 c 1,10,-1
 459 223 l 1,11,-1
 987 223 l 1,12,-1
 987 0 l 1,13,-1
 105 0 l 1,14,-1
 105 143 l 1,15,-1
 399.5 460 l 1,16,17
 637.954 729.127 637.954 729.127 704 885.5 c 0,18,19
 738 966 738 966 738 1025.5 c 128,-1,20
 738 1085 738 1085 725.5 1122 c 128,-1,21
 713 1159 713 1159 682 1183.5 c 0,22,23
 619.367 1233 619.367 1233 473.517 1233 c 128,-1,24
 327.667 1233 327.667 1233 148 1200 c 1,25,-1
 148 1384 l 1,0,1
EndSplineSet
Substitution2: "'subs' Subscript in Latin lookup 4 subtable" .notdef
Substitution2: "'sups' Superscript in Latin lookup 3 subtable" twosuperior
EndChar

StartChar: four
Encoding: 52 52 75
Width: 1224
Flags: HW
LayerCount: 2
Fore
SplineSet
65 450 m 1,0,-1
 612 1427 l 1,1,-1
 971 1427 l 1,2,-1
 971 505 l 1,3,-1
 1124 505 l 1,4,-1
 1124 292 l 1,5,-1
 971 292 l 1,6,-1
 971 0 l 1,7,-1
 733 0 l 1,8,-1
 733 292 l 1,9,-1
 65 292 l 1,10,-1
 65 450 l 1,0,-1
733 505 m 1,11,-1
 735 1237 l 1,12,-1
 729 1237 l 1,13,-1
 330 505 l 1,14,-1
 733 505 l 1,11,-1
EndSplineSet
Substitution2: "'subs' Subscript in Latin lookup 4 subtable" .notdef
Substitution2: "'sups' Superscript in Latin lookup 3 subtable" .notdef
EndChar

StartChar: backslash
Encoding: 92 92 76
Width: 925
Flags: HW
LayerCount: 2
Fore
SplineSet
30 1554 m 1,0,-1
 272 1554 l 1,1,-1
 915 0 l 1,2,-1
 673 0 l 1,3,-1
 30 1554 l 1,0,-1
EndSplineSet
EndChar

StartChar: slash
Encoding: 47 47 77
Width: 924
Flags: HW
LayerCount: 2
Fore
SplineSet
653 1554 m 1,0,-1
 894 1554 l 1,1,-1
 251 0 l 1,2,-1
 10 0 l 1,3,-1
 653 1554 l 1,0,-1
EndSplineSet
EndChar

StartChar: at
Encoding: 64 64 78
Width: 1660
Flags: HW
LayerCount: 2
Fore
SplineSet
882 160 m 0,0,1
 1280.94 160 1280.94 160 1447 221 c 1,2,-1
 1447 53 l 1,3,4
 1247.5 -31 1247.5 -31 882 -31 c 0,5,6
 492.11 -31 492.11 -31 313.5 149.5 c 0,7,8
 126 338.984 126 338.984 126 776 c 0,9,10
 126 1386.51 126 1386.51 561 1513 c 0,11,12
 702 1554 702 1554 862.5 1554 c 128,-1,13
 1023 1554 1023 1554 1131 1536.5 c 128,-1,14
 1239 1519 1239 1519 1318 1481 c 128,-1,15
 1397 1443 1397 1443 1450.5 1382.5 c 128,-1,16
 1504 1322 1504 1322 1536 1235.5 c 0,17,18
 1595 1076.02 1595 1076.02 1595 776 c 0,19,20
 1595 546.351 1595 546.351 1490.5 430 c 0,21,22
 1397.23 326.152 1397.23 326.152 1238 324 c 1,23,-1
 1208 323 l 1,24,25
 1102 323 1102 323 1042 344 c 1,26,-1
 1015 420 l 1,27,-1
 961.5 388.5 l 2,28,29
 850.091 324 850.091 324 759 324 c 0,30,31
 472 324 472 324 472 756 c 256,32,33
 472 1188 472 1188 759 1188 c 0,34,35
 888.714 1188 888.714 1188 1019 1112 c 1,36,-1
 1044 1174 l 1,37,-1
 1210 1174 l 1,38,-1
 1210 494 l 1,39,40
 1320.97 494 1320.97 494 1360 549 c 0,41,42
 1400 605.364 1400 605.364 1400 740.182 c 128,-1,43
 1400 875 1400 875 1395.5 958.5 c 128,-1,44
 1391 1042 1391 1042 1373.5 1107.5 c 128,-1,45
 1356 1173 1356 1173 1322.5 1221.5 c 128,-1,46
 1289 1270 1289 1270 1231.5 1301.5 c 0,47,48
 1117.41 1364 1117.41 1364 921.206 1364 c 128,-1,49
 725 1364 725 1364 618 1329.5 c 128,-1,50
 511 1295 511 1295 445 1222.5 c 0,51,52
 321 1086.29 321 1086.29 321 772 c 0,53,54
 321 443.038 321 443.038 441 305.5 c 0,55,56
 567.946 160 567.946 160 882 160 c 0,0,1
835 1006 m 256,57,58
 683 1006 683 1006 683 756 c 0,59,60
 683 547 683 547 775 512.5 c 0,61,62
 803 502 803 502 862 502 c 128,-1,63
 921 502 921 502 999 528 c 1,64,-1
 999 971 l 1,65,66
 901.778 1006 901.778 1006 835 1006 c 256,57,58
EndSplineSet
EndChar

StartChar: K
Encoding: 75 75 79
Width: 1313
Flags: HW
LayerCount: 2
Fore
SplineSet
182 1427 m 1,0,-1
 422 1427 l 1,1,-1
 422 844 l 1,2,-1
 642 844 l 1,3,-1
 975 1427 l 1,4,-1
 1252 1427 l 1,5,-1
 854 737 l 1,6,-1
 1275 0 l 1,7,-1
 994 0 l 1,8,-1
 642 621 l 1,9,-1
 422 621 l 1,10,-1
 422 0 l 1,11,-1
 182 0 l 1,12,-1
 182 1427 l 1,0,-1
EndSplineSet
Substitution2: "'smcp' Lowercase to Small Capitals in Latin lookup 0 subtable" .notdef
EndChar

StartChar: trademark
Encoding: 8482 8482 80
Width: 1872
Flags: HW
LayerCount: 2
Fore
SplineSet
937 1427 m 1,0,-1
 1229 1427 l 1,1,-1
 1302 1090 l 1,2,-1
 1314 1090 l 1,3,4
 1323.32 1173.92 1323.32 1173.92 1336 1221 c 1,5,-1
 1385 1427 l 1,6,-1
 1680 1427 l 1,7,-1
 1680 776 l 1,8,-1
 1508 776 l 1,9,-1
 1508 1286 l 1,10,-1
 1496 1286 l 1,11,12
 1492.37 1256.95 1492.37 1256.95 1481 1214 c 2,13,-1
 1414 952 l 1,14,-1
 1203 952 l 1,15,-1
 1135 1204 l 2,16,17
 1131 1216 1131 1216 1129 1228.5 c 128,-1,18
 1127 1241 1127 1241 1125 1251.5 c 128,-1,19
 1123 1262 1123 1262 1121 1274 c 1,20,-1
 1109 1274 l 1,21,-1
 1109 776 l 1,22,-1
 937 776 l 1,23,-1
 937 1427 l 1,0,-1
420 1260 m 1,24,-1
 192 1260 l 1,25,-1
 192 1427 l 1,26,-1
 825 1427 l 1,27,-1
 825 1260 l 1,28,-1
 596 1260 l 1,29,-1
 596 776 l 1,30,-1
 420 776 l 1,31,-1
 420 1260 l 1,24,-1
EndSplineSet
EndChar

StartChar: M
Encoding: 77 77 81
Width: 1734
Flags: HW
LayerCount: 2
Fore
SplineSet
182 1427 m 1,0,-1
 598 1427 l 1,1,-1
 862 567 l 1,2,-1
 870 567 l 1,3,-1
 1143 1427 l 1,4,-1
 1552 1427 l 1,5,-1
 1552 0 l 1,6,-1
 1313 0 l 1,7,-1
 1313 1204 l 1,8,-1
 1307 1204 l 1,9,10
 1248.27 1008.82 1248.27 1008.82 1233 963 c 2,11,-1
 1049 387 l 1,12,-1
 690 387 l 1,13,14
 467.503 1072.95 467.503 1072.95 454.751 1115.47 c 2,15,-1
 428 1204 l 1,16,-1
 422 1204 l 1,17,-1
 422 0 l 1,18,-1
 182 0 l 1,19,-1
 182 1427 l 1,0,-1
EndSplineSet
Substitution2: "'smcp' Lowercase to Small Capitals in Latin lookup 0 subtable" .notdef
EndChar

StartChar: asciitilde
Encoding: 126 126 82
Width: 1382
Flags: HW
LayerCount: 2
Fore
SplineSet
60 403 m 1,0,1
 66.0948 553.339 66.0948 553.339 150 648.5 c 0,2,3
 236.065 746.11 236.065 746.11 384 754 c 1,4,5
 491.433 760.857 491.433 760.857 711 653 c 1,6,-1
 820 601 l 1,7,8
 940.018 545.607 940.018 545.607 984.509 547.804 c 128,-1,9
 1029 550 1029 550 1054.5 560 c 128,-1,10
 1080 570 1080 570 1101.5 589.5 c 0,11,12
 1139.47 623.936 1139.47 623.936 1181 707 c 1,13,-1
 1322 666 l 1,14,15
 1312.58 433.609 1312.58 433.609 1132 352.5 c 0,16,17
 940.537 266.504 940.537 266.504 665.5 419 c 0,18,19
 544.062 486.332 544.062 486.332 486.531 504.666 c 128,-1,20
 429 523 429 523 374.5 520 c 0,21,22
 255.682 513.46 255.682 513.46 202 362 c 1,23,-1
 60 403 l 1,0,1
EndSplineSet
EndChar

StartChar: parenleft
Encoding: 40 40 83
Width: 648
Flags: HW
LayerCount: 2
Fore
SplineSet
422 -266 m 1,0,1
 255.788 -89.5275 255.788 -89.5275 179.5 264 c 0,2,3
 135 470.22 135 470.22 135 666.11 c 128,-1,4
 135 862 135 862 147 977.5 c 128,-1,5
 159 1093 159 1093 179.5 1189 c 0,6,7
 256.154 1547.96 256.154 1547.96 422 1722 c 1,8,-1
 608 1722 l 1,9,10
 432.294 1403.53 432.294 1403.53 390.5 946 c 0,11,12
 381 842 381 842 381 727 c 256,13,14
 381 344.381 381 344.381 494 0 c 0,15,16
 544 -151 544 -151 608 -266 c 1,17,-1
 422 -266 l 1,0,1
EndSplineSet
EndChar

StartChar: parenright
Encoding: 41 41 84
Width: 646
Flags: HW
LayerCount: 2
Fore
SplineSet
40 -266 m 1,0,1
 212.929 49.6645 212.929 49.6645 257 508 c 0,2,3
 267 612 267 612 267 727 c 256,4,5
 267 1102.14 267 1102.14 153 1455 c 1,6,7
 103 1606 103 1606 40 1722 c 1,8,-1
 226 1722 l 1,9,10
 442.863 1491.58 442.863 1491.58 498.5 977.5 c 0,11,12
 511 862 511 862 511 725.5 c 128,-1,13
 511 589 511 589 498.5 474 c 128,-1,14
 486 359 486 359 466 264 c 0,15,16
 430.188 93.8916 430.188 93.8916 368.094 -43.0542 c 128,-1,17
 306 -180 306 -180 226 -266 c 1,18,-1
 40 -266 l 1,0,1
EndSplineSet
EndChar

StartChar: S
Encoding: 83 83 85
Width: 1110
Flags: HW
LayerCount: 2
Fore
SplineSet
120 37 m 1,0,-1
 120 213 l 1,1,2
 287.571 190 287.571 190 434.786 190 c 128,-1,3
 582 190 582 190 639 202.5 c 128,-1,4
 696 215 696 215 726 239.5 c 0,5,6
 773 277.883 773 277.883 773 383 c 0,7,8
 773 468.077 773 468.077 756.5 498.538 c 0,9,10
 725.843 555.136 725.843 555.136 650 575 c 2,11,-1
 359 651 l 2,12,13
 220.987 687.003 220.987 687.003 164.5 777 c 128,-1,14
 108 867.017 108 867.017 108 1047 c 0,15,16
 108 1355.66 108 1355.66 372 1432 c 0,17,18
 455 1456 455 1456 557 1456 c 0,19,20
 762.312 1456 762.312 1456 943 1397 c 1,21,-1
 943 1212 l 1,22,23
 770.5 1235 770.5 1235 661.25 1235 c 128,-1,24
 552 1235 552 1235 495 1229 c 128,-1,25
 438 1223 438 1223 405 1204 c 0,26,27
 346 1170.03 346 1170.03 346 1057 c 0,28,29
 346 985.64 346 985.64 362 961.32 c 0,30,31
 389.393 919.682 389.393 919.682 465 897 c 2,32,-1
 736 819 l 2,33,34
 848.125 786.656 848.125 786.656 888.562 756.328 c 128,-1,35
 929 726 929 726 950.5 696 c 128,-1,36
 972 666 972 666 985 624.5 c 0,37,38
 1010 544.692 1010 544.692 1010 414.346 c 128,-1,39
 1010 284 1010 284 990.5 202.5 c 128,-1,40
 971 121 971 121 917 69.5 c 0,41,42
 811.621 -31 811.621 -31 523.074 -31 c 128,-1,43
 234.526 -31 234.526 -31 120 37 c 1,0,-1
EndSplineSet
Substitution2: "'smcp' Lowercase to Small Capitals in Latin lookup 0 subtable" .notdef
EndChar

StartChar: Q
Encoding: 81 81 86
Width: 1403
Flags: HW
LayerCount: 2
Fore
SplineSet
951 2 m 1,0,1
 844.235 -31 844.235 -31 727.118 -31 c 128,-1,2
 610 -31 610 -31 531 -18 c 128,-1,3
 452 -5 452 -5 387 27.5 c 128,-1,4
 322 60 322 60 271.5 114 c 128,-1,5
 221 168 221 168 186 250.5 c 0,6,7
 115 417.857 115 417.857 115 675.929 c 128,-1,8
 115 934 115 934 155 1079 c 128,-1,9
 195 1224 195 1224 271 1307.5 c 128,-1,10
 347 1391 347 1391 456 1423.5 c 128,-1,11
 565 1456 565 1456 679 1456 c 128,-1,12
 793 1456 793 1456 872 1442 c 128,-1,13
 951 1428 951 1428 1016 1395 c 128,-1,14
 1081 1362 1081 1362 1131 1306.5 c 128,-1,15
 1181 1251 1181 1251 1215.5 1168 c 0,16,17
 1286 998.391 1286 998.391 1286 709 c 0,18,19
 1286 257.442 1286 257.442 1106 90 c 1,20,-1
 1252 -115 l 1,21,-1
 1034 -115 l 1,22,-1
 951 2 l 1,0,1
961 286 m 1,23,24
 1036 389.571 1036 389.571 1036 709 c 0,25,26
 1036 1018.46 1036 1018.46 967 1126.5 c 0,27,28
 929 1186 929 1186 864.5 1209.5 c 128,-1,29
 800 1233 800 1233 702 1233 c 256,30,31
 604 1233 604 1233 539 1209.5 c 128,-1,32
 474 1186 474 1186 436 1126.5 c 0,33,34
 367 1018.46 367 1018.46 367 709 c 0,35,36
 367 400.724 367 400.724 436 294.5 c 0,37,38
 474 236 474 236 539 213 c 128,-1,39
 604 190 604 190 668 190 c 0,40,41
 763 190 763 190 809 198 c 1,42,-1
 647 430 l 1,43,-1
 862 430 l 1,44,-1
 961 286 l 1,23,24
EndSplineSet
Substitution2: "'smcp' Lowercase to Small Capitals in Latin lookup 0 subtable" .notdef
EndChar

StartChar: less
Encoding: 60 60 87
Width: 969
Flags: HW
LayerCount: 2
Fore
SplineSet
72 754 m 1,0,-1
 887 1118 l 1,1,-1
 887 850 l 1,2,-1
 266 598 l 1,3,-1
 266 582 l 1,4,-1
 887 330 l 1,5,-1
 887 59 l 1,6,-1
 72 418 l 1,7,-1
 72 754 l 1,0,-1
EndSplineSet
EndChar

StartChar: greater
Encoding: 62 62 88
Width: 969
Flags: HW
LayerCount: 2
Fore
SplineSet
82 68 m 1,0,-1
 82 338 l 1,1,-1
 702 590 l 1,2,-1
 702 606 l 1,3,-1
 82 858 l 1,4,-1
 82 1126 l 1,5,-1
 897 762 l 1,6,-1
 897 426 l 1,7,-1
 82 68 l 1,0,-1
EndSplineSet
EndChar

StartChar: dollar
Encoding: 36 36 89
Width: 1110
Flags: HW
LayerCount: 2
Fore
SplineSet
943 1212 m 1,0,1
 770.5 1235 770.5 1235 661.25 1235 c 128,-1,2
 552 1235 552 1235 495 1229 c 128,-1,3
 438 1223 438 1223 405 1204 c 0,4,5
 346 1170.03 346 1170.03 346 1057 c 0,6,7
 346 985.64 346 985.64 362 961.32 c 0,8,9
 389.393 919.682 389.393 919.682 465 897 c 2,10,-1
 736 819 l 2,11,12
 848.125 786.656 848.125 786.656 888.562 756.328 c 128,-1,13
 929 726 929 726 950.5 696 c 128,-1,14
 972 666 972 666 985 624.5 c 0,15,16
 1010 544.692 1010 544.692 1010 422.846 c 128,-1,17
 1010 301 1010 301 996 228 c 128,-1,18
 982 155 982 155 946 103.5 c 0,19,20
 874.398 1.06911 874.398 1.06911 686 -22 c 1,21,-1
 686 -205 l 1,22,-1
 451 -205 l 1,23,-1
 451 -29 l 1,24,25
 299.68 -24.1707 299.68 -24.1707 222.84 -2.08533 c 128,-1,26
 146 20 146 20 120 37 c 1,27,-1
 120 213 l 1,28,29
 287.571 190 287.571 190 434.786 190 c 128,-1,30
 582 190 582 190 639 202.5 c 128,-1,31
 696 215 696 215 726 239.5 c 0,32,33
 773 277.883 773 277.883 773 383 c 0,34,35
 773 468.077 773 468.077 756.5 498.538 c 0,36,37
 725.843 555.136 725.843 555.136 650 575 c 2,38,-1
 359 651 l 2,39,40
 220.987 687.003 220.987 687.003 164.5 777 c 128,-1,41
 108 867.017 108 867.017 108 1047 c 0,42,43
 108 1313.28 108 1313.28 308.5 1408 c 0,44,45
 372 1438 372 1438 451 1449 c 1,46,-1
 451 1632 l 1,47,-1
 686 1632 l 1,48,-1
 686 1449 l 1,49,50
 832.45 1433.85 832.45 1433.85 943 1397 c 1,51,-1
 943 1212 l 1,0,1
EndSplineSet
EndChar

StartChar: endash
Encoding: 8211 8211 90
Width: 1140
Flags: HW
LayerCount: 2
Fore
SplineSet
60 702 m 1,0,-1
 1080 702 l 1,1,-1
 1080 475 l 1,2,-1
 60 475 l 1,3,-1
 60 702 l 1,0,-1
EndSplineSet
EndChar

StartChar: emdash
Encoding: 8212 8212 91
Width: 2166
Flags: HW
LayerCount: 2
Fore
SplineSet
60 702 m 1,0,-1
 2106 702 l 1,1,-1
 2106 475 l 1,2,-1
 60 475 l 1,3,-1
 60 702 l 1,0,-1
EndSplineSet
EndChar

StartChar: lessequal
Encoding: 8804 8804 92
Width: 1005
Flags: HW
LayerCount: 2
Fore
SplineSet
90 903 m 1,0,-1
 905 1282 l 1,1,-1
 905 1014 l 1,2,-1
 289 758 l 1,3,-1
 289 750 l 1,4,-1
 905 479 l 1,5,-1
 905 225 l 1,6,-1
 90 596 l 1,7,-1
 90 903 l 1,0,-1
102 221 m 1,8,-1
 905 221 l 1,9,-1
 905 0 l 1,10,-1
 102 0 l 1,11,-1
 102 221 l 1,8,-1
EndSplineSet
EndChar

StartChar: greaterequal
Encoding: 8805 8805 93
Width: 1005
Flags: HW
LayerCount: 2
Fore
SplineSet
100 225 m 1,0,-1
 100 479 l 1,1,-1
 717 750 l 1,2,-1
 717 758 l 1,3,-1
 100 1014 l 1,4,-1
 100 1282 l 1,5,-1
 915 903 l 1,6,-1
 915 596 l 1,7,-1
 100 225 l 1,0,-1
100 0 m 1,8,-1
 100 221 l 1,9,-1
 903 221 l 1,10,-1
 903 0 l 1,11,-1
 100 0 l 1,8,-1
EndSplineSet
EndChar

StartChar: fi
Encoding: 64257 64257 98
Width: 1316
Flags: HW
LayerCount: 2
Fore
SplineSet
1040 1358 m 1,0,1
 856.4 1376 856.4 1376 763.7 1376 c 128,-1,2
 671 1376 671 1376 627 1368.5 c 128,-1,3
 583 1361 583 1361 555.5 1342 c 0,4,5
 503 1305.73 503 1305.73 503 1215 c 2,6,-1
 503 1055 l 1,7,-1
 1153 1055 l 1,8,-1
 1153 0 l 1,9,-1
 915 0 l 1,10,-1
 915 860 l 1,11,-1
 503 860 l 1,12,-1
 503 0 l 1,13,-1
 264 0 l 1,14,-1
 264 860 l 1,15,-1
 90 860 l 1,16,-1
 90 1055 l 1,17,-1
 264 1055 l 1,18,-1
 264 1235 l 2,19,20
 264 1527.98 264 1527.98 518.5 1576 c 0,21,22
 598 1591 598 1591 727.125 1591 c 128,-1,23
 856.25 1591 856.25 1591 1040 1546 c 1,24,-1
 1040 1358 l 1,0,1
EndSplineSet
Ligature2: "'liga' Standard Ligatures in Latin lookup 1 subtable" f i
EndChar

StartChar: percent
Encoding: 37 37 99
Width: 1526
Flags: HW
LayerCount: 2
Fore
SplineSet
1134 1554 m 1,0,-1
 1357 1554 l 1,1,-1
 405 0 l 1,2,-1
 184 0 l 1,3,-1
 1134 1554 l 1,0,-1
518.5 855.5 m 0,4,5
 459 838 459 838 385.5 838 c 128,-1,6
 312 838 312 838 253 855.5 c 128,-1,7
 194 873 194 873 152 914.5 c 0,8,9
 65 1000.46 65 1000.46 65 1196 c 0,10,11
 65 1482.83 65 1482.83 253 1537 c 0,12,13
 312 1554 312 1554 385.5 1554 c 128,-1,14
 459 1554 459 1554 518.5 1537 c 128,-1,15
 578 1520 578 1520 620 1479 c 0,16,17
 708 1393.1 708 1393.1 708 1196 c 0,18,19
 708 911.235 708 911.235 518.5 855.5 c 0,4,5
330 1029.5 m 0,20,21
 354 1022 354 1022 387 1022 c 128,-1,22
 420 1022 420 1022 444 1029.5 c 128,-1,23
 468 1037 468 1037 483.5 1056.5 c 0,24,25
 513 1093.61 513 1093.61 513 1196 c 256,26,27
 513 1298.39 513 1298.39 490.5 1326.69 c 128,-1,28
 468 1355 468 1355 444 1362.5 c 128,-1,29
 420 1370 420 1370 387 1370 c 128,-1,30
 354 1370 354 1370 330 1362.5 c 128,-1,31
 306 1355 306 1355 290 1335.5 c 0,32,33
 259 1297.72 259 1297.72 259 1196 c 256,34,35
 259 1051.69 259 1051.69 330 1029.5 c 0,20,21
845 155 m 128,-1,37
 822 224 822 224 822 327.5 c 128,-1,38
 822 431 822 431 845 499.5 c 128,-1,39
 868 568 868 568 910 609.5 c 0,40,41
 987.422 686 987.422 686 1144 686 c 0,42,43
 1302.58 686 1302.58 686 1380 609.5 c 0,44,45
 1468 522.548 1468 522.548 1468 328 c 0,46,47
 1468 39.8333 1468 39.8333 1278 -14 c 0,48,49
 1218 -31 1218 -31 1144.5 -31 c 128,-1,50
 1071 -31 1071 -31 1011.5 -14 c 128,-1,51
 952 3 952 3 910 44.5 c 128,-1,36
 868 86 868 86 845 155 c 128,-1,37
1017 328 m 256,52,53
 1017 224.613 1017 224.613 1039.5 196.306 c 128,-1,54
 1062 168 1062 168 1086 161 c 128,-1,55
 1110 154 1110 154 1144 154 c 256,56,57
 1214.87 154 1214.87 154 1235.94 180.5 c 0,58,59
 1271 224.613 1271 224.613 1271 328 c 256,60,61
 1271 430.387 1271 430.387 1248.5 458.694 c 128,-1,62
 1226 487 1226 487 1202 494.5 c 128,-1,63
 1178 502 1178 502 1144 502 c 256,64,65
 1073.92 502 1073.92 502 1052.46 475 c 0,66,67
 1017 430.387 1017 430.387 1017 328 c 256,52,53
EndSplineSet
EndChar

StartChar: registered
Encoding: 174 174 100
Width: 1450
Flags: HW
LayerCount: 2
Fore
SplineSet
725 207 m 256,0,1
 582 207 582 207 456.5 261 c 128,-1,2
 331 315 331 315 237 409 c 128,-1,3
 143 503 143 503 89 628.5 c 128,-1,4
 35 754 35 754 35 897 c 256,5,6
 35 1040 35 1040 89 1165.5 c 128,-1,7
 143 1291 143 1291 237 1385 c 128,-1,8
 331 1479 331 1479 456.5 1533 c 128,-1,9
 582 1587 582 1587 725 1587 c 256,10,11
 868 1587 868 1587 993.5 1533 c 128,-1,12
 1119 1479 1119 1479 1213 1385 c 128,-1,13
 1307 1291 1307 1291 1361 1165.5 c 128,-1,14
 1415 1040 1415 1040 1415 897 c 256,15,16
 1415 754 1415 754 1361 628.5 c 128,-1,17
 1307 503 1307 503 1213 409 c 128,-1,18
 1119 315 1119 315 993.5 261 c 128,-1,19
 868 207 868 207 725 207 c 256,0,1
725 389 m 256,20,21
 935.42 389 935.42 389 1085.5 538 c 0,22,23
 1235 686.424 1235 686.424 1235 897 c 256,24,25
 1235 1108 1235 1108 1085.5 1257.5 c 128,-1,26
 936 1407 936 1407 725 1407 c 256,27,28
 514.424 1407 514.424 1407 366 1257.5 c 0,29,30
 217 1107.42 217 1107.42 217 897 c 256,31,32
 217 687 217 687 366 538 c 128,-1,33
 515 389 515 389 725 389 c 256,20,21
465 1260 m 1,34,-1
 799 1260 l 2,35,36
 894.429 1260 894.429 1260 936.214 1228.5 c 0,37,38
 1020 1165.34 1020 1165.34 1020 1020 c 0,39,40
 1020 902.783 1020 902.783 960 848 c 0,41,42
 934 823 934 823 901 815 c 1,43,-1
 1053 545 l 1,44,-1
 860 545 l 1,45,-1
 725 784 l 1,46,-1
 635 784 l 1,47,-1
 635 545 l 1,48,-1
 465 545 l 1,49,-1
 465 1260 l 1,34,-1
764 907 m 2,50,51
 812.6 907 812.6 907 827.3 924.5 c 0,52,53
 852 953.905 852 953.905 852 1016.45 c 128,-1,54
 852 1079 852 1079 831 1101.5 c 128,-1,55
 810 1124 810 1124 758 1124 c 2,56,-1
 635 1124 l 1,57,-1
 635 907 l 1,58,-1
 764 907 l 2,50,51
EndSplineSet
EndChar

StartChar: copyright
Encoding: 169 169 101
Width: 1450
Flags: HW
LayerCount: 2
Fore
SplineSet
725 211 m 256,0,1
 582 211 582 211 456.5 265 c 128,-1,2
 331 319 331 319 237 413 c 128,-1,3
 143 507 143 507 89 632.5 c 128,-1,4
 35 758 35 758 35 901.5 c 128,-1,5
 35 1045 35 1045 89 1170.5 c 128,-1,6
 143 1296 143 1296 237 1389.5 c 128,-1,7
 331 1483 331 1483 456.5 1537 c 128,-1,8
 582 1591 582 1591 725 1591 c 256,9,10
 868 1591 868 1591 993.5 1537 c 128,-1,11
 1119 1483 1119 1483 1213 1389.5 c 128,-1,12
 1307 1296 1307 1296 1361 1170.5 c 128,-1,13
 1415 1045 1415 1045 1415 901.5 c 128,-1,14
 1415 758 1415 758 1361 632.5 c 128,-1,15
 1307 507 1307 507 1213 413 c 128,-1,16
 1119 319 1119 319 993.5 265 c 128,-1,17
 868 211 868 211 725 211 c 256,0,1
725 393 m 256,18,19
 934.413 393 934.413 393 1085.5 543 c 0,20,21
 1235 691.424 1235 691.424 1235 901 c 0,22,23
 1235 1112 1235 1112 1085.5 1261.5 c 128,-1,24
 936 1411 936 1411 725 1411 c 256,25,26
 514.424 1411 514.424 1411 366 1261.5 c 0,27,28
 217 1111.42 217 1111.42 217 901 c 0,29,30
 217 692 217 692 366 543 c 0,31,32
 516 393 516 393 725 393 c 256,18,19
956 575 m 1,33,34
 872.923 530 872.923 530 735 530 c 0,35,36
 418 530 418 530 418 901 c 0,37,38
 418 1198.87 418 1198.87 609 1256.5 c 0,39,40
 667 1274 667 1274 766.25 1274 c 128,-1,41
 865.5 1274 865.5 1274 948 1229 c 1,42,-1
 948 1098 l 1,43,44
 890.4 1116 890.4 1116 808.2 1116 c 128,-1,45
 726 1116 726 1116 692.5 1106 c 128,-1,46
 659 1096 659 1096 638 1071.5 c 0,47,48
 598 1024.83 598 1024.83 598 933.917 c 128,-1,49
 598 843 598 843 607.5 801 c 128,-1,50
 617 759 617 759 638 734 c 0,51,52
 676.64 688 676.64 688 786.237 688 c 128,-1,53
 895.833 688 895.833 688 956 707 c 1,54,-1
 956 575 l 1,33,34
EndSplineSet
EndChar

StartChar: divide
Encoding: 247 247 102
Width: 1124
Flags: HW
LayerCount: 2
Fore
SplineSet
634.5 856.5 m 128,-1,1
 606 850 606 850 561.5 850 c 128,-1,2
 517 850 517 850 488.5 856.5 c 128,-1,3
 460 863 460 863 443 880 c 0,4,5
 413 910 413 910 413 999 c 256,6,7
 413 1087 413 1087 436.5 1110.5 c 128,-1,8
 460 1134 460 1134 488.5 1140.5 c 128,-1,9
 517 1147 517 1147 561.5 1147 c 128,-1,10
 606 1147 606 1147 634.5 1140.5 c 128,-1,11
 663 1134 663 1134 680 1117 c 0,12,13
 710 1087 710 1087 710 999 c 256,14,15
 710 910 710 910 686.5 886.5 c 128,-1,0
 663 863 663 863 634.5 856.5 c 128,-1,1
60 733 m 1,16,-1
 1064 733 l 1,17,-1
 1064 539 l 1,18,-1
 60 539 l 1,19,-1
 60 733 l 1,16,-1
419.5 200 m 128,-1,21
 413 228 413 228 413 272.5 c 128,-1,22
 413 317 413 317 419.5 346 c 128,-1,23
 426 375 426 375 443 392 c 0,24,25
 473 422 473 422 539.5 422 c 128,-1,26
 606 422 606 422 634.5 415.5 c 128,-1,27
 663 409 663 409 680 392 c 0,28,29
 710 362 710 362 710 295 c 128,-1,30
 710 228 710 228 703.5 200 c 128,-1,31
 697 172 697 172 680 155 c 0,32,33
 650 125 650 125 583.5 125 c 128,-1,34
 517 125 517 125 488.5 131.5 c 128,-1,35
 460 138 460 138 443 155 c 128,-1,20
 426 172 426 172 419.5 200 c 128,-1,21
EndSplineSet
EndChar

StartChar: plusminus
Encoding: 177 177 103
Width: 1025
Flags: HW
LayerCount: 2
Fore
SplineSet
405 614 m 1,0,-1
 55 614 l 1,1,-1
 55 817 l 1,2,-1
 403 817 l 1,3,-1
 403 1194 l 1,4,-1
 624 1194 l 1,5,-1
 624 817 l 1,6,-1
 970 817 l 1,7,-1
 970 616 l 1,8,-1
 626 616 l 1,9,-1
 626 270 l 1,10,-1
 405 270 l 1,11,-1
 405 614 l 1,0,-1
55 193 m 1,12,-1
 970 193 l 1,13,-1
 970 0 l 1,14,-1
 55 0 l 1,15,-1
 55 193 l 1,12,-1
EndSplineSet
EndChar

StartChar: notequal
Encoding: 8800 8800 105
Width: 1062
Flags: HW
LayerCount: 2
Fore
SplineSet
299 307 m 1,0,-1
 70 307 l 1,1,-1
 70 506 l 1,2,-1
 383 506 l 1,3,-1
 480 737 l 1,4,-1
 70 737 l 1,5,-1
 70 934 l 1,6,-1
 562 934 l 1,7,-1
 691 1241 l 1,8,-1
 890 1241 l 1,9,-1
 761 934 l 1,10,-1
 992 934 l 1,11,-1
 992 737 l 1,12,-1
 678 737 l 1,13,-1
 581 506 l 1,14,-1
 992 506 l 1,15,-1
 992 307 l 1,16,-1
 498 307 l 1,17,-1
 369 0 l 1,18,-1
 171 0 l 1,19,-1
 299 307 l 1,0,-1
EndSplineSet
EndChar

StartChar: numbersign
Encoding: 35 35 106
Width: 1319
Flags: HW
LayerCount: 2
Fore
SplineSet
257 376 m 1,0,-1
 60 376 l 1,1,-1
 60 560 l 1,2,-1
 299 560 l 1,3,-1
 370 869 l 1,4,-1
 164 869 l 1,5,-1
 164 1053 l 1,6,-1
 413 1053 l 1,7,-1
 499 1428 l 1,8,-1
 709 1428 l 1,9,-1
 623 1053 l 1,10,-1
 897 1053 l 1,11,-1
 983 1428 l 1,12,-1
 1193 1428 l 1,13,-1
 1107 1053 l 1,14,-1
 1307 1053 l 1,15,-1
 1307 869 l 1,16,-1
 1064 869 l 1,17,-1
 993 560 l 1,18,-1
 1203 560 l 1,19,-1
 1203 376 l 1,20,-1
 951 376 l 1,21,-1
 865 0 l 1,22,-1
 655 0 l 1,23,-1
 741 376 l 1,24,-1
 467 376 l 1,25,-1
 381 0 l 1,26,-1
 171 0 l 1,27,-1
 257 376 l 1,0,-1
783 560 m 1,28,-1
 854 869 l 1,29,-1
 580 869 l 1,30,-1
 509 560 l 1,31,-1
 783 560 l 1,28,-1
EndSplineSet
EndChar

StartChar: Z
Encoding: 90 90 107
Width: 1276
Flags: HW
LayerCount: 2
Fore
SplineSet
90 156 m 1,0,-1
 834 1202 l 1,1,-1
 834 1204 l 1,2,-1
 131 1204 l 1,3,-1
 131 1427 l 1,4,-1
 1188 1427 l 1,5,-1
 1188 1268 l 1,6,-1
 446 225 l 1,7,-1
 446 223 l 1,8,-1
 1196 223 l 1,9,-1
 1196 0 l 1,10,-1
 90 0 l 1,11,-1
 90 156 l 1,0,-1
EndSplineSet
Substitution2: "'smcp' Lowercase to Small Capitals in Latin lookup 0 subtable" .notdef
EndChar

StartChar: V
Encoding: 86 86 108
Width: 1343
Flags: HW
LayerCount: 2
Fore
SplineSet
483 0 m 1,0,-1
 0 1427 l 1,1,-1
 274 1427 l 1,2,-1
 664 223 l 1,3,-1
 680 223 l 1,4,-1
 1069 1427 l 1,5,-1
 1343 1427 l 1,6,-1
 860 0 l 1,7,-1
 483 0 l 1,0,-1
EndSplineSet
Substitution2: "'smcp' Lowercase to Small Capitals in Latin lookup 0 subtable" .notdef
EndChar

StartChar: W
Encoding: 87 87 109
Width: 1942
Flags: HW
LayerCount: 2
Fore
SplineSet
35 1427 m 1,0,-1
 289 1427 l 1,1,-1
 537 223 l 1,2,-1
 541 223 l 1,3,-1
 777 1427 l 1,4,-1
 1176 1427 l 1,5,-1
 1426 223 l 1,6,-1
 1430 223 l 1,7,-1
 1664 1427 l 1,8,-1
 1907 1427 l 1,9,-1
 1604 0 l 1,10,-1
 1229 0 l 1,11,-1
 976 1225 l 1,12,-1
 973 1225 l 1,13,-1
 736 0 l 1,14,-1
 357 0 l 1,15,-1
 35 1427 l 1,0,-1
EndSplineSet
Substitution2: "'smcp' Lowercase to Small Capitals in Latin lookup 0 subtable" .notdef
EndChar

StartChar: ampersand
Encoding: 38 38 110
Width: 1263
Flags: HW
LayerCount: 2
Fore
SplineSet
955 111 m 1,0,1
 798.2 -29 798.2 -29 569 -29 c 0,2,3
 312.768 -29 312.768 -29 207.5 59.5 c 0,4,5
 98 151.558 98 151.558 98 371 c 0,6,7
 98 486.474 98 486.474 147.5 565.5 c 0,8,9
 203.054 654.191 203.054 654.191 353 758 c 1,10,11
 253.384 869.336 253.384 869.336 223.692 930.168 c 0,12,13
 178 1023.78 178 1023.78 178 1106.39 c 128,-1,14
 178 1189 178 1189 191 1248.5 c 128,-1,15
 204 1308 204 1308 244 1354 c 0,16,17
 332.696 1456 332.696 1456 557 1456 c 0,18,19
 879.136 1456 879.136 1456 935.5 1242.5 c 0,20,21
 952 1180 952 1180 952 1111 c 128,-1,22
 952 1042 952 1042 942.5 994.5 c 128,-1,23
 933 947 933 947 903.5 906.5 c 128,-1,24
 874 866 874 866 820.5 825 c 128,-1,25
 767 784 767 784 680 727 c 1,26,-1
 918 464 l 1,27,28
 937.964 536.728 937.964 536.728 950 629 c 1,29,-1
 1141 629 l 1,30,31
 1130.32 458.143 1130.32 458.143 1076 291 c 1,32,-1
 1343 0 l 1,33,-1
 1059 0 l 1,34,-1
 955 111 l 1,0,1
542 880 m 1,35,36
 663.159 959.448 663.159 959.448 690.579 993.724 c 128,-1,37
 718 1028 718 1028 724.5 1053 c 128,-1,38
 731 1078 731 1078 731 1116 c 128,-1,39
 731 1154 731 1154 723.5 1184 c 128,-1,40
 716 1214 716 1214 697 1233 c 0,41,42
 662 1268 662 1268 588 1268 c 128,-1,43
 514 1268 514 1268 482 1259 c 128,-1,44
 450 1250 450 1250 431.5 1230.5 c 0,45,46
 399 1196.24 399 1196.24 399 1110 c 0,47,48
 399 1037.3 399 1037.3 542 880 c 1,35,36
340.5 421 m 0,49,50
 336 395 336 395 336 356.5 c 128,-1,51
 336 318 336 318 346.5 283.5 c 128,-1,52
 357 249 357 249 384 226.5 c 0,53,54
 437.4 182 437.4 182 575 182 c 0,55,56
 722.875 182 722.875 182 814 263 c 1,57,-1
 497 604 l 1,58,59
 353.682 497.163 353.682 497.163 340.5 421 c 0,49,50
EndSplineSet
EndChar

StartChar: X
Encoding: 88 88 111
Width: 1265
Flags: HW
LayerCount: 2
Fore
SplineSet
486 734 m 1,0,-1
 38 1427 l 1,1,-1
 330 1427 l 1,2,-1
 636 951 l 1,3,-1
 930 1427 l 1,4,-1
 1211 1427 l 1,5,-1
 773 739 l 1,6,-1
 1250 0 l 1,7,-1
 961 0 l 1,8,-1
 625 518 l 1,9,-1
 296 0 l 1,10,-1
 15 0 l 1,11,-1
 486 734 l 1,0,-1
EndSplineSet
Substitution2: "'smcp' Lowercase to Small Capitals in Latin lookup 0 subtable" .notdef
EndChar

StartChar: ellipsis
Encoding: 8230 8230 114
Width: 1412
Flags: HW
LayerCount: 2
Fore
SplineSet
1042 119 m 256,0,1
 1042 198.387 1042 198.387 1063.5 219.194 c 0,2,3
 1097.4 252 1097.4 252 1156.2 252 c 128,-1,4
 1215 252 1215 252 1241 246 c 128,-1,5
 1267 240 1267 240 1282.5 225 c 0,6,7
 1310 198.387 1310 198.387 1310 119 c 256,8,9
 1310 39 1310 39 1288.5 17.5 c 0,10,11
 1255 -16 1255 -16 1195.5 -16 c 128,-1,12
 1136 -16 1136 -16 1110.5 -10 c 128,-1,13
 1085 -4 1085 -4 1069.5 11.5 c 0,14,15
 1042 39 1042 39 1042 119 c 256,0,1
575 119 m 256,16,17
 575 198.387 575 198.387 596.5 219.194 c 0,18,19
 630.4 252 630.4 252 689.2 252 c 128,-1,20
 748 252 748 252 774 246 c 128,-1,21
 800 240 800 240 815.5 225 c 0,22,23
 843 198.387 843 198.387 843 119 c 256,24,25
 843 39 843 39 821.5 17.5 c 0,26,27
 788 -16 788 -16 728.5 -16 c 128,-1,28
 669 -16 669 -16 643.5 -10 c 128,-1,29
 618 -4 618 -4 602.5 11.5 c 0,30,31
 575 39 575 39 575 119 c 256,16,17
102 119 m 256,32,33
 102 198.387 102 198.387 123.5 219.194 c 0,34,35
 157.4 252 157.4 252 216.2 252 c 128,-1,36
 275 252 275 252 301 246 c 128,-1,37
 327 240 327 240 342.5 225 c 0,38,39
 370 198.387 370 198.387 370 119 c 256,40,41
 370 39 370 39 348.5 17.5 c 0,42,43
 315 -16 315 -16 255.5 -16 c 128,-1,44
 196 -16 196 -16 170.5 -10 c 128,-1,45
 145 -4 145 -4 129.5 11.5 c 0,46,47
 102 39 102 39 102 119 c 256,32,33
EndSplineSet
EndChar

StartChar: Y
Encoding: 89 89 115
Width: 1221
Flags: HW
LayerCount: 2
Fore
SplineSet
492 551 m 1,0,-1
 0 1427 l 1,1,-1
 281 1427 l 1,2,-1
 608 805 l 1,3,-1
 612 805 l 1,4,-1
 940 1427 l 1,5,-1
 1221 1427 l 1,6,-1
 729 551 l 1,7,-1
 729 0 l 1,8,-1
 492 0 l 1,9,-1
 492 551 l 1,0,-1
EndSplineSet
Substitution2: "'smcp' Lowercase to Small Capitals in Latin lookup 0 subtable" .notdef
EndChar

StartChar: guilsinglleft
Encoding: 8249 8249 116
Width: 684
Flags: HW
LayerCount: 2
Fore
SplineSet
113 688 m 1,0,-1
 570 1004 l 1,1,-1
 570 731 l 1,2,-1
 297 557 l 1,3,-1
 297 532 l 1,4,-1
 570 358 l 1,5,-1
 570 86 l 1,6,-1
 113 401 l 1,7,-1
 113 688 l 1,0,-1
EndSplineSet
EndChar

StartChar: guilsinglright
Encoding: 8250 8250 117
Width: 684
Flags: HW
LayerCount: 2
Fore
SplineSet
113 86 m 1,0,-1
 113 358 l 1,1,-1
 386 532 l 1,2,-1
 386 557 l 1,3,-1
 113 731 l 1,4,-1
 113 1004 l 1,5,-1
 570 688 l 1,6,-1
 570 401 l 1,7,-1
 113 86 l 1,0,-1
EndSplineSet
EndChar

StartChar: bar
Encoding: 124 124 118
Width: 684
Flags: HW
LayerCount: 2
Fore
SplineSet
227 1589 m 1,0,-1
 456 1589 l 1,1,-1
 456 -487 l 1,2,-1
 227 -487 l 1,3,-1
 227 1589 l 1,0,-1
EndSplineSet
EndChar

StartChar: quotedbl
Encoding: 34 34 119
Width: 860
Flags: HW
LayerCount: 2
Fore
SplineSet
507 1630 m 1,0,-1
 745 1630 l 1,1,-1
 722 1147 l 1,2,-1
 530 1147 l 1,3,-1
 507 1630 l 1,0,-1
114 1630 m 1,4,-1
 352 1630 l 1,5,-1
 329 1147 l 1,6,-1
 137 1147 l 1,7,-1
 114 1630 l 1,4,-1
EndSplineSet
EndChar

StartChar: asciicircum
Encoding: 94 94 120
Width: 970
Flags: HW
LayerCount: 2
Fore
SplineSet
315 1427 m 1,0,-1
 655 1427 l 1,1,-1
 950 647 l 1,2,-1
 690 647 l 1,3,-1
 489 1237 l 1,4,-1
 477 1237 l 1,5,-1
 281 647 l 1,6,-1
 20 647 l 1,7,-1
 315 1427 l 1,0,-1
EndSplineSet
EndChar

StartChar: underscore
Encoding: 95 95 121
Width: 975
Flags: HW
LayerCount: 2
Fore
SplineSet
985 -78 m 1,0,-1
 985 -248 l 1,1,-1
 -10 -248 l 1,2,-1
 -10 -78 l 1,3,-1
 985 -78 l 1,0,-1
EndSplineSet
EndChar

StartChar: asterisk
Encoding: 42 42 122
Width: 866
Flags: HW
LayerCount: 2
Fore
SplineSet
102 862 m 1,0,-1
 283 1094 l 1,1,-1
 6 1174 l 1,2,-1
 68 1366 l 1,3,-1
 342 1268 l 1,4,-1
 334 1554 l 1,5,-1
 537 1554 l 1,6,-1
 526 1260 l 1,7,-1
 797 1362 l 1,8,-1
 860 1165 l 1,9,-1
 577 1085 l 1,10,-1
 758 860 l 1,11,-1
 592 739 l 1,12,-1
 428 979 l 1,13,-1
 268 741 l 1,14,-1
 102 862 l 1,0,-1
EndSplineSet
EndChar

StartChar: quotesingle
Encoding: 39 39 123
Width: 513
Flags: HW
LayerCount: 2
Fore
SplineSet
137 1630 m 1,0,-1
 375 1630 l 1,1,-1
 352 1147 l 1,2,-1
 160 1147 l 1,3,-1
 137 1630 l 1,0,-1
EndSplineSet
EndChar

StartChar: bullet
Encoding: 8226 8226 125
Width: 689
Flags: HW
LayerCount: 2
Fore
SplineSet
327 344 m 0,0,1
 261 344 261 344 217.5 354 c 128,-1,2
 174 364 174 364 148.5 389.5 c 0,3,4
 102 436 102 436 102 569 c 0,5,6
 102 703 102 703 148.5 749.5 c 0,7,8
 194 795 194 795 326 795 c 0,9,10
 460.608 795 460.608 795 507 749.5 c 0,11,12
 553 704.385 553 704.385 553 569 c 0,13,14
 553 434.615 553 434.615 507 389.5 c 0,15,16
 460.608 344 460.608 344 327 344 c 0,0,1
EndSplineSet
EndChar

StartChar: degree
Encoding: 176 176 126
Width: 1026
Flags: HW
LayerCount: 2
Fore
SplineSet
518 852 m 0,0,1
 212 852 212 852 212 1185 c 0,2,3
 212 1461.32 212 1461.32 394.5 1513 c 0,4,5
 451 1529 451 1529 517.5 1529 c 128,-1,6
 584 1529 584 1529 638 1513 c 128,-1,7
 692 1497 692 1497 731 1457.5 c 0,8,9
 813 1374.45 813 1374.45 813 1185 c 0,10,11
 813 924.093 813 924.093 638 869 c 0,12,13
 584 852 584 852 518 852 c 0,0,1
464.5 1027 m 128,-1,15
 489 1020 489 1020 517 1020 c 128,-1,16
 545 1020 545 1020 567.5 1027 c 128,-1,17
 590 1034 590 1034 605.5 1053 c 0,18,19
 639 1094.06 639 1094.06 639 1165.53 c 128,-1,20
 639 1237 639 1237 630 1271.5 c 128,-1,21
 621 1306 621 1306 605.5 1326.5 c 0,22,23
 577.902 1363 577.902 1363 533.451 1363 c 128,-1,24
 489 1363 489 1363 464.5 1355 c 128,-1,25
 440 1347 440 1347 423 1326.5 c 0,26,27
 387 1283.09 387 1283.09 387 1209.04 c 128,-1,28
 387 1135 387 1135 396.5 1103.5 c 128,-1,29
 406 1072 406 1072 423 1053 c 128,-1,14
 440 1034 440 1034 464.5 1027 c 128,-1,15
EndSplineSet
EndChar

StartChar: caron
Encoding: 711 711 127
Width: 868
Flags: HW
LayerCount: 2
Fore
SplineSet
434 1174 m 256,0,1
 344.516 1174 344.516 1174 307.758 1195.5 c 0,2,3
 248.296 1230.28 248.296 1230.28 205 1309 c 2,4,-1
 51 1585 l 1,5,-1
 164 1659 l 1,6,-1
 434 1331 l 1,7,-1
 704 1659 l 1,8,-1
 817 1585 l 1,9,-1
 664 1309 l 2,10,11
 602.167 1196.58 602.167 1196.58 511 1180 c 0,12,13
 478 1174 478 1174 434 1174 c 256,0,1
EndSplineSet
EndChar

StartChar: circumflex
Encoding: 710 710 128
Width: 868
Flags: HW
LayerCount: 2
Fore
SplineSet
51 1184 m 1,0,-1
 205 1460 l 2,1,2
 266.944 1572.63 266.944 1572.63 357 1589 c 0,3,4
 390 1595 390 1595 434 1595 c 256,5,6
 523.484 1595 523.484 1595 560.242 1573.5 c 0,7,8
 621.178 1537.86 621.178 1537.86 664 1460 c 2,9,-1
 817 1184 l 1,10,-1
 704 1110 l 1,11,-1
 434 1437 l 1,12,-1
 164 1110 l 1,13,-1
 51 1184 l 1,0,-1
EndSplineSet
EndChar

StartChar: cedilla
Encoding: 184 184 129
Width: 612
Flags: HW
LayerCount: 2
Fore
SplineSet
96 -313 m 1,0,1
 156 -328 156 -328 225.5 -328 c 128,-1,2
 295 -328 295 -328 321.5 -316 c 128,-1,3
 348 -304 348 -304 356 -266 c 1,4,5
 365 -195 365 -195 256 -195 c 0,6,7
 227.5 -195 227.5 -195 196.75 -199 c 128,-1,8
 166 -203 166 -203 147 -205 c 1,9,-1
 201 0 l 1,10,-1
 406 0 l 1,11,-1
 379 -92 l 1,12,13
 495.241 -82.3132 495.241 -82.3132 536.5 -174 c 0,14,15
 550 -204 550 -204 550 -229.5 c 0,16,17
 550 -258 550 -258 542 -302 c 128,-1,18
 534 -346 534 -346 513.5 -382.5 c 128,-1,19
 493 -419 493 -419 459 -442 c 0,20,21
 395.435 -485 395.435 -485 260 -485 c 0,22,23
 167.364 -485 167.364 -485 61 -446 c 1,24,-1
 96 -313 l 1,0,1
EndSplineSet
EndChar

StartChar: breve
Encoding: 728 728 130
Width: 811
Flags: HW
LayerCount: 2
Fore
SplineSet
82 1358.5 m 0,0,1
 61 1416 61 1416 61 1462 c 128,-1,2
 61 1508 61 1508 63 1530 c 1,3,-1
 184 1530 l 1,4,5
 210.979 1425.94 210.979 1425.94 262.5 1389 c 0,6,7
 308.526 1356 308.526 1356 406 1356 c 256,8,9
 502.868 1356 502.868 1356 538.434 1381.5 c 128,-1,10
 574 1407 574 1407 593 1441 c 128,-1,11
 612 1475 612 1475 627 1530 c 1,12,-1
 745 1530 l 1,13,14
 748 1504 748 1504 748 1457.5 c 128,-1,15
 748 1411 748 1411 727 1355 c 128,-1,16
 706 1299 706 1299 663.5 1259 c 0,17,18
 575.312 1176 575.312 1176 406 1176 c 0,19,20
 148.652 1176 148.652 1176 82 1358.5 c 0,0,1
EndSplineSet
EndChar

StartChar: hungarumlaut
Encoding: 733 733 131
Width: 1040
Flags: HW
LayerCount: 2
Fore
SplineSet
61 1237 m 1,0,-1
 326 1708 l 1,1,2
 380.726 1698.34 380.726 1698.34 434.863 1664.67 c 128,-1,3
 489 1631 489 1631 505.5 1611.5 c 128,-1,4
 522 1592 522 1592 522 1569.5 c 0,5,6
 522 1528.81 522 1528.81 459 1454 c 1,7,-1
 207 1145 l 1,8,-1
 61 1237 l 1,0,-1
543 1239 m 1,9,-1
 782 1663 l 1,10,11
 836.726 1653.34 836.726 1653.34 890.863 1619.67 c 128,-1,12
 945 1586 945 1586 961.5 1567 c 128,-1,13
 978 1548 978 1548 978 1526 c 0,14,15
 978 1483.45 978 1483.45 915 1409 c 0,16,17
 810.61 1283.62 810.61 1283.62 774.305 1242.81 c 2,18,-1
 688 1147 l 1,19,-1
 543 1239 l 1,9,-1
EndSplineSet
EndChar

StartChar: grave
Encoding: 96 96 132
Width: 653
Flags: HW
LayerCount: 2
Fore
SplineSet
492 1151 m 1,0,-1
 237.5 1308.5 l 2,1,2
 128.101 1376.62 128.101 1376.62 95.0506 1414.81 c 128,-1,3
 62 1453 62 1453 62 1474 c 0,4,5
 62 1537.5 62 1537.5 167 1620 c 0,6,7
 184 1633 184 1633 199 1642 c 1,8,-1
 592 1274 l 1,9,-1
 492 1151 l 1,0,-1
EndSplineSet
EndChar

StartChar: tilde
Encoding: 732 732 133
Width: 938
Flags: HW
LayerCount: 2
Fore
SplineSet
61 1264 m 1,0,1
 70.3133 1340.83 70.3133 1340.83 131 1402.5 c 0,2,3
 202.696 1475.35 202.696 1475.35 303 1479 c 0,4,5
 387.977 1481.3 387.977 1481.3 488.5 1422.5 c 0,6,7
 588.546 1363.98 588.546 1363.98 630.773 1365.99 c 0,8,9
 720.762 1370.27 720.762 1370.27 768 1458 c 1,10,-1
 877 1389 l 1,11,12
 868.041 1315.09 868.041 1315.09 805.5 1250.5 c 0,13,14
 735.015 1177.7 735.015 1177.7 635 1174 c 256,15,16
 554.85 1171.03 554.85 1171.03 445.5 1229 c 1,17,-1
 367 1269 l 1,18,19
 272.462 1314.99 272.462 1314.99 200 1238 c 0,20,21
 182 1218 182 1218 170 1194 c 1,22,-1
 61 1264 l 1,0,1
EndSplineSet
EndChar

StartChar: ring
Encoding: 730 730 134
Width: 627
Flags: HW
LayerCount: 2
Fore
SplineSet
414.5 1175 m 0,0,1
 368 1165 368 1165 313.5 1165 c 128,-1,2
 259 1165 259 1165 212.5 1175 c 128,-1,3
 166 1185 166 1185 132.5 1212 c 0,4,5
 61 1269.63 61 1269.63 61 1407 c 0,6,7
 61 1607.74 61 1607.74 214 1641 c 0,8,9
 260 1651 260 1651 313 1651 c 256,10,11
 432.815 1651 432.815 1651 492 1604 c 0,12,13
 565 1546.03 565 1546.03 565 1407 c 0,14,15
 565 1207.37 565 1207.37 414.5 1175 c 0,0,1
270.5 1301 m 128,-1,17
 288 1296 288 1296 313.5 1296 c 128,-1,18
 339 1296 339 1296 357 1301 c 128,-1,19
 375 1306 375 1306 386 1319 c 0,20,21
 406 1342.64 406 1342.64 406 1391.32 c 128,-1,22
 406 1440 406 1440 401.5 1461.5 c 128,-1,23
 397 1483 397 1483 386 1495.5 c 0,24,25
 366.2 1518 366.2 1518 327.1 1518 c 128,-1,26
 288 1518 288 1518 270.5 1513 c 128,-1,27
 253 1508 253 1508 242.5 1495.5 c 0,28,29
 223 1472.29 223 1472.29 223 1423.64 c 128,-1,30
 223 1375 223 1375 227.5 1353.5 c 128,-1,31
 232 1332 232 1332 242.5 1319 c 128,-1,16
 253 1306 253 1306 270.5 1301 c 128,-1,17
EndSplineSet
EndChar

StartChar: acute
Encoding: 180 180 135
Width: 672
Flags: HW
LayerCount: 2
Fore
SplineSet
61 1278 m 1,0,-1
 469 1661 l 1,1,2
 512.805 1637.41 512.805 1637.41 550.402 1592.71 c 0,3,4
 608 1524.22 608 1524.22 608 1496.11 c 128,-1,5
 608 1468 608 1468 585.5 1442.5 c 128,-1,6
 563 1417 563 1417 530.5 1393.5 c 1,7,-1
 311 1246 l 1,8,-1
 164 1151 l 1,9,-1
 61 1278 l 1,0,-1
EndSplineSet
EndChar

StartChar: macron
Encoding: 175 175 136
Width: 827
Flags: HW
LayerCount: 2
Fore
SplineSet
61 1415 m 1,0,-1
 766 1415 l 1,1,-1
 766 1219 l 1,2,-1
 61 1219 l 1,3,-1
 61 1415 l 1,0,-1
EndSplineSet
EndChar

StartChar: Euro
Encoding: 8364 8364 137
Width: 1237
Flags: HW
LayerCount: 2
Fore
SplineSet
774 -31 m 0,0,1
 319.725 -31 319.725 -31 233 466 c 1,2,-1
 72 466 l 1,3,-1
 72 641 l 1,4,-1
 215 641 l 1,5,6
 213 681 213 681 213 729 c 128,-1,7
 213 777 213 777 216 825 c 1,8,-1
 72 825 l 1,9,-1
 72 999 l 1,10,-1
 240 999 l 1,11,12
 310.89 1321.55 310.89 1321.55 571 1418.5 c 0,13,14
 671.61 1456 671.61 1456 795 1456 c 0,15,16
 1043.05 1456 1043.05 1456 1172 1386 c 1,17,-1
 1172 1206 l 1,18,19
 1013.86 1233 1013.86 1233 914.429 1233 c 128,-1,20
 815 1233 815 1233 753.5 1226.5 c 128,-1,21
 692 1220 692 1220 642.5 1196.5 c 0,22,23
 535.896 1145.89 535.896 1145.89 496 999 c 1,24,-1
 1032 999 l 1,25,-1
 1032 825 l 1,26,-1
 470 825 l 1,27,28
 467 778 467 778 467 741 c 2,29,-1
 467 682.5 l 2,30,31
 467 661 467 661 469 641 c 1,32,-1
 1032 641 l 1,33,-1
 1032 466 l 1,34,-1
 490 466 l 1,35,36
 528.355 294.315 528.355 294.315 638.5 235.5 c 0,37,38
 718.091 193 718.091 193 891.545 193 c 128,-1,39
 1065 193 1065 193 1182 219 c 1,40,-1
 1182 37 l 1,41,42
 1028.11 -31 1028.11 -31 774 -31 c 0,0,1
EndSplineSet
EndChar

StartChar: sterling
Encoding: 163 163 138
Width: 1189
Flags: HW
LayerCount: 2
Fore
SplineSet
1116 1210 m 1,0,1
 960.2 1229 960.2 1229 821.6 1229 c 128,-1,2
 683 1229 683 1229 631 1222.5 c 128,-1,3
 579 1216 579 1216 551.5 1194 c 128,-1,4
 524 1172 524 1172 516 1131.5 c 128,-1,5
 508 1091 508 1091 508 1024 c 2,6,-1
 508 823 l 1,7,-1
 946 823 l 1,8,-1
 946 623 l 1,9,-1
 508 623 l 1,10,-1
 508 547 l 2,11,12
 508 284.812 508 284.812 414 229 c 1,13,-1
 414 219 l 1,14,-1
 1116 219 l 1,15,-1
 1116 0 l 1,16,-1
 129 0 l 1,17,-1
 129 193 l 1,18,19
 237.324 245.698 237.324 245.698 261.5 368 c 0,20,21
 270 411 270 411 270 467 c 2,22,-1
 270 623 l 1,23,-1
 100 623 l 1,24,-1
 100 823 l 1,25,-1
 270 823 l 1,26,-1
 270 1018 l 2,27,28
 270 1166.33 270 1166.33 294 1229.67 c 128,-1,29
 318 1293 318 1293 350 1330 c 128,-1,30
 382 1367 382 1367 434.5 1392.5 c 0,31,32
 540.529 1444 540.529 1444 744.89 1444 c 128,-1,33
 949.25 1444 949.25 1444 1116 1386 c 1,34,-1
 1116 1210 l 1,0,1
EndSplineSet
EndChar

StartChar: yen
Encoding: 165 165 139
Width: 1194
Flags: HW
LayerCount: 2
Fore
SplineSet
174 350 m 1,0,-1
 481 350 l 1,1,-1
 481 489 l 1,2,-1
 174 489 l 1,3,-1
 174 657 l 1,4,-1
 446 657 l 1,5,-1
 10 1427 l 1,6,-1
 276 1427 l 1,7,-1
 596 829 l 1,8,-1
 600 829 l 1,9,-1
 918 1427 l 1,10,-1
 1184 1427 l 1,11,-1
 754 657 l 1,12,-1
 1020 657 l 1,13,-1
 1020 489 l 1,14,-1
 721 489 l 1,15,-1
 721 350 l 1,16,-1
 1020 350 l 1,17,-1
 1020 182 l 1,18,-1
 721 182 l 1,19,-1
 721 0 l 1,20,-1
 481 0 l 1,21,-1
 481 182 l 1,22,-1
 174 182 l 1,23,-1
 174 350 l 1,0,-1
EndSplineSet
EndChar

StartChar: cent
Encoding: 162 162 140
Width: 965
Flags: HW
LayerCount: 2
Fore
SplineSet
450 -18 m 1,0,1
 94 42.1039 94 42.1039 94 528 c 0,2,3
 94 771.968 94 771.968 195.5 913 c 0,4,5
 286.36 1039.25 286.36 1039.25 450 1069 c 1,6,-1
 450 1270 l 1,7,-1
 686 1270 l 1,8,-1
 686 1070 l 1,9,10
 802.996 1050.95 802.996 1050.95 868 1020 c 1,11,-1
 868 856 l 1,12,13
 834 859 834 859 797 862 c 0,14,15
 698.333 870 698.333 870 625.167 870 c 128,-1,16
 552 870 552 870 498 857 c 128,-1,17
 444 844 444 844 410 807.5 c 0,18,19
 344 736.647 344 736.647 344 530 c 0,20,21
 344 320.513 344 320.513 419 246.5 c 0,22,23
 482.333 184 482.333 184 633.75 184 c 128,-1,24
 785.167 184 785.167 184 877 203 c 1,25,-1
 877 37 l 1,26,27
 797.529 -2.73529 797.529 -2.73529 686 -19 c 1,28,-1
 686 -205 l 1,29,-1
 450 -205 l 1,30,-1
 450 -18 l 1,0,1
EndSplineSet
EndChar

StartChar: section
Encoding: 167 167 141
Width: 1055
Flags: HW
LayerCount: 2
Fore
SplineSet
709.5 -363 m 128,-1,1
 616 -387 616 -387 445 -387 c 128,-1,2
 274 -387 274 -387 127 -317 c 1,3,-1
 127 -147 l 1,4,5
 244.727 -184 244.727 -184 382.364 -184 c 128,-1,6
 520 -184 520 -184 575.5 -175.5 c 128,-1,7
 631 -167 631 -167 664.5 -151 c 0,8,9
 727 -121.149 727 -121.149 727 -59 c 0,10,11
 727 -12.2222 727 -12.2222 715.5 4.38889 c 0,12,13
 693.718 35.8519 693.718 35.8519 637 45 c 2,14,-1
 332 98 l 2,15,16
 96 139.647 96 139.647 96 371 c 0,17,18
 96 501.125 96 501.125 159 635 c 0,19,20
 187 694 187 694 223 743 c 1,21,22
 167 782 167 782 144 844.5 c 128,-1,23
 121 907 121 907 121 999 c 128,-1,24
 121 1091 121 1091 148.5 1152.5 c 128,-1,25
 176 1214 176 1214 227.5 1254.5 c 0,26,27
 329.864 1335 329.864 1335 518.865 1335 c 128,-1,28
 707.867 1335 707.867 1335 881 1282 c 1,29,-1
 881 1110 l 1,30,31
 684.571 1135 684.571 1135 585.286 1135 c 128,-1,32
 486 1135 486 1135 448 1128.5 c 128,-1,33
 410 1122 410 1122 387 1107.5 c 0,34,35
 346 1081.65 346 1081.65 346 1016 c 0,36,37
 346 975 346 975 363 958 c 0,38,39
 395.531 925.469 395.531 925.469 465 913 c 2,40,-1
 756 860 l 2,41,42
 938.942 826.226 938.942 826.226 973.5 692.5 c 0,43,44
 985 648 985 648 985 579.5 c 0,45,46
 985 457.68 985 457.68 918 321 c 0,47,48
 889 261 889 261 852 211 c 1,49,50
 912 176 912 176 936 111.5 c 128,-1,51
 960 47 960 47 960 -42 c 128,-1,52
 960 -131 960 -131 937 -191.5 c 128,-1,53
 914 -252 914 -252 858.5 -295.5 c 128,-1,0
 803 -339 803 -339 709.5 -363 c 128,-1,1
395 690 m 1,54,55
 324 537.35 324 537.35 324 440 c 0,56,57
 324 323.316 324 323.316 440 305 c 2,58,-1
 672 268 l 1,59,60
 752 417.091 752 417.091 752 528 c 0,61,62
 752 584.182 752 584.182 739 603.091 c 0,63,64
 713.512 640.165 713.512 640.165 631 653 c 2,65,-1
 395 690 l 1,54,55
EndSplineSet
EndChar

StartChar: onesuperior
Encoding: 185 185 142
Width: 574
Flags: HW
LayerCount: 2
Fore
SplineSet
259 1386 m 1,0,-1
 65 1386 l 1,1,-1
 106 1554 l 1,2,-1
 446 1554 l 1,3,-1
 446 672 l 1,4,-1
 259 672 l 1,5,-1
 259 1386 l 1,0,-1
EndSplineSet
EndChar

StartChar: twosuperior
Encoding: 178 178 143
Width: 711
Flags: HW
LayerCount: 2
Fore
SplineSet
647 1309 m 0,0,1
 647 1084.87 647 1084.87 342 842 c 1,2,-1
 342 840 l 1,3,-1
 651 840 l 1,4,-1
 651 672 l 1,5,-1
 65 672 l 1,6,-1
 65 791 l 1,7,-1
 236.5 948.5 l 1,8,9
 456 1159.04 456 1159.04 456 1274 c 0,10,11
 456 1407 456 1407 286 1407 c 0,12,13
 251 1407 251 1407 216.5 1404.5 c 2,14,-1
 154 1400 l 1,15,16
 121 1396 121 1396 92 1393 c 1,17,-1
 92 1524 l 1,18,19
 209.273 1567 209.273 1567 362 1567 c 0,20,21
 564.146 1567 564.146 1567 626.5 1421 c 0,22,23
 647 1373 647 1373 647 1309 c 0,0,1
EndSplineSet
EndChar

StartChar: threesuperior
Encoding: 179 179 144
Width: 676
Flags: HW
LayerCount: 2
Fore
SplineSet
448.5 672 m 128,-1,1
 391 659 391 659 284 659 c 128,-1,2
 177 659 177 659 66 696 c 1,3,-1
 66 829 l 1,4,5
 169.333 819 169.333 819 241.167 819 c 128,-1,6
 313 819 313 819 349.5 826 c 128,-1,7
 386 833 386 833 407 847 c 0,8,9
 443 871 443 871 443 918.5 c 128,-1,10
 443 966 443 966 432.5 987 c 128,-1,11
 422 1008 422 1008 395.5 1021 c 0,12,13
 350.916 1042.87 350.916 1042.87 212 1049 c 1,14,-1
 212 1190 l 1,15,16
 336.53 1191.98 336.53 1191.98 372.265 1211.99 c 128,-1,17
 408 1232 408 1232 418.5 1253 c 128,-1,18
 429 1274 429 1274 429 1303 c 0,19,20
 429 1363 429 1363 390 1388 c 128,-1,21
 351 1413 351 1413 293 1413 c 128,-1,22
 235 1413 235 1413 198.5 1410.5 c 2,23,-1
 133 1406 l 1,24,25
 99 1402 99 1402 68 1399 c 1,26,-1
 68 1524 l 1,27,28
 197 1567 197 1567 286.5 1567 c 128,-1,29
 376 1567 376 1567 430.5 1555 c 128,-1,30
 485 1543 485 1543 524.5 1514 c 0,31,32
 607 1453.43 607 1453.43 607 1317 c 0,33,34
 607 1197.89 607 1197.89 537 1150 c 0,35,36
 518 1137 518 1137 500 1133 c 1,37,-1
 500 1128 l 1,38,39
 558.621 1105.67 558.621 1105.67 582.31 1078.33 c 0,40,41
 631 1022.15 631 1022.15 631 935.077 c 128,-1,42
 631 848 631 848 609 797 c 128,-1,43
 587 746 587 746 546.5 715.5 c 128,-1,0
 506 685 506 685 448.5 672 c 128,-1,1
EndSplineSet
EndChar

StartChar: aogonek
Encoding: 261 261 145
Width: 1180
Flags: HW
LayerCount: 2
Fore
SplineSet
628 -289 m 0,0,1
 628 -123.839 628 -123.839 818 11 c 1,2,-1
 803 78 l 1,3,4
 648.29 -31 648.29 -31 463 -31 c 0,5,6
 282.385 -31 282.385 -31 204.5 44 c 0,7,8
 127 118.63 127 118.63 127 299 c 256,9,10
 127 468.736 127 468.736 225.5 551 c 0,11,12
 311.711 623 311.711 623 475.998 623 c 128,-1,13
 640.286 623 640.286 623 786 572 c 1,14,-1
 786 670 l 2,15,16
 786 774.952 786 774.952 758.5 809 c 0,17,18
 722.888 853.091 722.888 853.091 655.944 865.046 c 128,-1,19
 589 877 589 877 478.833 877 c 128,-1,20
 368.667 877 368.667 877 200 854 c 1,21,-1
 200 1020 l 1,22,23
 347.5 1079 347.5 1079 602 1079 c 0,24,25
 743.308 1079 743.308 1079 801.654 1060.5 c 0,26,27
 968.725 1007.53 968.725 1007.53 1006 846 c 0,28,29
 1022 776.667 1022 776.667 1022 639 c 2,30,-1
 1022 0 l 1,31,32
 850 -109.787 850 -109.787 850 -225 c 0,33,34
 850 -267 850 -267 874.5 -292 c 128,-1,35
 899 -317 899 -317 944.5 -317 c 128,-1,36
 990 -317 990 -317 1020 -311 c 1,37,-1
 1020 -479 l 1,38,39
 963 -500 963 -500 886.5 -500 c 128,-1,40
 810 -500 810 -500 767.5 -486.5 c 128,-1,41
 725 -473 725 -473 694 -446 c 0,42,43
 628 -388.516 628 -388.516 628 -289 c 0,0,1
786 411 m 1,44,45
 663.333 434 663.333 434 586.167 434 c 128,-1,46
 509 434 509 434 473.5 429.5 c 128,-1,47
 438 425 438 425 415 410.5 c 0,48,49
 370 382.13 370 382.13 370 299 c 256,50,51
 370 217.143 370 217.143 413 189.5 c 0,52,53
 446.444 168 446.444 168 554.458 168 c 128,-1,54
 662.471 168 662.471 168 786 228 c 1,55,-1
 786 411 l 1,44,45
EndSplineSet
Substitution2: "'smcp' Lowercase to Small Capitals in Latin lookup 0 subtable" .notdef
EndChar

StartChar: ae
Encoding: 230 230 146
Width: 1781
Flags: HW
LayerCount: 2
Fore
SplineSet
877 125 m 1,0,1
 738.829 -31 738.829 -31 510 -31 c 0,2,3
 206.089 -31 206.089 -31 146 163.5 c 0,4,5
 127 225 127 225 127 301 c 0,6,7
 127 635 127 635 524 635 c 2,8,-1
 796 635 l 1,9,-1
 796 670 l 2,10,11
 796 774.952 796 774.952 768.5 809 c 0,12,13
 732.589 853.461 732.589 853.461 660.795 865.23 c 128,-1,14
 589 877 589 877 474.75 877 c 128,-1,15
 360.5 877 360.5 877 211 854 c 1,16,-1
 211 1020 l 1,17,18
 402.389 1085 402.389 1085 579 1085 c 0,19,20
 845.25 1085 845.25 1085 931 938 c 1,21,22
 1024.74 1085 1024.74 1085 1296 1085 c 0,23,24
 1628.06 1085 1628.06 1085 1689 822 c 0,25,26
 1708 740 1708 740 1708 648.5 c 128,-1,27
 1708 557 1708 557 1695 440 c 1,28,-1
 1034 444 l 1,29,30
 1038.21 298.79 1038.21 298.79 1093 244 c 0,31,32
 1155 182 1155 182 1337.69 182 c 128,-1,33
 1520.38 182 1520.38 182 1661 207 c 1,34,-1
 1661 37 l 1,35,36
 1478.47 -31 1478.47 -31 1286 -31 c 0,37,38
 1133.4 -31 1133.4 -31 1066.2 -6.5 c 128,-1,39
 999 18 999 18 958 48 c 128,-1,40
 917 78 917 78 877 125 c 1,0,1
1489 635 m 1,41,-1
 1489 667 l 2,42,43
 1489 785.065 1489 785.065 1458.5 821.533 c 128,-1,44
 1428 858 1428 858 1385.5 871.5 c 128,-1,45
 1343 885 1343 885 1268.5 885 c 128,-1,46
 1194 885 1194 885 1147 866 c 128,-1,47
 1100 847 1100 847 1075 813.5 c 0,48,49
 1034 758.56 1034 758.56 1034 635 c 1,50,-1
 1489 635 l 1,41,-1
371 370.5 m 0,51,52
 360 345 360 345 360 304.5 c 128,-1,53
 360 264 360 264 370 236 c 128,-1,54
 380 208 380 208 400.5 193 c 0,55,56
 434.667 168 434.667 168 527.333 168 c 0,57,58
 697.5 168 697.5 168 813 267 c 1,59,60
 800.16 320.193 800.16 320.193 796 393 c 1,61,-1
 794 444 l 1,62,-1
 567 444 l 2,63,64
 402.706 444 402.706 444 371 370.5 c 0,51,52
EndSplineSet
EndChar

StartChar: multiply
Encoding: 215 215 147
Width: 1004
Flags: HW
LayerCount: 2
Fore
SplineSet
47 334 m 1,0,-1
 361 659 l 1,1,-1
 45 987 l 1,2,-1
 191 1130 l 1,3,-1
 504 807 l 1,4,-1
 815 1128 l 1,5,-1
 953 989 l 1,6,-1
 639 666 l 1,7,-1
 959 336 l 1,8,-1
 813 193 l 1,9,-1
 496 518 l 1,10,-1
 185 197 l 1,11,-1
 47 334 l 1,0,-1
EndSplineSet
EndChar

StartChar: onequarter
Encoding: 188 188 148
Width: 1499
Flags: HW
LayerCount: 2
Fore
SplineSet
946 1554 m 1,0,-1
 1132 1554 l 1,1,-1
 428 0 l 1,2,-1
 241 0 l 1,3,-1
 946 1554 l 1,0,-1
787 279 m 1,4,-1
 1082 883 l 1,5,-1
 1375 883 l 1,6,-1
 1375 312 l 1,7,-1
 1489 312 l 1,8,-1
 1489 156 l 1,9,-1
 1375 156 l 1,10,-1
 1375 0 l 1,11,-1
 1188 0 l 1,12,-1
 1188 156 l 1,13,-1
 787 156 l 1,14,-1
 787 279 l 1,4,-1
1188 312 m 1,15,-1
 1188 741 l 1,16,-1
 1182 741 l 1,17,-1
 988 312 l 1,18,-1
 1188 312 l 1,15,-1
194 1386 m 1,19,-1
 0 1386 l 1,20,-1
 41 1554 l 1,21,-1
 381 1554 l 1,22,-1
 381 672 l 1,23,-1
 194 672 l 1,24,-1
 194 1386 l 1,19,-1
EndSplineSet
EndChar

StartChar: threequarters
Encoding: 190 190 149
Width: 1632
Flags: HW
LayerCount: 2
Fore
SplineSet
1102 1554 m 1,0,-1
 1289 1554 l 1,1,-1
 584 0 l 1,2,-1
 398 0 l 1,3,-1
 1102 1554 l 1,0,-1
920 279 m 1,4,-1
 1215 883 l 1,5,-1
 1508 883 l 1,6,-1
 1508 312 l 1,7,-1
 1622 312 l 1,8,-1
 1622 156 l 1,9,-1
 1508 156 l 1,10,-1
 1508 0 l 1,11,-1
 1321 0 l 1,12,-1
 1321 156 l 1,13,-1
 920 156 l 1,14,-1
 920 279 l 1,4,-1
1321 312 m 1,15,-1
 1321 741 l 1,16,-1
 1315 741 l 1,17,-1
 1121 312 l 1,18,-1
 1321 312 l 1,15,-1
422.5 672 m 128,-1,20
 365 659 365 659 258 659 c 128,-1,21
 151 659 151 659 40 696 c 1,22,-1
 40 829 l 1,23,24
 143.333 819 143.333 819 215.167 819 c 128,-1,25
 287 819 287 819 323.5 826 c 128,-1,26
 360 833 360 833 381 847 c 0,27,28
 417 871 417 871 417 918.5 c 128,-1,29
 417 966 417 966 406.5 987 c 128,-1,30
 396 1008 396 1008 369.5 1021 c 0,31,32
 324.916 1042.87 324.916 1042.87 186 1049 c 1,33,-1
 186 1190 l 1,34,35
 310.53 1191.98 310.53 1191.98 346.265 1211.99 c 128,-1,36
 382 1232 382 1232 392.5 1253 c 128,-1,37
 403 1274 403 1274 403 1303 c 0,38,39
 403 1363 403 1363 364 1388 c 128,-1,40
 325 1413 325 1413 267 1413 c 128,-1,41
 209 1413 209 1413 172.5 1410.5 c 2,42,-1
 107 1406 l 1,43,44
 73 1402 73 1402 42 1399 c 1,45,-1
 42 1524 l 1,46,47
 171 1567 171 1567 260.5 1567 c 128,-1,48
 350 1567 350 1567 404.5 1555 c 128,-1,49
 459 1543 459 1543 498.5 1514 c 0,50,51
 581 1453.43 581 1453.43 581 1317 c 0,52,53
 581 1197.89 581 1197.89 511 1150 c 0,54,55
 492 1137 492 1137 474 1133 c 1,56,-1
 474 1128 l 1,57,58
 532.621 1105.67 532.621 1105.67 556.31 1078.33 c 0,59,60
 605 1022.15 605 1022.15 605 935.077 c 128,-1,61
 605 848 605 848 583 797 c 128,-1,62
 561 746 561 746 520.5 715.5 c 128,-1,19
 480 685 480 685 422.5 672 c 128,-1,20
EndSplineSet
EndChar

StartChar: brokenbar
Encoding: 166 166 151
Width: 684
Flags: HW
LayerCount: 2
Fore
SplineSet
227 1427 m 1,0,-1
 456 1427 l 1,1,-1
 456 594 l 1,2,-1
 227 594 l 1,3,-1
 227 1427 l 1,0,-1
456 348 m 1,4,-1
 456 -487 l 1,5,-1
 227 -487 l 1,6,-1
 227 348 l 1,7,-1
 456 348 l 1,4,-1
EndSplineSet
EndChar

StartChar: paragraph
Encoding: 182 182 152
Width: 1368
Flags: HW
LayerCount: 2
Fore
SplineSet
727.125 1458 m 0,0,1
 870.25 1458 870.25 1458 1157 1427 c 1,2,-1
 1157 0 l 1,3,-1
 947 0 l 1,4,-1
 947 1253 l 1,5,-1
 770 1253 l 1,6,-1
 770 0 l 1,7,-1
 560 0 l 1,8,-1
 560 616 l 1,9,10
 381.053 616 381.053 616 300 703.5 c 0,11,12
 210 800.659 210 800.659 210 1026 c 0,13,14
 210 1235.83 210 1235.83 314 1335.5 c 0,15,16
 441.826 1458 441.826 1458 727.125 1458 c 0,0,1
EndSplineSet
EndChar

StartChar: questiondown
Encoding: 191 191 154
Width: 1031
Flags: HW
LayerCount: 2
Fore
SplineSet
540 1151 m 128,-1,1
 510 1145 510 1145 464.5 1145 c 128,-1,2
 419 1145 419 1145 389.5 1151 c 128,-1,3
 360 1157 360 1157 342.5 1174 c 0,4,5
 312 1203.63 312 1203.63 312 1273.31 c 128,-1,6
 312 1343 312 1343 318.5 1372.5 c 128,-1,7
 325 1402 325 1402 342.5 1419.5 c 0,8,9
 373 1450 373 1450 441.5 1450 c 128,-1,10
 510 1450 510 1450 540 1443.5 c 128,-1,11
 570 1437 570 1437 587 1419.5 c 0,12,13
 618 1387.59 618 1387.59 618 1318.79 c 128,-1,14
 618 1250 618 1250 611 1220.5 c 128,-1,15
 604 1191 604 1191 587 1174 c 128,-1,0
 570 1157 570 1157 540 1151 c 128,-1,1
116 228 m 1,16,17
 267.444 199 267.444 199 366.722 199 c 128,-1,18
 466 199 466 199 520 208 c 128,-1,19
 574 217 574 217 611 241.5 c 0,20,21
 685 290.5 685 290.5 685 420 c 0,22,23
 685 552.5 685 552.5 601 607.5 c 0,24,25
 531.825 652.793 531.825 652.793 345 668 c 1,26,-1
 345 1014 l 1,27,-1
 583 1014 l 1,28,-1
 583 836 l 1,29,30
 736.009 804.92 736.009 804.92 820 723.5 c 0,31,32
 929 617.837 929 617.837 929 416 c 0,33,34
 929 177.6 929 177.6 797 72 c 0,35,36
 689.5 -14 689.5 -14 501 -14 c 0,37,38
 294.789 -14 294.789 -14 143 37.5 c 1,39,-1
 116 47 l 1,40,-1
 116 228 l 1,16,17
EndSplineSet
EndChar

StartChar: oe
Encoding: 339 339 155
Width: 1835
Flags: HW
LayerCount: 2
Fore
SplineSet
952 127 m 1,0,1
 830.935 -31 830.935 -31 590 -31 c 0,2,3
 209.909 -31 209.909 -31 122.5 289.5 c 0,4,5
 94 394 94 394 94 528 c 256,6,7
 94 940.562 94 940.562 365.5 1048 c 0,8,9
 459 1085 459 1085 590 1085 c 0,10,11
 863.013 1085 863.013 1085 971 922 c 1,12,13
 1101.4 1085 1101.4 1085 1350 1085 c 0,14,15
 1681.65 1085 1681.65 1085 1743 817 c 0,16,17
 1762 734 1762 734 1762 641.417 c 128,-1,18
 1762 548.833 1762 548.833 1749 434 c 1,19,-1
 1090 434 l 1,20,21
 1092.08 300.695 1092.08 300.695 1152 243.5 c 0,22,23
 1218.52 180 1218.52 180 1397.51 180 c 128,-1,24
 1576.5 180 1576.5 180 1714 205 c 1,25,-1
 1714 37 l 1,26,27
 1532.67 -27 1532.67 -27 1339 -27 c 0,28,29
 1065.67 -27 1065.67 -27 952 127 c 1,0,1
1542 612 m 1,30,-1
 1542 651 l 2,31,32
 1542 779.667 1542 779.667 1504.5 828 c 0,33,34
 1460.28 885 1460.28 885 1327 885 c 0,35,36
 1184.88 885 1184.88 885 1131.5 815.5 c 0,37,38
 1087 757.566 1087 757.566 1087 612 c 1,39,-1
 1542 612 l 1,30,-1
590.5 170 m 0,40,41
 669 170 669 170 719 193.5 c 128,-1,42
 769 217 769 217 797 262.5 c 0,43,44
 846 342.125 846 342.125 846 528 c 0,45,46
 846 712.875 846 712.875 797 792.5 c 0,47,48
 740.077 885 740.077 885 590 885 c 0,49,50
 441.407 885 441.407 885 385.5 792.5 c 0,51,52
 338 713.909 338 713.909 338 528 c 0,53,54
 338 341.091 338 341.091 385.5 262.5 c 0,55,56
 441.407 170 441.407 170 590.5 170 c 0,40,41
EndSplineSet
EndChar

StartChar: AE
Encoding: 198 198 156
Width: 1713
Flags: HW
LayerCount: 2
Fore
SplineSet
473 1427 m 1,0,-1
 1567 1427 l 1,1,-1
 1567 1204 l 1,2,-1
 862 1204 l 1,3,-1
 985 829 l 1,4,-1
 1583 829 l 1,5,-1
 1583 610 l 1,6,-1
 1057 610 l 1,7,-1
 1184 223 l 1,8,-1
 1643 223 l 1,9,-1
 1643 0 l 1,10,-1
 993 0 l 1,11,-1
 873 387 l 1,12,-1
 387 387 l 1,13,-1
 272 0 l 1,14,-1
 10 0 l 1,15,-1
 473 1427 l 1,0,-1
807 602 m 1,16,-1
 635 1204 l 1,17,-1
 629 1204 l 1,18,-1
 451 602 l 1,19,-1
 807 602 l 1,16,-1
EndSplineSet
EndChar

StartChar: OE
Encoding: 338 338 157
Width: 1968
Flags: HW
LayerCount: 2
Fore
SplineSet
702.6 1446 m 0,0,1
 795.2 1446 795.2 1446 1008 1427 c 1,2,-1
 1860 1427 l 1,3,-1
 1860 1204 l 1,4,-1
 1241 1204 l 1,5,-1
 1241 829 l 1,6,-1
 1759 829 l 1,7,-1
 1759 610 l 1,8,-1
 1241 610 l 1,9,-1
 1241 223 l 1,10,-1
 1876 223 l 1,11,-1
 1876 0 l 1,12,-1
 1001 0 l 1,13,-1
 891 -8 l 1,14,15
 763 -16 763 -16 684.5 -16 c 128,-1,16
 606 -16 606 -16 538.5 -4 c 128,-1,17
 471 8 471 8 409 39.5 c 128,-1,18
 347 71 347 71 293.5 124.5 c 128,-1,19
 240 178 240 178 200.5 260 c 0,20,21
 115 437.494 115 437.494 115 725 c 0,22,23
 115 1240 115 1240 417 1391 c 0,24,25
 527 1446 527 1446 702.6 1446 c 0,0,1
1001 1217 m 1,26,27
 945 1221 945 1221 838 1221 c 128,-1,28
 731 1221 731 1221 680.5 1217.5 c 128,-1,29
 630 1214 630 1214 583.5 1198.5 c 128,-1,30
 537 1183 537 1183 497 1151.5 c 128,-1,31
 457 1120 457 1120 427.5 1065 c 0,32,33
 365 948.475 365 948.475 365 727 c 0,34,35
 365 389.55 365 389.55 499 279 c 0,36,37
 573.327 217.68 573.327 217.68 684 209 c 0,38,39
 735 205 735 205 786 205 c 2,40,-1
 1001 205 l 1,41,-1
 1001 1217 l 1,26,27
EndSplineSet
EndChar

StartChar: currency
Encoding: 164 164 159
Width: 1331
Flags: HW
LayerCount: 2
Fore
SplineSet
408 942 m 1,0,1
 512.04 993 512.04 993 665.02 993 c 128,-1,2
 818 993 818 993 922 941 c 1,3,-1
 1110 1128 l 1,4,-1
 1286 952 l 1,5,-1
 1091 758 l 1,6,7
 1134 656 1134 656 1134 508.5 c 128,-1,8
 1134 361 1134 361 1091 257 c 1,9,-1
 1286 63 l 1,10,-1
 1110 -113 l 1,11,-1
 923 73 l 1,12,13
 819 20 819 20 664 20 c 128,-1,14
 509 20 509 20 406 73 c 1,15,-1
 221 -113 l 1,16,-1
 45 63 l 1,17,-1
 239 257 l 1,18,19
 196 361 196 361 196 509.182 c 128,-1,20
 196 657.364 196 657.364 239 759 c 1,21,-1
 45 952 l 1,22,-1
 221 1128 l 1,23,-1
 408 942 l 1,0,1
450.5 630 m 0,24,25
 442 577 442 577 442 509 c 128,-1,26
 442 441 442 441 450.5 387.5 c 128,-1,27
 459 334 459 334 483.5 297.5 c 0,28,29
 533.507 223 533.507 223 663 223 c 256,30,31
 794.014 223 794.014 223 843 297.5 c 0,32,33
 884 359.854 884 359.854 884 510 c 0,34,35
 884 657.5 884 657.5 843 719 c 0,36,37
 793.667 793 793.667 793 663 793 c 256,38,39
 476.642 793 476.642 793 450.5 630 c 0,24,25
EndSplineSet
EndChar

StartChar: perthousand
Encoding: 8240 8240 160
Width: 2257
Flags: HW
LayerCount: 2
Fore
SplineSet
1135 1554 m 1,0,-1
 1358 1554 l 1,1,-1
 406 0 l 1,2,-1
 185 0 l 1,3,-1
 1135 1554 l 1,0,-1
519.5 855.5 m 0,4,5
 460 838 460 838 386.5 838 c 128,-1,6
 313 838 313 838 253.5 855.5 c 128,-1,7
 194 873 194 873 152 914.5 c 0,8,9
 65 1000.46 65 1000.46 65 1196 c 0,10,11
 65 1483.14 65 1483.14 253.5 1537 c 0,12,13
 313 1554 313 1554 386.5 1554 c 128,-1,14
 460 1554 460 1554 519.5 1537 c 128,-1,15
 579 1520 579 1520 621 1479 c 0,16,17
 709 1393.1 709 1393.1 709 1196 c 0,18,19
 709 911.235 709 911.235 519.5 855.5 c 0,4,5
331 1029.5 m 0,20,21
 355 1022 355 1022 388 1022 c 128,-1,22
 421 1022 421 1022 445 1029.5 c 128,-1,23
 469 1037 469 1037 484.5 1056.5 c 0,24,25
 514 1093.61 514 1093.61 514 1196 c 256,26,27
 514 1298.39 514 1298.39 491.5 1326.69 c 128,-1,28
 469 1355 469 1355 445 1362.5 c 128,-1,29
 421 1370 421 1370 388 1370 c 128,-1,30
 355 1370 355 1370 331 1362.5 c 128,-1,31
 307 1355 307 1355 291 1335.5 c 0,32,33
 260 1297.72 260 1297.72 260 1196 c 256,34,35
 260 1051.69 260 1051.69 331 1029.5 c 0,20,21
1594 155 m 128,-1,37
 1571 224 1571 224 1571 327.5 c 128,-1,38
 1571 431 1571 431 1594 499.5 c 128,-1,39
 1617 568 1617 568 1659 609.5 c 0,40,41
 1736.42 686 1736.42 686 1892 686 c 0,42,43
 2050.58 686 2050.58 686 2128 609.5 c 0,44,45
 2216 522.548 2216 522.548 2216 328 c 0,46,47
 2216 39.8333 2216 39.8333 2026 -14 c 0,48,49
 1966 -31 1966 -31 1892.5 -31 c 128,-1,50
 1819 -31 1819 -31 1760 -14 c 128,-1,51
 1701 3 1701 3 1659 44.5 c 128,-1,36
 1617 86 1617 86 1594 155 c 128,-1,37
823 327.5 m 0,52,53
 823 431 823 431 846 499.5 c 128,-1,54
 869 568 869 568 911 609.5 c 0,55,56
 988.422 686 988.422 686 1145 686 c 256,57,58
 1302.58 686 1302.58 686 1380 609.5 c 0,59,60
 1468 522.548 1468 522.548 1468 328 c 0,61,62
 1468 39.8333 1468 39.8333 1278 -14 c 0,63,64
 1218 -31 1218 -31 1145 -31 c 256,65,66
 987.41 -31 987.41 -31 911 44.5 c 0,67,68
 823 131.452 823 131.452 823 327.5 c 0,52,53
1765 328 m 256,69,70
 1765 224.613 1765 224.613 1787.5 196.306 c 128,-1,71
 1810 168 1810 168 1834 161 c 128,-1,72
 1858 154 1858 154 1892 154 c 256,73,74
 1962.87 154 1962.87 154 1983.94 180.5 c 0,75,76
 2019 224.613 2019 224.613 2019 328 c 256,77,78
 2019 430.387 2019 430.387 1996.5 458.694 c 128,-1,79
 1974 487 1974 487 1950 494.5 c 128,-1,80
 1926 502 1926 502 1892 502 c 256,81,82
 1821.92 502 1821.92 502 1800.46 475 c 0,83,84
 1765 430.387 1765 430.387 1765 328 c 256,69,70
1018 328 m 256,85,86
 1018 224.613 1018 224.613 1040.5 196.306 c 128,-1,87
 1063 168 1063 168 1087 161 c 128,-1,88
 1111 154 1111 154 1145 154 c 256,89,90
 1215.87 154 1215.87 154 1236.94 180.5 c 0,91,92
 1272 224.613 1272 224.613 1272 328 c 256,93,94
 1272 430.387 1272 430.387 1249.5 458.694 c 128,-1,95
 1227 487 1227 487 1203 494.5 c 128,-1,96
 1179 502 1179 502 1145 502 c 256,97,98
 1074.92 502 1074.92 502 1053.46 475 c 0,99,100
 1018 430.387 1018 430.387 1018 328 c 256,85,86
EndSplineSet
EndChar

StartChar: minus
Encoding: 8722 8722 161
Width: 812
Flags: HW
LayerCount: 2
Fore
SplineSet
60 764 m 1,0,-1
 752 764 l 1,1,-1
 752 537 l 1,2,-1
 60 537 l 1,3,-1
 60 764 l 1,0,-1
EndSplineSet
EndChar

StartChar: dagger
Encoding: 8224 8224 162
Width: 1018
Flags: HW
LayerCount: 2
Fore
SplineSet
390 817 m 1,0,-1
 50 817 l 1,1,-1
 50 1014 l 1,2,-1
 390 1014 l 1,3,-1
 390 1427 l 1,4,-1
 628 1430 l 1,5,-1
 628 1014 l 1,6,-1
 968 1014 l 1,7,-1
 968 817 l 1,8,-1
 628 817 l 1,9,-1
 628 -162 l 1,10,-1
 390 -160 l 1,11,-1
 390 817 l 1,0,-1
EndSplineSet
EndChar

StartChar: daggerdbl
Encoding: 8225 8225 163
Width: 1040
Flags: HW
LayerCount: 2
Fore
SplineSet
61 453 m 1,0,-1
 401 453 l 1,1,-1
 401 815 l 1,2,-1
 61 815 l 1,3,-1
 61 1012 l 1,4,-1
 401 1012 l 1,5,-1
 401 1427 l 1,6,-1
 639 1430 l 1,7,-1
 639 1012 l 1,8,-1
 979 1012 l 1,9,-1
 979 815 l 1,10,-1
 639 815 l 1,11,-1
 639 453 l 1,12,-1
 979 453 l 1,13,-1
 979 256 l 1,14,-1
 639 256 l 1,15,-1
 639 -162 l 1,16,-1
 401 -160 l 1,17,-1
 401 256 l 1,18,-1
 61 256 l 1,19,-1
 61 453 l 1,0,-1
EndSplineSet
EndChar

StartChar: tilde.cap
Encoding: 65539 -1 164
Width: 938
Flags: HW
LayerCount: 2
Fore
SplineSet
61 1610 m 1,0,1
 70.3133 1686.83 70.3133 1686.83 131 1748.5 c 0,2,3
 202.696 1821.35 202.696 1821.35 303 1825 c 0,4,5
 387.977 1827.3 387.977 1827.3 488.5 1768.5 c 0,6,7
 588.546 1709.98 588.546 1709.98 630.773 1711.99 c 0,8,9
 720.762 1716.27 720.762 1716.27 768 1804 c 1,10,-1
 877 1735 l 1,11,12
 868.041 1661.09 868.041 1661.09 805.5 1596.5 c 0,13,14
 735.015 1523.7 735.015 1523.7 635 1520 c 256,15,16
 558.124 1517.15 558.124 1517.15 445.5 1575.5 c 1,17,-1
 367 1615 l 1,18,19
 272.462 1660.99 272.462 1660.99 200 1584 c 0,20,21
 182 1564 182 1564 170 1540 c 1,22,-1
 61 1610 l 1,0,1
EndSplineSet
EndChar

StartChar: ring.cap
Encoding: 65540 -1 165
Width: 627
Flags: HW
LayerCount: 2
Fore
SplineSet
414.5 1175 m 0,0,1
 368 1165 368 1165 313.5 1165 c 128,-1,2
 259 1165 259 1165 212.5 1175 c 128,-1,3
 166 1185 166 1185 132.5 1212 c 0,4,5
 61 1269.63 61 1269.63 61 1407 c 0,6,7
 61 1607.74 61 1607.74 214 1641 c 0,8,9
 260 1651 260 1651 313 1651 c 256,10,11
 432.815 1651 432.815 1651 492 1604 c 0,12,13
 565 1546.03 565 1546.03 565 1407 c 0,14,15
 565 1207.37 565 1207.37 414.5 1175 c 0,0,1
270.5 1301 m 128,-1,17
 288 1296 288 1296 313.5 1296 c 128,-1,18
 339 1296 339 1296 357 1301 c 128,-1,19
 375 1306 375 1306 386 1319 c 0,20,21
 406 1342.64 406 1342.64 406 1391.32 c 128,-1,22
 406 1440 406 1440 401.5 1461.5 c 128,-1,23
 397 1483 397 1483 386 1495.5 c 0,24,25
 366.2 1518 366.2 1518 327.1 1518 c 128,-1,26
 288 1518 288 1518 270.5 1513 c 128,-1,27
 253 1508 253 1508 242.5 1495.5 c 0,28,29
 223 1472.29 223 1472.29 223 1423.64 c 128,-1,30
 223 1375 223 1375 227.5 1353.5 c 128,-1,31
 232 1332 232 1332 242.5 1319 c 128,-1,16
 253 1306 253 1306 270.5 1301 c 128,-1,17
EndSplineSet
EndChar

StartChar: caron.cap
Encoding: 65541 -1 166
Width: 782
Flags: HW
LayerCount: 2
Fore
SplineSet
391 1518 m 256,0,1
 295.333 1518 295.333 1518 258.667 1538 c 0,2,3
 194.347 1573.08 194.347 1573.08 162 1653 c 2,4,-1
 61 1905 l 1,5,-1
 178 1962 l 1,6,-1
 391 1653 l 1,7,-1
 604 1962 l 1,8,-1
 721 1905 l 1,9,-1
 621 1653 l 2,10,11
 574.419 1537.92 574.419 1537.92 470 1523 c 0,12,13
 435 1518 435 1518 391 1518 c 256,0,1
EndSplineSet
EndChar

StartChar: circumflex.cap
Encoding: 65543 -1 168
Width: 782
Flags: HW
LayerCount: 2
Fore
SplineSet
178 1518 m 1,0,-1
 61 1575 l 1,1,-1
 162 1827 l 2,2,3
 207.788 1940.12 207.788 1940.12 312 1956.5 c 0,4,5
 347 1962 347 1962 391 1962 c 256,6,7
 484.138 1962 484.138 1962 522.069 1942 c 0,8,9
 588.665 1906.89 588.665 1906.89 621 1827 c 2,10,-1
 721 1575 l 1,11,-1
 604 1518 l 1,12,-1
 391 1827 l 1,13,-1
 178 1518 l 1,0,-1
EndSplineSet
EndChar

StartChar: acute.cap
Encoding: 65544 -1 169
Width: 680
Flags: HW
LayerCount: 2
Fore
SplineSet
61 1653 m 1,0,-1
 485 2005 l 1,1,2
 528 1983.5 528 1983.5 563 1940.25 c 0,3,4
 618 1872.29 618 1872.29 618 1833.14 c 0,5,6
 618 1785.95 618 1785.95 501.5 1718.5 c 1,7,8
 308.866 1613.5 308.866 1613.5 150 1536 c 1,9,-1
 61 1653 l 1,0,-1
EndSplineSet
EndChar

StartChar: grave.cap
Encoding: 65545 -1 170
Width: 680
Flags: HW
LayerCount: 2
Fore
SplineSet
530 1516 m 1,0,1
 285.58 1639.03 285.58 1639.03 246.29 1660.51 c 2,2,-1
 178.5 1698.5 l 2,3,4
 150 1715 150 1715 129 1729 c 0,5,6
 62 1774 62 1774 62 1818 c 0,7,8
 62 1866.82 62 1866.82 138.5 1941 c 0,9,10
 167.078 1968.71 167.078 1968.71 195 1985 c 1,11,-1
 618 1632 l 1,12,-1
 530 1516 l 1,0,1
EndSplineSet
EndChar

StartChar: commaaccent
Encoding: 65546 -1 171
Width: 438
Flags: HW
LayerCount: 2
Fore
SplineSet
190 -91 m 1,0,1
 238.429 -91 238.429 -91 286.214 -106.5 c 128,-1,2
 334 -122 334 -122 352 -137.5 c 128,-1,3
 370 -153 370 -153 370 -175 c 0,4,5
 370 -226.814 370 -226.814 300.5 -354.5 c 1,6,-1
 215 -500 l 1,7,-1
 93 -445 l 1,8,-1
 190 -91 l 1,0,1
EndSplineSet
EndChar

StartChar: hungarumlaut.cap
Encoding: 65548 -1 173
Width: 1026
Flags: HW
LayerCount: 2
Fore
SplineSet
61 1606 m 1,0,-1
 379 2054 l 1,1,2
 420.5 2044.42 420.5 2044.42 470.75 2009.71 c 128,-1,3
 521 1975 521 1975 536.5 1954 c 128,-1,4
 552 1933 552 1933 552 1903.5 c 128,-1,5
 552 1874 552 1874 522.5 1840 c 128,-1,6
 493 1806 493 1806 469 1782.5 c 2,7,-1
 307 1631 l 1,8,-1
 174 1513 l 1,9,-1
 61 1606 l 1,0,-1
516 1602 m 1,10,-1
 795 2011 l 1,11,12
 836.5 2001.42 836.5 2001.42 900.25 1957.21 c 128,-1,13
 964 1913 964 1913 964 1875 c 0,14,15
 964 1840 964 1840 932 1804.5 c 128,-1,16
 900 1769 900 1769 878 1747.5 c 0,17,18
 769.769 1644.42 769.769 1644.42 724.885 1604.71 c 1,19,-1
 621 1516 l 1,20,-1
 516 1602 l 1,10,-1
EndSplineSet
EndChar

StartChar: hbar
Encoding: 295 295 175
Width: 1282
Flags: HW
LayerCount: 2
Fore
SplineSet
792.5 856 m 128,-1,1
 756 866 756 866 669.35 866 c 128,-1,2
 582.7 866 582.7 866 431 829 c 1,3,-1
 431 0 l 1,4,-1
 194 0 l 1,5,-1
 194 1219 l 1,6,-1
 60 1219 l 1,7,-1
 60 1376 l 1,8,-1
 194 1376 l 1,9,-1
 194 1554 l 1,10,-1
 431 1554 l 1,11,-1
 431 1376 l 1,12,-1
 712 1376 l 1,13,-1
 712 1219 l 1,14,-1
 431 1219 l 1,15,-1
 431 1004 l 1,16,17
 629.75 1079 629.75 1079 804 1079 c 256,18,19
 961.215 1079 961.215 1079 1033.5 1008.5 c 0,20,21
 1118 926.086 1118 926.086 1118 729 c 2,22,-1
 1118 0 l 1,23,-1
 880 0 l 1,24,-1
 880 700 l 2,25,26
 880 792.385 880 792.385 854.5 819.192 c 128,-1,0
 829 846 829 846 792.5 856 c 128,-1,1
EndSplineSet
Substitution2: "'smcp' Lowercase to Small Capitals in Latin lookup 0 subtable" .notdef
EndChar

StartChar: germandbls
Encoding: 223 223 176
Width: 1220
Flags: HW
LayerCount: 2
Fore
SplineSet
513 196 m 1,0,1
 606.75 181 606.75 181 672.875 181 c 128,-1,2
 739 181 739 181 773 192 c 128,-1,3
 807 203 807 203 831.5 226 c 0,4,5
 884 275.286 884 275.286 884 360.643 c 128,-1,6
 884 446 884 446 864.5 490.5 c 128,-1,7
 845 535 845 535 815 562.5 c 128,-1,8
 785 590 785 590 749 607 c 2,9,-1
 679 641 l 2,10,11
 656 651.455 656 651.455 656 735 c 256,12,13
 656 812.364 656 812.364 679 826.682 c 2,14,-1
 730 860 l 1,15,16
 839 933.964 839 933.964 839 1059 c 0,17,18
 839 1170.43 839 1170.43 796.5 1207.5 c 0,19,20
 755.805 1243 755.805 1243 628 1243 c 0,21,22
 509.429 1243 509.429 1243 463 1197.5 c 0,23,24
 415 1150.46 415 1150.46 415 1038 c 2,25,-1
 415 0 l 1,26,-1
 175 0 l 1,27,-1
 175 1040 l 2,28,29
 175 1237.92 175 1237.92 272 1339.5 c 0,30,31
 383.252 1456 383.252 1456 630 1456 c 0,32,33
 865.182 1456 865.182 1456 978 1346.5 c 0,34,35
 1072 1255.26 1072 1255.26 1072 1098 c 0,36,37
 1072 952.444 1072 952.444 993.5 856.5 c 0,38,39
 937.163 787.643 937.163 787.643 886 774 c 0,40,41
 881 772 881 772 881 766 c 128,-1,42
 881 760 881 760 886 758 c 0,43,44
 962.839 734.357 962.839 734.357 1025.5 666 c 0,45,46
 1125 557.455 1125 557.455 1125 358 c 0,47,48
 1125 174.951 1125 174.951 1015 72.5 c 0,49,50
 914.611 -21 914.611 -21 761.347 -21 c 128,-1,51
 608.083 -21 608.083 -21 509 20 c 1,52,-1
 513 196 l 1,0,1
EndSplineSet
EndChar

StartChar: Eth
Encoding: 208 208 178
Width: 1419
Flags: HW
LayerCount: 2
Fore
SplineSet
231 605 m 1,0,-1
 60 605 l 1,1,-1
 60 823 l 1,2,-1
 231 823 l 1,3,-1
 231 1427 l 1,4,-1
 743 1427 l 2,5,6
 1011.44 1427 1011.44 1427 1142 1299 c 0,7,8
 1304 1140.18 1304 1140.18 1304 725 c 0,9,10
 1304 293.306 1304 293.306 1151 132.5 c 0,11,12
 1057.12 33.8297 1057.12 33.8297 902.5 11 c 0,13,14
 828 0 828 0 743 0 c 2,15,-1
 231 0 l 1,16,-1
 231 605 l 1,0,-1
678 223 m 2,17,18
 811.167 223 811.167 223 859.583 240.5 c 128,-1,19
 908 258 908 258 942.5 288.5 c 128,-1,20
 977 319 977 319 1001.5 375 c 0,21,22
 1053 492.714 1053 492.714 1053 727 c 0,23,24
 1053 1044.84 1053 1044.84 945.5 1139.5 c 0,25,26
 882.926 1194.6 882.926 1194.6 779.5 1201 c 0,27,28
 731 1204 731 1204 678 1204 c 2,29,-1
 471 1204 l 1,30,-1
 471 823 l 1,31,-1
 795 823 l 1,32,-1
 795 605 l 1,33,-1
 471 605 l 1,34,-1
 471 223 l 1,35,-1
 678 223 l 2,17,18
EndSplineSet
EndChar

StartChar: eth
Encoding: 240 240 179
Width: 1173
Flags: HW
LayerCount: 2
Fore
SplineSet
1038 414 m 2,0,1
 1038 -31 1038 -31 584 -31 c 0,2,3
 335.645 -31 335.645 -31 222.5 91 c 0,4,5
 111 211.226 111 211.226 111 476 c 0,6,7
 111 840.906 111 840.906 314.5 905 c 0,8,9
 378 925 378 925 455 925 c 0,10,11
 633 925 633 925 801 845 c 1,12,13
 801 1044.36 801 1044.36 655 1197 c 1,14,-1
 457 1023 l 1,15,-1
 358 1168 l 1,16,-1
 516 1306 l 1,17,18
 390.808 1380.33 390.808 1380.33 250 1391 c 1,19,-1
 274 1564 l 1,20,21
 512.887 1550.62 512.887 1550.62 681 1451 c 1,22,-1
 877 1622 l 1,23,-1
 974 1479 l 1,24,-1
 821 1344 l 1,25,26
 1038 1123.19 1038 1123.19 1038 764 c 2,27,-1
 1038 414 l 2,0,1
801 671 m 1,28,29
 690.5 710 690.5 710 606.25 710 c 128,-1,30
 522 710 522 710 479 704 c 128,-1,31
 436 698 436 698 409 675 c 0,32,33
 358 631.556 358 631.556 358 485 c 0,34,35
 358 335.059 358 335.059 404.5 268.5 c 0,36,37
 455.849 195 455.849 195 584 195 c 0,38,39
 714.619 195 714.619 195 760.5 256.5 c 0,40,41
 801 310.787 801 310.787 801 453 c 2,42,-1
 801 671 l 1,28,29
EndSplineSet
EndChar

StartChar: logicalnot
Encoding: 172 172 180
Width: 1146
Flags: HW
LayerCount: 2
Fore
SplineSet
40 866 m 1,0,-1
 1081 866 l 1,1,-1
 1081 315 l 1,2,-1
 843 315 l 1,3,-1
 843 653 l 1,4,-1
 40 653 l 1,5,-1
 40 866 l 1,0,-1
EndSplineSet
EndChar

StartChar: mu
Encoding: 181 181 181
AltUni2: 0003bc.ffffffff.0
Width: 1298
Flags: HW
LayerCount: 2
Fore
SplineSet
543.119 -20 m 0,0,1
 458.238 -20 458.238 -20 387 24 c 1,2,-1
 387 -485 l 1,3,-1
 166 -485 l 1,4,-1
 166 1055 l 1,5,-1
 387 1055 l 1,6,-1
 387 465 l 2,7,8
 387 302.535 387 302.535 414.5 257.767 c 128,-1,9
 442 213 442 213 483 196.5 c 128,-1,10
 524 180 524 180 623.269 180 c 128,-1,11
 722.538 180 722.538 180 831 227 c 1,12,-1
 831 1055 l 1,13,-1
 1065 1055 l 1,14,-1
 1065 262 l 2,15,16
 1065 171.167 1065 171.167 1099 157 c 0,17,18
 1111 152 1111 152 1164 152 c 128,-1,19
 1217 152 1217 152 1247 158 c 1,20,-1
 1247 14 l 1,21,22
 1136.23 -31 1136.23 -31 1032 -31 c 0,23,24
 897 -31 897 -31 861 95 c 1,25,26
 729.571 -20 729.571 -20 543.119 -20 c 0,0,1
EndSplineSet
EndChar

StartChar: thorn
Encoding: 254 254 182
Width: 1228
Flags: HW
LayerCount: 2
Fore
SplineSet
403 1010 m 1,0,1
 579.25 1085 579.25 1085 756 1085 c 0,2,3
 957.993 1085 957.993 1085 1042 938.5 c 0,4,5
 1116 809.451 1116 809.451 1116 532 c 0,6,7
 1116 89.1223 1116 89.1223 902.5 -1.5 c 0,8,9
 833 -31 833 -31 758.5 -31 c 128,-1,10
 684 -31 684 -31 629.5 -19 c 128,-1,11
 575 -7 575 -7 530.5 9.5 c 0,12,13
 458.108 36.3421 458.108 36.3421 403 72 c 1,14,-1
 403 -485 l 1,15,-1
 166 -485 l 1,16,-1
 166 1554 l 1,17,-1
 403 1554 l 1,18,-1
 403 1010 l 1,0,1
763.5 858.5 m 128,-1,20
 720 874 720 874 631.8 874 c 128,-1,21
 543.6 874 543.6 874 403 836 c 1,22,-1
 403 238 l 1,23,24
 515 182 515 182 670 182 c 0,25,26
 786.949 182 786.949 182 827.5 256.5 c 0,27,28
 866 327.233 866 327.233 866 476.616 c 128,-1,29
 866 626 866 626 859 694.5 c 128,-1,30
 852 763 852 763 829.5 803 c 128,-1,19
 807 843 807 843 763.5 858.5 c 128,-1,20
EndSplineSet
EndChar

StartChar: Thorn
Encoding: 222 222 183
Width: 1228
Flags: HW
LayerCount: 2
Fore
SplineSet
903.5 235 m 0,0,1
 820 214 820 214 699 214 c 128,-1,2
 578 214 578 214 422 266 c 1,3,-1
 422 0 l 1,4,-1
 182 0 l 1,5,-1
 182 1427 l 1,6,-1
 422 1427 l 1,7,-1
 422 1154 l 1,8,9
 583.5 1205 583.5 1205 703.75 1205 c 128,-1,10
 824 1205 824 1205 905.5 1183.5 c 128,-1,11
 987 1162 987 1162 1047.5 1106.5 c 0,12,13
 1178 986.785 1178 986.785 1178 711 c 0,14,15
 1178 304.036 1178 304.036 903.5 235 c 0,0,1
781 985 m 128,-1,17
 729 996 729 996 631.5 996 c 128,-1,18
 534 996 534 996 422 982 c 1,19,-1
 422 442 l 1,20,21
 507 425 507 425 607 425 c 128,-1,22
 707 425 707 425 762 437 c 128,-1,23
 817 449 817 449 855.5 480.5 c 0,24,25
 934 544.727 934 544.727 934 713 c 0,26,27
 934 881.912 934 881.912 867 943 c 0,28,16
 833 974 833 974 781 985 c 128,-1,17
EndSplineSet
EndChar

StartChar: dotlessj
Encoding: 567 567 184
Width: 610
Flags: HW
LayerCount: 2
Fore
SplineSet
-40 -283 m 1,0,1
 20 -289 20 -289 74 -289 c 128,-1,2
 128 -289 128 -289 147.5 -286 c 128,-1,3
 167 -283 167 -283 181 -273.5 c 0,4,5
 210 -253.821 210 -253.821 210 -203 c 2,6,-1
 210 1055 l 1,7,-1
 447 1055 l 1,8,-1
 447 -256 l 2,9,10
 447 -387.667 447 -387.667 374 -448.5 c 0,11,12
 314.6 -498 314.6 -498 186.936 -498 c 128,-1,13
 59.2727 -498 59.2727 -498 -40 -459 c 1,14,-1
 -40 -283 l 1,0,1
EndSplineSet
EndChar

StartChar: ordmasculine
Encoding: 186 186 185
Width: 835
Flags: HW
LayerCount: 2
Fore
SplineSet
419 659 m 256,0,1
 237.682 659 237.682 659 153 740 c 0,2,3
 60 828.957 60 828.957 60 1040 c 256,4,5
 60 1347.62 60 1347.62 266 1404.5 c 0,6,7
 333 1423 333 1423 419 1423 c 256,8,9
 600.584 1423 600.584 1423 683 1341.5 c 0,10,11
 775 1250.52 775 1250.52 775 1040 c 256,12,13
 775 734.113 775 734.113 571.5 677.5 c 0,14,15
 505 659 505 659 419 659 c 256,0,1
419 815 m 256,16,17
 513.077 815 513.077 815 550 863 c 0,18,19
 589 913.7 589 913.7 589 1009.85 c 128,-1,20
 589 1106 589 1106 579.5 1150 c 128,-1,21
 570 1194 570 1194 550 1220.5 c 0,22,23
 512.642 1270 512.642 1270 419 1270 c 256,24,25
 325.358 1270 325.358 1270 288 1220.5 c 0,26,27
 249 1168.82 249 1168.82 249 1072.91 c 128,-1,28
 249 977 249 977 258.5 933 c 128,-1,29
 268 889 268 889 288 863 c 0,30,31
 324.923 815 324.923 815 419 815 c 256,16,17
EndSplineSet
EndChar

StartChar: ordfeminine
Encoding: 170 170 186
Width: 804
Flags: HW
LayerCount: 2
Fore
SplineSet
570 725 m 1,0,1
 473.68 639 473.68 639 347.34 639 c 0,2,3
 95 639 95 639 95 860 c 0,4,5
 95 980 95 980 152.5 1033.5 c 128,-1,6
 210 1087 210 1087 321.5 1087 c 128,-1,7
 433 1087 433 1087 547 1049 c 1,8,-1
 547 1135 l 2,9,10
 547 1239.33 547 1239.33 451.5 1249 c 0,11,12
 412 1253 412 1253 364 1253 c 0,13,14
 271 1253 271 1253 131 1237 c 1,15,-1
 131 1358 l 1,16,17
 269.75 1403 269.75 1403 385.375 1403 c 128,-1,18
 501 1403 501 1403 569 1387 c 0,19,20
 689.994 1358.53 689.994 1358.53 718 1224.5 c 0,21,22
 731 1162.29 731 1162.29 731 1036 c 2,23,-1
 731 659 l 1,24,-1
 586 659 l 1,25,-1
 570 725 l 1,0,1
547 934 m 1,26,27
 455 946 455 946 405 946 c 128,-1,28
 355 946 355 946 333.5 942 c 128,-1,29
 312 938 312 938 300 929 c 0,30,31
 279 913.25 279 913.25 279 880.125 c 128,-1,32
 279 847 279 847 283 831.5 c 128,-1,33
 287 816 287 816 297.5 806.5 c 0,34,35
 317.947 788 317.947 788 392.196 788 c 128,-1,36
 466.444 788 466.444 788 547 817 c 1,37,-1
 547 934 l 1,26,27
EndSplineSet
EndChar

StartChar: kgreenlandic
Encoding: 312 312 187
Width: 1147
Flags: HW
LayerCount: 2
Fore
SplineSet
166 1055 m 1,0,-1
 403 1055 l 1,1,-1
 403 677 l 1,2,-1
 570 677 l 1,3,-1
 812 1055 l 1,4,-1
 1085 1055 l 1,5,-1
 759 554 l 1,6,-1
 1097 0 l 1,7,-1
 826 0 l 1,8,-1
 559 439 l 1,9,-1
 403 439 l 1,10,-1
 403 0 l 1,11,-1
 166 0 l 1,12,-1
 166 1055 l 1,0,-1
EndSplineSet
EndChar

StartChar: Hbar
Encoding: 294 294 188
Width: 1491
Flags: HW
LayerCount: 2
Fore
SplineSet
215 1016 m 1,0,-1
 0 1016 l 1,1,-1
 0 1182 l 1,2,-1
 215 1182 l 1,3,-1
 215 1427 l 1,4,-1
 455 1427 l 1,5,-1
 455 1182 l 1,6,-1
 1067 1182 l 1,7,-1
 1067 1427 l 1,8,-1
 1307 1427 l 1,9,-1
 1307 1182 l 1,10,-1
 1491 1182 l 1,11,-1
 1491 1016 l 1,12,-1
 1307 1016 l 1,13,-1
 1307 0 l 1,14,-1
 1067 0 l 1,15,-1
 1067 612 l 1,16,-1
 455 612 l 1,17,-1
 455 0 l 1,18,-1
 215 0 l 1,19,-1
 215 1016 l 1,0,-1
1067 836 m 1,20,-1
 1067 1016 l 1,21,-1
 455 1016 l 1,22,-1
 455 836 l 1,23,-1
 1067 836 l 1,20,-1
EndSplineSet
Substitution2: "'smcp' Lowercase to Small Capitals in Latin lookup 0 subtable" .notdef
EndChar

StartChar: Tbar
Encoding: 358 358 189
Width: 1180
Flags: HW
LayerCount: 2
Fore
SplineSet
469 603 m 1,0,-1
 185 603 l 1,1,-1
 185 797 l 1,2,-1
 469 797 l 1,3,-1
 469 1206 l 1,4,-1
 41 1206 l 1,5,-1
 41 1427 l 1,6,-1
 1139 1427 l 1,7,-1
 1139 1206 l 1,8,-1
 707 1206 l 1,9,-1
 707 797 l 1,10,-1
 996 797 l 1,11,-1
 996 603 l 1,12,-1
 707 603 l 1,13,-1
 707 0 l 1,14,-1
 469 0 l 1,15,-1
 469 603 l 1,0,-1
EndSplineSet
Substitution2: "'smcp' Lowercase to Small Capitals in Latin lookup 0 subtable" .notdef
EndChar

StartChar: Dcroat
Encoding: 272 272 190
Width: 1419
Flags: HW
LayerCount: 2
Fore
SplineSet
231 605 m 1,0,-1
 60 605 l 1,1,-1
 60 823 l 1,2,-1
 231 823 l 1,3,-1
 231 1427 l 1,4,-1
 743 1427 l 2,5,6
 1011.44 1427 1011.44 1427 1142 1299 c 0,7,8
 1304 1140.18 1304 1140.18 1304 725 c 0,9,10
 1304 293.306 1304 293.306 1151 132.5 c 0,11,12
 1057.12 33.8297 1057.12 33.8297 902.5 11 c 0,13,14
 828 0 828 0 743 0 c 2,15,-1
 231 0 l 1,16,-1
 231 605 l 1,0,-1
678 223 m 2,17,18
 811.167 223 811.167 223 859.583 240.5 c 128,-1,19
 908 258 908 258 942.5 288.5 c 128,-1,20
 977 319 977 319 1001.5 375 c 0,21,22
 1053 492.714 1053 492.714 1053 727 c 0,23,24
 1053 1044.84 1053 1044.84 945.5 1139.5 c 0,25,26
 882.926 1194.6 882.926 1194.6 779.5 1201 c 0,27,28
 731 1204 731 1204 678 1204 c 2,29,-1
 471 1204 l 1,30,-1
 471 823 l 1,31,-1
 795 823 l 1,32,-1
 795 605 l 1,33,-1
 471 605 l 1,34,-1
 471 223 l 1,35,-1
 678 223 l 2,17,18
EndSplineSet
Substitution2: "'smcp' Lowercase to Small Capitals in Latin lookup 0 subtable" .notdef
EndChar

StartChar: tbar
Encoding: 359 359 191
Width: 891
Flags: HW
LayerCount: 2
Fore
SplineSet
801 18 m 1,0,1
 678.5 -31 678.5 -31 570.75 -31 c 128,-1,2
 463 -31 463 -31 409.5 -16 c 128,-1,3
 356 -1 356 -1 322.5 29.5 c 0,4,5
 259 87.3134 259 87.3134 259 215 c 2,6,-1
 259 462 l 1,7,-1
 103 462 l 1,8,-1
 103 646 l 1,9,-1
 259 646 l 1,10,-1
 259 868 l 1,11,-1
 103 868 l 1,12,-1
 103 1055 l 1,13,-1
 259 1055 l 1,14,-1
 259 1278 l 1,15,-1
 496 1331 l 1,16,-1
 496 1055 l 1,17,-1
 762 1055 l 1,18,-1
 762 868 l 1,19,-1
 496 868 l 1,20,-1
 496 646 l 1,21,-1
 763 646 l 1,22,-1
 763 462 l 1,23,-1
 496 462 l 1,24,-1
 496 291 l 2,25,26
 496 217 496 217 516 197 c 0,27,28
 547 166 547 166 640.667 166 c 128,-1,29
 734.333 166 734.333 166 801 176 c 1,30,-1
 801 18 l 1,0,1
EndSplineSet
Substitution2: "'smcp' Lowercase to Small Capitals in Latin lookup 0 subtable" .notdef
EndChar

StartChar: fl
Encoding: 64258 64258 192
Width: 1302
Flags: HW
LayerCount: 2
Fore
SplineSet
712 1587 m 0,0,1
 926.737 1587 926.737 1587 1136 1516 c 1,2,-1
 1136 0 l 1,3,-1
 899 0 l 1,4,-1
 899 858 l 1,5,-1
 475 858 l 1,6,-1
 475 0 l 1,7,-1
 237 0 l 1,8,-1
 237 858 l 1,9,-1
 90 858 l 1,10,-1
 90 1055 l 1,11,-1
 237 1055 l 1,12,-1
 237 1272 l 2,13,14
 237 1527.14 237 1527.14 522 1573 c 0,15,16
 609 1587 609 1587 712 1587 c 0,0,1
899 1365 m 1,17,18
 783.5 1376 783.5 1376 712.75 1376 c 128,-1,19
 642 1376 642 1376 598.5 1368.5 c 128,-1,20
 555 1361 555 1361 527.5 1344 c 0,21,22
 475 1311.55 475 1311.55 475 1231 c 2,23,-1
 475 1055 l 1,24,-1
 899 1055 l 1,25,-1
 899 1365 l 1,17,18
EndSplineSet
Ligature2: "'liga' Standard Ligatures in Latin lookup 1 subtable" f l
EndChar

StartChar: ff
Encoding: 64256 64256 193
Width: 1477
Flags: HW
LayerCount: 2
Fore
SplineSet
1511 1343 m 1,0,1
 1343.8 1362 1343.8 1362 1279.9 1362 c 128,-1,2
 1216 1362 1216 1362 1179 1352.5 c 128,-1,3
 1142 1343 1142 1343 1123.5 1325.5 c 0,4,5
 1097 1300.43 1097 1300.43 1097 1231 c 2,6,-1
 1097 1055 l 1,7,-1
 1362 1055 l 1,8,-1
 1362 860 l 1,9,-1
 1097 860 l 1,10,-1
 1097 0 l 1,11,-1
 858 0 l 1,12,-1
 858 860 l 1,13,-1
 475 860 l 1,14,-1
 475 0 l 1,15,-1
 237 0 l 1,16,-1
 237 860 l 1,17,-1
 90 860 l 1,18,-1
 90 1055 l 1,19,-1
 237 1055 l 1,20,-1
 237 1178 l 2,21,22
 237 1507 237 1507 653 1507 c 0,23,24
 803 1507 803 1507 920 1480 c 1,25,26
 995.815 1569 995.815 1569 1182.74 1569 c 128,-1,27
 1369.67 1569 1369.67 1569 1511 1516 c 1,28,-1
 1511 1343 l 1,0,1
858 1286 m 1,29,30
 756 1292 756 1292 695 1292 c 128,-1,31
 634 1292 634 1292 590 1281 c 128,-1,32
 546 1270 546 1270 520.5 1249.5 c 0,33,34
 475 1212.92 475 1212.92 475 1141 c 2,35,-1
 475 1055 l 1,36,-1
 858 1055 l 1,37,-1
 858 1286 l 1,29,30
EndSplineSet
Ligature2: "'liga' Standard Ligatures in Latin lookup 1 subtable" f f
EndChar

StartChar: Aogonek
Encoding: 260 260 194
Width: 1276
Flags: HW
LayerCount: 2
Fore
SplineSet
864 -279 m 0,0,1
 864 -133 864 -133 997 0 c 1,2,-1
 877 387 l 1,3,-1
 391 387 l 1,4,-1
 276 0 l 1,5,-1
 14 0 l 1,6,-1
 477 1427 l 1,7,-1
 795 1427 l 1,8,-1
 1262 0 l 1,9,10
 1168 -56 1168 -56 1126.5 -115 c 128,-1,11
 1085 -174 1085 -174 1085 -220.5 c 0,12,13
 1085 -317 1085 -317 1186 -317 c 0,14,15
 1225 -317 1225 -317 1255 -311 c 1,16,-1
 1255 -479 l 1,17,18
 1198 -500 1198 -500 1130.5 -500 c 128,-1,19
 1063 -500 1063 -500 1017 -486 c 128,-1,20
 971 -472 971 -472 937 -444.5 c 0,21,22
 864 -385.456 864 -385.456 864 -279 c 0,0,1
811 602 m 1,23,-1
 635 1206 l 1,24,-1
 631 1206 l 1,25,-1
 455 602 l 1,26,-1
 811 602 l 1,23,-1
EndSplineSet
Substitution2: "'smcp' Lowercase to Small Capitals in Latin lookup 0 subtable" .notdef
EndChar

StartChar: Eogonek
Encoding: 280 280 200
Width: 1149
Flags: HW
LayerCount: 2
Fore
SplineSet
663 -279 m 0,0,1
 663 -137.739 663 -137.739 795 0 c 1,2,-1
 182 0 l 1,3,-1
 182 1427 l 1,4,-1
 1040 1427 l 1,5,-1
 1040 1204 l 1,6,-1
 422 1204 l 1,7,-1
 422 829 l 1,8,-1
 940 829 l 1,9,-1
 940 610 l 1,10,-1
 422 610 l 1,11,-1
 422 223 l 1,12,-1
 1057 223 l 1,13,-1
 1057 0 l 1,14,15
 885 -109.787 885 -109.787 885 -225 c 0,16,17
 885 -267 885 -267 909.5 -292 c 128,-1,18
 934 -317 934 -317 979.5 -317 c 128,-1,19
 1025 -317 1025 -317 1055 -311 c 1,20,-1
 1055 -479 l 1,21,22
 995 -500 995 -500 928.5 -500 c 128,-1,23
 862 -500 862 -500 816 -486 c 128,-1,24
 770 -472 770 -472 736 -444.5 c 0,25,26
 663 -385.456 663 -385.456 663 -279 c 0,0,1
EndSplineSet
Substitution2: "'smcp' Lowercase to Small Capitals in Latin lookup 0 subtable" .notdef
EndChar

StartChar: eogonek
Encoding: 281 281 201
Width: 1085
Flags: HW
LayerCount: 2
Fore
SplineSet
594 -31 m 1,0,-1
 590 -31 l 2,1,2
 343.504 -31 343.504 -31 224.5 95.5 c 0,3,4
 94 234.22 94 234.22 94 539 c 0,5,6
 94 842.113 94 842.113 251 977 c 0,7,8
 376.705 1085 376.705 1085 600 1085 c 0,9,10
 931.651 1085 931.651 1085 993 817 c 0,11,12
 1012 734 1012 734 1012 641.417 c 128,-1,13
 1012 548.833 1012 548.833 999 434 c 1,14,-1
 338 434 l 1,15,16
 340.007 291.486 340.007 291.486 401.5 235.5 c 0,17,18
 464.656 178 464.656 178 646.078 178 c 128,-1,19
 827.5 178 827.5 178 965 203 c 1,20,-1
 965 37 l 1,21,22
 760.51 -52.9757 760.51 -52.9757 715 -165 c 0,23,24
 702 -197 702 -197 702 -232 c 128,-1,25
 702 -267 702 -267 727 -292 c 128,-1,26
 752 -317 752 -317 797 -317 c 128,-1,27
 842 -317 842 -317 872 -311 c 1,28,-1
 872 -479 l 1,29,30
 815 -500 815 -500 747.5 -500 c 128,-1,31
 680 -500 680 -500 634 -486 c 128,-1,32
 588 -472 588 -472 554 -444.5 c 0,33,34
 481 -385.456 481 -385.456 481 -267.418 c 128,-1,35
 481 -149.381 481 -149.381 594 -31 c 1,0,-1
793 612 m 1,36,-1
 793 650 l 2,37,38
 793 780.087 793 780.087 755 828 c 0,39,40
 709.793 885 709.793 885 578 885 c 0,41,42
 434.884 885 434.884 885 381.5 815.5 c 0,43,44
 336 756.264 336 756.264 336 612 c 1,45,-1
 793 612 l 1,36,-1
EndSplineSet
Substitution2: "'smcp' Lowercase to Small Capitals in Latin lookup 0 subtable" .notdef
EndChar

StartChar: onehalf
Encoding: 189 189 209
Width: 1559
Flags: HW
LayerCount: 2
Fore
SplineSet
961 1554 m 1,0,-1
 1147 1554 l 1,1,-1
 442 0 l 1,2,-1
 256 0 l 1,3,-1
 961 1554 l 1,0,-1
989 852 m 1,4,5
 1106.27 895 1106.27 895 1259 895 c 0,6,7
 1461.15 895 1461.15 895 1523.5 749 c 0,8,9
 1544 701 1544 701 1544 633 c 128,-1,10
 1544 565 1544 565 1516.5 499.5 c 128,-1,11
 1489 434 1489 434 1445.5 375.5 c 0,12,13
 1375.24 281.007 1375.24 281.007 1239 170 c 1,14,-1
 1239 168 l 1,15,-1
 1548 168 l 1,16,-1
 1548 0 l 1,17,-1
 962 0 l 1,18,-1
 962 119 l 1,19,20
 1171.9 303.46 1171.9 303.46 1238.45 383.73 c 0,21,22
 1354 523.103 1354 523.103 1354 602 c 0,23,24
 1354 735 1354 735 1184 735 c 0,25,26
 1149 735 1149 735 1114.5 732.5 c 2,27,-1
 1052 728 l 1,28,29
 1019 724 1019 724 989 721 c 1,30,-1
 989 852 l 1,4,5
186 1386 m 1,31,-1
 -8 1386 l 1,32,-1
 33 1554 l 1,33,-1
 373 1554 l 1,34,-1
 373 672 l 1,35,-1
 186 672 l 1,36,-1
 186 1386 l 1,31,-1
EndSplineSet
EndChar

StartChar: Iogonek
Encoding: 302 302 245
Width: 641
Flags: HW
LayerCount: 2
Fore
SplineSet
65 -279 m 0,0,1
 65 -120.68 65 -120.68 219 21 c 1,2,-1
 219 1427 l 1,3,-1
 459 1427 l 1,4,-1
 459 0 l 1,5,6
 287 -109.787 287 -109.787 287 -225 c 0,7,8
 287 -267 287 -267 311.5 -292 c 128,-1,9
 336 -317 336 -317 381.5 -317 c 128,-1,10
 427 -317 427 -317 457 -311 c 1,11,-1
 457 -479 l 1,12,13
 397 -500 397 -500 330.5 -500 c 128,-1,14
 264 -500 264 -500 218 -486 c 128,-1,15
 172 -472 172 -472 138 -444.5 c 0,16,17
 65 -385.456 65 -385.456 65 -279 c 0,0,1
EndSplineSet
Substitution2: "'smcp' Lowercase to Small Capitals in Latin lookup 0 subtable" .notdef
EndChar

StartChar: Lcaron
Encoding: 317 317 249
Width: 1062
Flags: HW
LayerCount: 2
Fore
SplineSet
598 1481 m 1,0,1
 677.792 1473.02 677.792 1473.02 721.396 1458.51 c 128,-1,2
 765 1444 765 1444 785 1428 c 128,-1,3
 805 1412 805 1412 805 1377.5 c 128,-1,4
 805 1343 805 1343 784.5 1299 c 2,5,-1
 621 958 l 1,6,-1
 473 1007 l 1,7,-1
 598 1481 l 1,0,1
182 1427 m 1,8,-1
 422 1427 l 1,9,-1
 422 223 l 1,10,-1
 1012 223 l 1,11,-1
 1012 0 l 1,12,-1
 182 0 l 1,13,-1
 182 1427 l 1,8,-1
EndSplineSet
Substitution2: "'smcp' Lowercase to Small Capitals in Latin lookup 0 subtable" .notdef
EndChar

StartChar: Uogonek
Encoding: 370 370 278
Width: 1405
Flags: HW
LayerCount: 2
Fore
SplineSet
659 -30 m 1,0,1
 282.528 -18.4163 282.528 -18.4163 203.5 247 c 0,2,3
 177 336 177 336 177 455 c 2,4,-1
 177 1427 l 1,5,-1
 415 1427 l 1,6,-1
 415 473 l 2,7,8
 415 305.391 415 305.391 479.5 246.5 c 0,9,10
 541.381 190 541.381 190 704 190 c 0,11,12
 854.429 190 854.429 190 919 246.5 c 0,13,14
 990 308.625 990 308.625 990 473 c 2,15,-1
 990 1427 l 1,16,-1
 1228 1427 l 1,17,-1
 1228 459 l 2,18,19
 1228 273 1228 273 1162 159 c 128,-1,20
 1096 45 1096 45 947 0 c 1,21,22
 776 -110.323 776 -110.323 776 -225 c 0,23,24
 776 -267 776 -267 800.5 -292 c 128,-1,25
 825 -317 825 -317 870.5 -317 c 128,-1,26
 916 -317 916 -317 946 -311 c 1,27,-1
 946 -479 l 1,28,29
 886 -500 886 -500 819.5 -500 c 128,-1,30
 753 -500 753 -500 707 -486 c 128,-1,31
 661 -472 661 -472 627 -444.5 c 0,32,33
 554 -385.456 554 -385.456 554 -270.728 c 128,-1,34
 554 -156 554 -156 659 -30 c 1,0,1
EndSplineSet
Substitution2: "'smcp' Lowercase to Small Capitals in Latin lookup 0 subtable" .notdef
EndChar

StartChar: dcaron
Encoding: 271 271 303
Width: 1333
Flags: HW
LayerCount: 2
Fore
SplineSet
1205 1559 m 1,0,1
 1284.79 1551.02 1284.79 1551.02 1328.4 1536.51 c 128,-1,2
 1372 1522 1372 1522 1392 1506 c 128,-1,3
 1412 1490 1412 1490 1412 1455.5 c 128,-1,4
 1412 1421 1412 1421 1391.5 1377 c 2,5,-1
 1228 1036 l 1,6,-1
 1080 1085 l 1,7,-1
 1205 1559 l 1,0,1
833 84 m 1,8,9
 671.281 -31 671.281 -31 466 -31 c 0,10,11
 281.847 -31 281.847 -31 197 92.5 c 0,12,13
 105.948 225.032 105.948 225.032 104 523 c 1,14,15
 98.2743 958.154 98.2743 958.154 311.5 1054.5 c 0,16,17
 379 1085 379 1085 464 1085 c 0,18,19
 656.5 1085 656.5 1085 814 1010 c 1,20,-1
 814 1554 l 1,21,-1
 1052 1554 l 1,22,-1
 1052 0 l 1,23,-1
 847 0 l 1,24,-1
 833 84 l 1,8,9
814 836 m 1,25,26
 658.2 874 658.2 874 568.6 874 c 128,-1,27
 479 874 479 874 444 855.5 c 128,-1,28
 409 837 409 837 389 794 c 0,29,30
 354 718.75 354 718.75 354 508 c 0,31,32
 354 321 354 321 382 269 c 128,-1,33
 410 217 410 217 448.5 199.5 c 128,-1,34
 487 182 487 182 550 182 c 0,35,36
 688.2 182 688.2 182 814 233 c 1,37,-1
 814 836 l 1,25,26
EndSplineSet
Substitution2: "'smcp' Lowercase to Small Capitals in Latin lookup 0 subtable" .notdef
EndChar

StartChar: dcroat
Encoding: 273 273 304
Width: 1197
Flags: HW
LayerCount: 2
Fore
SplineSet
833 84 m 1,0,1
 671.281 -31 671.281 -31 466 -31 c 0,2,3
 281.847 -31 281.847 -31 197 92.5 c 0,4,5
 105.948 225.032 105.948 225.032 104 523 c 1,6,7
 98.2743 958.154 98.2743 958.154 311.5 1054.5 c 0,8,9
 379 1085 379 1085 464 1085 c 0,10,11
 656.5 1085 656.5 1085 814 1010 c 1,12,-1
 814 1204 l 1,13,-1
 529 1204 l 1,14,-1
 529 1384 l 1,15,-1
 814 1384 l 1,16,-1
 814 1554 l 1,17,-1
 1052 1554 l 1,18,-1
 1052 1384 l 1,19,-1
 1197 1384 l 1,20,-1
 1197 1204 l 1,21,-1
 1052 1204 l 1,22,-1
 1052 0 l 1,23,-1
 847 0 l 1,24,-1
 833 84 l 1,0,1
814 836 m 1,25,26
 658.2 874 658.2 874 568.6 874 c 128,-1,27
 479 874 479 874 444 855.5 c 128,-1,28
 409 837 409 837 389 794 c 0,29,30
 354 718.75 354 718.75 354 508 c 0,31,32
 354 321 354 321 382 269 c 128,-1,33
 410 217 410 217 448.5 199.5 c 128,-1,34
 487 182 487 182 550 182 c 0,35,36
 688.2 182 688.2 182 814 233 c 1,37,-1
 814 836 l 1,25,26
EndSplineSet
Substitution2: "'smcp' Lowercase to Small Capitals in Latin lookup 0 subtable" .notdef
EndChar

StartChar: iacute
Encoding: 237 237 318
Width: 633
Flags: HW
LayerCount: 2
Fore
SplineSet
194 1055 m 1,0,-1
 432 1055 l 1,1,-1
 432 0 l 1,2,-1
 194 0 l 1,3,-1
 194 1055 l 1,0,-1
85 1264 m 1,4,-1
 493 1647 l 1,5,6
 536.805 1623.41 536.805 1623.41 574.402 1578.71 c 0,7,8
 632 1510.22 632 1510.22 632 1482.11 c 128,-1,9
 632 1454 632 1454 609.5 1428.5 c 128,-1,10
 587 1403 587 1403 554.5 1379.5 c 1,11,-1
 335 1232 l 1,12,-1
 188 1137 l 1,13,-1
 85 1264 l 1,4,-1
EndSplineSet
Substitution2: "'smcp' Lowercase to Small Capitals in Latin lookup 0 subtable" .notdef
EndChar

StartChar: ibreve
Encoding: 301 301 319
Width: 593
Flags: HW
LayerCount: 2
Fore
SplineSet
607 1510 m 1,0,1
 612 1465 612 1465 612 1421 c 128,-1,2
 612 1377 612 1377 592 1324.5 c 128,-1,3
 572 1272 572 1272 532 1234.5 c 0,4,5
 448.267 1156 448.267 1156 298 1156 c 0,6,7
 67.215 1156 67.215 1156 1.5 1327.5 c 0,8,9
 -19 1381 -19 1381 -19 1428.5 c 128,-1,10
 -19 1476 -19 1476 -15 1510 c 1,11,-1
 106 1510 l 1,12,13
 122.056 1365.5 122.056 1365.5 226.5 1343 c 0,14,15
 259 1336 259 1336 297.5 1336 c 128,-1,16
 336 1336 336 1336 368 1342.5 c 128,-1,17
 400 1349 400 1349 424.5 1368 c 0,18,19
 476.012 1407.95 476.012 1407.95 489 1510 c 1,20,-1
 607 1510 l 1,0,1
178 1055 m 1,21,-1
 416 1055 l 1,22,-1
 416 0 l 1,23,-1
 178 0 l 1,24,-1
 178 1055 l 1,21,-1
EndSplineSet
Substitution2: "'smcp' Lowercase to Small Capitals in Latin lookup 0 subtable" .notdef
EndChar

StartChar: icircumflex
Encoding: 238 238 320
Width: 610
Flags: HW
LayerCount: 2
Fore
SplineSet
92 1107 m 1,0,-1
 -25 1164 l 1,1,-1
 76 1416 l 2,2,3
 121.788 1529.12 121.788 1529.12 226 1545.5 c 0,4,5
 261 1551 261 1551 305 1551 c 256,6,7
 398.138 1551 398.138 1551 436.069 1531 c 0,8,9
 502.665 1495.89 502.665 1495.89 535 1416 c 2,10,-1
 635 1164 l 1,11,-1
 518 1107 l 1,12,-1
 305 1416 l 1,13,-1
 92 1107 l 1,0,-1
186 1055 m 1,14,-1
 424 1055 l 1,15,-1
 424 0 l 1,16,-1
 186 0 l 1,17,-1
 186 1055 l 1,14,-1
EndSplineSet
Substitution2: "'smcp' Lowercase to Small Capitals in Latin lookup 0 subtable" .notdef
EndChar

StartChar: idieresis
Encoding: 239 239 321
Width: 606
Flags: HW
LayerCount: 2
Fore
SplineSet
188 1055 m 1,0,-1
 426 1055 l 1,1,-1
 426 0 l 1,2,-1
 188 0 l 1,3,-1
 188 1055 l 1,0,-1
-44.5 1235.5 m 128,-1,5
 -50 1262 -50 1262 -50 1303.5 c 128,-1,6
 -50 1345 -50 1345 -44.5 1371.5 c 128,-1,7
 -39 1398 -39 1398 -23 1413.5 c 0,8,9
 4.35484 1440 4.35484 1440 66.1774 1440 c 128,-1,10
 128 1440 128 1440 155 1434.5 c 128,-1,11
 182 1429 182 1429 197 1413.5 c 0,12,13
 225 1384.57 225 1384.57 225 1323.28 c 128,-1,14
 225 1262 225 1262 218.5 1235.5 c 128,-1,15
 212 1209 212 1209 197 1193 c 0,16,17
 170.75 1165 170.75 1165 108.375 1165 c 128,-1,18
 46 1165 46 1165 19.5 1171 c 128,-1,19
 -7 1177 -7 1177 -23 1193 c 128,-1,4
 -39 1209 -39 1209 -44.5 1235.5 c 128,-1,5
386.5 1235.5 m 128,-1,21
 381 1262 381 1262 381 1303.5 c 128,-1,22
 381 1345 381 1345 386.5 1371.5 c 128,-1,23
 392 1398 392 1398 408 1413.5 c 0,24,25
 435.355 1440 435.355 1440 497.177 1440 c 128,-1,26
 559 1440 559 1440 586 1434.5 c 128,-1,27
 613 1429 613 1429 628 1413.5 c 0,28,29
 656 1384.57 656 1384.57 656 1323.28 c 128,-1,30
 656 1262 656 1262 649.5 1235.5 c 128,-1,31
 643 1209 643 1209 628 1193 c 0,32,33
 601.75 1165 601.75 1165 539.375 1165 c 128,-1,34
 477 1165 477 1165 450.5 1171 c 128,-1,35
 424 1177 424 1177 408 1193 c 128,-1,20
 392 1209 392 1209 386.5 1235.5 c 128,-1,21
EndSplineSet
Substitution2: "'smcp' Lowercase to Small Capitals in Latin lookup 0 subtable" .notdef
EndChar

StartChar: igrave
Encoding: 236 236 322
Width: 616
Flags: HW
LayerCount: 2
Fore
SplineSet
197 1055 m 1,0,-1
 435 1055 l 1,1,-1
 435 0 l 1,2,-1
 197 0 l 1,3,-1
 197 1055 l 1,0,-1
431 1151 m 1,4,-1
 176.5 1308.5 l 2,5,6
 67.1012 1376.62 67.1012 1376.62 34.0506 1414.81 c 128,-1,7
 1 1453 1 1453 1 1474 c 0,8,9
 1 1537.5 1 1537.5 106 1620 c 0,10,11
 123 1633 123 1633 138 1642 c 1,12,-1
 531 1274 l 1,13,-1
 431 1151 l 1,4,-1
EndSplineSet
Substitution2: "'smcp' Lowercase to Small Capitals in Latin lookup 0 subtable" .notdef
EndChar

StartChar: imacron
Encoding: 299 299 323
Width: 615
Flags: HW
LayerCount: 2
Fore
SplineSet
-5 1395 m 1,0,-1
 620 1395 l 1,1,-1
 620 1199 l 1,2,-1
 -5 1199 l 1,3,-1
 -5 1395 l 1,0,-1
189 1055 m 1,4,-1
 427 1055 l 1,5,-1
 427 0 l 1,6,-1
 189 0 l 1,7,-1
 189 1055 l 1,4,-1
EndSplineSet
Substitution2: "'smcp' Lowercase to Small Capitals in Latin lookup 0 subtable" .notdef
EndChar

StartChar: iogonek
Encoding: 303 303 324
Width: 616
Flags: HW
LayerCount: 2
Fore
SplineSet
315 1234 m 256,0,1
 234.2 1234 234.2 1234 211.1 1255 c 128,-1,2
 188 1276 188 1276 181.5 1302 c 128,-1,3
 175 1328 175 1328 175 1369 c 256,4,5
 175 1450.39 175 1450.39 198 1472.7 c 128,-1,6
 221 1495 221 1495 247.5 1501 c 128,-1,7
 274 1507 274 1507 315 1507 c 256,8,9
 397 1507 397 1507 419 1485 c 0,10,11
 453 1451 453 1451 453 1369 c 256,12,13
 453 1287.25 453 1287.25 431 1266.62 c 0,14,15
 396.2 1234 396.2 1234 315 1234 c 256,0,1
432 -479 m 1,16,17
 372 -500 372 -500 305.5 -500 c 128,-1,18
 239 -500 239 -500 193 -486 c 128,-1,19
 147 -472 147 -472 113 -444.5 c 0,20,21
 40 -385.456 40 -385.456 40 -279 c 0,22,23
 40 -115 40 -115 196 23 c 1,24,-1
 196 1055 l 1,25,-1
 434 1055 l 1,26,-1
 434 0 l 1,27,28
 262 -109.787 262 -109.787 262 -225 c 0,29,30
 262 -267 262 -267 286.5 -292 c 128,-1,31
 311 -317 311 -317 356.5 -317 c 128,-1,32
 402 -317 402 -317 432 -311 c 1,33,-1
 432 -479 l 1,16,17
EndSplineSet
Substitution2: "'smcp' Lowercase to Small Capitals in Latin lookup 0 subtable" .notdef
EndChar

StartChar: itilde
Encoding: 297 297 325
Width: 616
Flags: HW
LayerCount: 2
Fore
SplineSet
-70 1231 m 1,0,1
 -61.107 1304.37 -61.107 1304.37 3.5 1370 c 0,2,3
 74.5507 1442.18 74.5507 1442.18 172 1446 c 0,4,5
 249.577 1448.28 249.577 1448.28 332.5 1388.5 c 0,6,7
 414.718 1329.23 414.718 1329.23 451.359 1332.11 c 0,8,9
 532.003 1338.47 532.003 1338.47 577 1425 c 1,10,-1
 686 1356 l 1,11,12
 676.961 1281.43 676.961 1281.43 611 1216.5 c 0,13,14
 538.126 1144.77 538.126 1144.77 444 1141 c 256,15,16
 371.358 1138.09 371.358 1138.09 283 1197 c 0,17,18
 250 1219 250 1219 219.5 1237 c 128,-1,19
 189 1255 189 1255 158 1253 c 0,20,21
 104.697 1249.56 104.697 1249.56 68 1205 c 1,22,23
 50 1185 50 1185 39 1161 c 1,24,-1
 -70 1231 l 1,0,1
189 1055 m 1,25,-1
 427 1055 l 1,26,-1
 427 0 l 1,27,-1
 189 0 l 1,28,-1
 189 1055 l 1,25,-1
EndSplineSet
Substitution2: "'smcp' Lowercase to Small Capitals in Latin lookup 0 subtable" .notdef
EndChar

StartChar: dotlessi
Encoding: 305 305 326
Width: 564
Flags: HW
LayerCount: 2
Fore
SplineSet
163 1055 m 1,0,-1
 401 1055 l 1,1,-1
 401 0 l 1,2,-1
 163 0 l 1,3,-1
 163 1055 l 1,0,-1
EndSplineSet
EndChar

StartChar: lacute
Encoding: 314 314 329
Width: 601
Flags: HW
LayerCount: 2
Fore
SplineSet
166 1728 m 1,0,-1
 515 2060 l 1,1,2
 558.805 2036.41 558.805 2036.41 596.402 1991.71 c 0,3,4
 655 1922.03 655 1922.03 655 1894.51 c 128,-1,5
 655 1867 655 1867 632 1841.5 c 128,-1,6
 609 1816 609 1816 576.5 1793 c 0,7,8
 510.98 1747.64 510.98 1747.64 484.99 1731.82 c 2,9,-1
 269 1601 l 1,10,-1
 166 1728 l 1,0,-1
193 1531 m 1,11,-1
 430 1531 l 1,12,-1
 430 0 l 1,13,-1
 193 0 l 1,14,-1
 193 1531 l 1,11,-1
EndSplineSet
Substitution2: "'smcp' Lowercase to Small Capitals in Latin lookup 0 subtable" .notdef
EndChar

StartChar: lcaron
Encoding: 318 318 330
Width: 750
Flags: HW
LayerCount: 2
Fore
SplineSet
602 1559 m 1,0,1
 681.792 1551.02 681.792 1551.02 725.396 1536.51 c 128,-1,2
 769 1522 769 1522 789 1506 c 128,-1,3
 809 1490 809 1490 809 1455.5 c 128,-1,4
 809 1421 809 1421 788.5 1377 c 2,5,-1
 625 1036 l 1,6,-1
 477 1085 l 1,7,-1
 602 1559 l 1,0,1
166 1554 m 1,8,-1
 403 1554 l 1,9,-1
 403 0 l 1,10,-1
 166 0 l 1,11,-1
 166 1554 l 1,8,-1
EndSplineSet
Substitution2: "'smcp' Lowercase to Small Capitals in Latin lookup 0 subtable" .notdef
EndChar

StartChar: tcaron
Encoding: 357 357 350
Width: 860
Flags: HW
LayerCount: 2
Fore
SplineSet
661 1676 m 1,0,1
 740.792 1668.02 740.792 1668.02 784.396 1653.51 c 128,-1,2
 828 1639 828 1639 848 1623 c 128,-1,3
 868 1607 868 1607 868 1572.5 c 128,-1,4
 868 1538 868 1538 847.5 1494 c 2,5,-1
 684 1153 l 1,6,-1
 536 1202 l 1,7,-1
 661 1676 l 1,0,1
780 18 m 1,8,9
 657.5 -31 657.5 -31 549.75 -31 c 128,-1,10
 442 -31 442 -31 388.5 -16 c 128,-1,11
 335 -1 335 -1 301.5 29.5 c 0,12,13
 238 87.3134 238 87.3134 238 215 c 2,14,-1
 238 858 l 1,15,-1
 82 858 l 1,16,-1
 82 1055 l 1,17,-1
 238 1055 l 1,18,-1
 238 1278 l 1,19,-1
 475 1331 l 1,20,-1
 475 1055 l 1,21,-1
 741 1055 l 1,22,-1
 741 858 l 1,23,-1
 475 858 l 1,24,-1
 475 291 l 2,25,26
 475 217 475 217 495 197 c 0,27,28
 526 166 526 166 619.667 166 c 128,-1,29
 713.333 166 713.333 166 780 176 c 1,30,-1
 780 18 l 1,8,9
EndSplineSet
Substitution2: "'smcp' Lowercase to Small Capitals in Latin lookup 0 subtable" .notdef
EndChar

StartChar: uogonek
Encoding: 371 371 359
Width: 1246
Flags: HW
LayerCount: 2
Fore
SplineSet
1078 -479 m 1,0,1
 1018 -500 1018 -500 951.5 -500 c 128,-1,2
 885 -500 885 -500 839 -486 c 128,-1,3
 793 -472 793 -472 759 -444.5 c 0,4,5
 686 -385.456 686 -385.456 686 -279 c 0,6,7
 686 -126.209 686 -126.209 826.5 8 c 0,8,9
 860 40 860 40 884 58 c 1,10,-1
 877 78 l 1,11,12
 771.311 19.4938 771.311 19.4938 662.156 -5.75311 c 128,-1,13
 553 -31 553 -31 471 -31 c 0,14,15
 316 -31 316 -31 241 51.5 c 128,-1,16
 166 134 166 134 166 309 c 2,17,-1
 166 1055 l 1,18,-1
 403 1055 l 1,19,-1
 403 336 l 2,20,21
 403 247.306 403 247.306 426.5 223.153 c 0,22,23
 466.541 182 466.541 182 595.145 182 c 128,-1,24
 723.75 182 723.75 182 842 225 c 1,25,-1
 842 1055 l 1,26,-1
 1079 1055 l 1,27,-1
 1079 0 l 1,28,-1
 1080 0 l 1,29,30
 908 -109.787 908 -109.787 908 -225 c 0,31,32
 908 -267 908 -267 932.5 -292 c 128,-1,33
 957 -317 957 -317 1002.5 -317 c 128,-1,34
 1048 -317 1048 -317 1078 -311 c 1,35,-1
 1078 -479 l 1,0,1
EndSplineSet
Substitution2: "'smcp' Lowercase to Small Capitals in Latin lookup 0 subtable" .notdef
EndChar

StartChar: Oslash
Encoding: 216 216 371
Width: 1451
Flags: HW
LayerCount: 2
Fore
SplineSet
897 -17.5 m 0,0,1
 818 -31 818 -31 705.643 -31 c 128,-1,2
 593.286 -31 593.286 -31 504 -6 c 1,3,-1
 429 -172 l 1,4,-1
 209 -172 l 1,5,-1
 326 85 l 1,6,7
 140 246.2 140 246.2 140 709 c 0,8,9
 140 1136.11 140 1136.11 296 1307.5 c 0,10,11
 372 1391 372 1391 481 1423.5 c 128,-1,12
 590 1456 590 1456 718 1456 c 128,-1,13
 846 1456 846 1456 938 1433 c 1,14,-1
 1012 1595 l 1,15,-1
 1231 1595 l 1,16,-1
 1117 1344 l 1,17,18
 1311 1178.89 1311 1178.89 1311 709 c 0,19,20
 1311 283.45 1311 283.45 1156 114.5 c 0,21,22
 1060.54 10.4464 1060.54 10.4464 897 -17.5 c 0,0,1
843 1223 m 1,23,24
 794 1233 794 1233 711.5 1233 c 128,-1,25
 629 1233 629 1233 564 1209.5 c 128,-1,26
 499 1186 499 1186 461 1126.5 c 0,27,28
 392 1018.46 392 1018.46 392 709 c 0,29,30
 392 443.462 392 443.462 439 335 c 1,31,-1
 843 1223 l 1,23,24
599 202 m 1,32,33
 645.286 190 645.286 190 735.143 190 c 128,-1,34
 825 190 825 190 889.5 213 c 128,-1,35
 954 236 954 236 992 294.5 c 0,36,37
 1061 400.724 1061 400.724 1061 709 c 0,38,39
 1061 988.167 1061 988.167 1006 1100 c 1,40,-1
 599 202 l 1,32,33
EndSplineSet
EndChar

StartChar: oslash
Encoding: 248 248 372
Width: 1200
Flags: HW
LayerCount: 2
Fore
SplineSet
1094 528 m 0,0,1
 1094 -31 1094 -31 594 -31 c 0,2,3
 489 -31 489 -31 408 -7 c 1,4,-1
 323 -172 l 1,5,-1
 164 -172 l 1,6,-1
 280 53 l 1,7,8
 94 185.309 94 185.309 94 528 c 0,9,10
 94 1085 94 1085 594 1085 c 0,11,12
 708 1085 708 1085 794 1057 c 1,13,-1
 885 1233 l 1,14,-1
 1044 1233 l 1,15,-1
 920 992 l 1,16,17
 1094 858.6 1094 858.6 1094 528 c 0,0,1
699 870 m 1,18,19
 655 885 655 885 585.5 885 c 128,-1,20
 516 885 516 885 467 861.5 c 128,-1,21
 418 838 418 838 390.5 792.5 c 0,22,23
 344 715.564 344 715.564 344 528 c 256,24,25
 344 344.615 344 344.615 389 265 c 1,26,-1
 699 870 l 1,18,19
504 180 m 1,27,28
 541 170 541 170 607 170 c 128,-1,29
 673 170 673 170 722 193.5 c 128,-1,30
 771 217 771 217 798 262.5 c 0,31,32
 844 340.019 844 340.019 844 528 c 0,33,34
 844 695.857 844 695.857 808 773 c 1,35,-1
 504 180 l 1,27,28
EndSplineSet
EndChar

StartChar: Eng
Encoding: 330 330 373
Width: 1521
Flags: HW
LayerCount: 2
Fore
SplineSet
1185 -487.5 m 0,0,1
 1134 -500 1134 -500 1038.75 -500 c 128,-1,2
 943.5 -500 943.5 -500 828 -465 c 1,3,-1
 828 -293 l 1,4,-1
 876 -295 l 2,5,6
 918 -297 918 -297 959.5 -297 c 128,-1,7
 1001 -297 1001 -297 1025.5 -294 c 128,-1,8
 1050 -291 1050 -291 1066 -278 c 0,9,10
 1098 -252 1098 -252 1098 -164 c 2,11,-1
 1098 0 l 1,12,-1
 950 0 l 1,13,-1
 476 1082 l 1,14,-1
 424 1204 l 1,15,-1
 420 1204 l 1,16,-1
 420 0 l 1,17,-1
 182 0 l 1,18,-1
 182 1427 l 1,19,-1
 580 1427 l 1,20,-1
 1100 223 l 1,21,-1
 1105 223 l 1,22,-1
 1103 296 l 2,23,24
 1102 328 1102 328 1102 365 c 2,25,-1
 1102 1427 l 1,26,-1
 1339 1427 l 1,27,-1
 1339 77 l 1,28,-1
 1340 -237 l 2,29,30
 1340 -449.51 1340 -449.51 1185 -487.5 c 0,0,1
EndSplineSet
EndChar

StartChar: eng
Encoding: 331 331 374
Width: 1243
Flags: HW
LayerCount: 2
Fore
SplineSet
403 829 m 1,0,-1
 403 0 l 1,1,-1
 166 0 l 1,2,-1
 166 1055 l 1,3,-1
 340 1055 l 1,4,-1
 369 977 l 1,5,6
 567 1085 567 1085 774 1085 c 0,7,8
 930 1085 930 1085 1004.5 1003.5 c 128,-1,9
 1079 922 1079 922 1079 748 c 2,10,-1
 1079 -256 l 2,11,12
 1079 -387.667 1079 -387.667 1006 -448.5 c 0,13,14
 946.6 -498 946.6 -498 818.936 -498 c 128,-1,15
 691.273 -498 691.273 -498 592 -459 c 1,16,-1
 592 -283 l 1,17,18
 652 -289 652 -289 706 -289 c 128,-1,19
 760 -289 760 -289 779.5 -286 c 128,-1,20
 799 -283 799 -283 813 -273.5 c 0,21,22
 842 -253.821 842 -253.821 842 -203 c 2,23,-1
 842 719 l 2,24,25
 842 807.694 842 807.694 818.5 831.847 c 0,26,27
 777.486 874 777.486 874 652.118 874 c 128,-1,28
 526.75 874 526.75 874 403 829 c 1,0,-1
EndSplineSet
EndChar

StartChar: florin
Encoding: 402 402 389
Width: 775
Flags: HW
LayerCount: 2
Fore
SplineSet
229 858 m 1,0,-1
 81 860 l 1,1,-1
 95 1057 l 1,2,-1
 243 1055 l 1,3,-1
 257 1231 l 2,4,5
 269.567 1400.66 269.567 1400.66 341.5 1481 c 0,6,7
 441.317 1592.48 441.317 1592.48 692.5 1559.5 c 0,8,9
 784.954 1547.36 784.954 1547.36 850 1525 c 1,10,-1
 837 1349 l 1,11,12
 781.56 1355.16 781.56 1355.16 733.28 1356.58 c 2,13,-1
 649 1359 l 1,14,15
 562.483 1359 562.483 1359 537.741 1338.5 c 0,16,17
 500.219 1307.41 500.219 1307.41 494 1239 c 1,18,-1
 480 1053 l 1,19,-1
 750 1051 l 1,20,-1
 736 854 l 1,21,-1
 466 856 l 1,22,-1
 369 -340 l 1,23,-1
 132 -339 l 1,24,-1
 229 858 l 1,0,-1
EndSplineSet
EndChar

StartChar: infinity
Encoding: 8734 8734 390
Width: 1881
Flags: HW
LayerCount: 2
Fore
SplineSet
577 284 m 128,-1,1
 490 284 490 284 405.5 317.5 c 128,-1,2
 321 351 321 351 268 412.5 c 0,3,4
 168 528.538 168 528.538 168 751 c 256,5,6
 168 981.03 168 981.03 257 1090.5 c 0,7,8
 362.285 1220 362.285 1220 613 1220 c 0,9,10
 824.864 1220 824.864 1220 923 1093 c 0,11,12
 951.603 1055.98 951.603 1055.98 958 1024 c 1,13,-1
 962 1024 l 1,14,15
 966.762 1071.62 966.762 1071.62 1040 1139 c 0,16,17
 1131.3 1223 1131.3 1223 1260.65 1223 c 128,-1,18
 1390 1223 1390 1223 1474.5 1189.5 c 128,-1,19
 1559 1156 1559 1156 1612 1094.5 c 0,20,21
 1712 978.462 1712 978.462 1712 756 c 256,22,23
 1712 525.97 1712 525.97 1623 416.5 c 0,24,25
 1517.72 287 1517.72 287 1267 287 c 0,26,27
 1055.14 287 1055.14 287 957 414 c 0,28,29
 924.723 455.77 924.723 455.77 922 483 c 1,30,-1
 918 483 l 1,31,32
 907.402 430.01 907.402 430.01 840 368 c 0,33,34
 786.847 319.099 786.847 319.099 725.423 301.55 c 128,-1,0
 664 284 664 284 577 284 c 128,-1,1
1485 754 m 256,35,36
 1485 1019 1485 1019 1267 1019 c 0,37,38
 1081.73 1019 1081.73 1019 1059 861.5 c 0,39,40
 1052 813 1052 813 1052 777.5 c 128,-1,41
 1052 742 1052 742 1054.5 718.5 c 128,-1,42
 1057 695 1057 695 1065.5 666.5 c 128,-1,43
 1074 638 1074 638 1088.5 608 c 128,-1,44
 1103 578 1103 578 1127 553.5 c 0,45,46
 1181.37 498 1181.37 498 1260.18 498 c 128,-1,47
 1339 498 1339 498 1382 516 c 128,-1,48
 1425 534 1425 534 1448 567 c 0,49,50
 1485 620.087 1485 620.087 1485 754 c 256,35,36
395 753 m 256,51,52
 395 498 395 498 613 498 c 0,53,54
 744.455 498 744.455 498 791.5 567 c 0,55,56
 828 620.533 828 620.533 828 753 c 0,57,58
 828 824.207 828 824.207 802.5 879.603 c 128,-1,59
 777 935 777 935 753 960.5 c 0,60,61
 697.941 1019 697.941 1019 619.471 1019 c 128,-1,62
 541 1019 541 1019 498 999.5 c 128,-1,63
 455 980 455 980 432 945 c 0,64,65
 395 888.696 395 888.696 395 753 c 256,51,52
EndSplineSet
EndChar

StartChar: partialdiff
Encoding: 8706 8706 391
Width: 1194
Flags: HW
LayerCount: 2
Fore
SplineSet
584 -15 m 0,0,1
 97 -15 97 -15 97 461 c 0,2,3
 97 930 97 930 563 930 c 0,4,5
 684 930 684 930 777 883.5 c 0,6,7
 840.545 851.727 840.545 851.727 880 801 c 1,8,9
 850.947 1033.42 850.947 1033.42 642 1117 c 0,10,11
 567 1147 567 1147 464 1147 c 0,12,13
 410.462 1147 410.462 1147 329.231 1130.5 c 128,-1,14
 248 1114 248 1114 230 1108 c 1,15,-1
 230 1328 l 1,16,17
 371.75 1349 371.75 1349 487.875 1349 c 128,-1,18
 604 1349 604 1349 704.5 1314.5 c 128,-1,19
 805 1280 805 1280 874 1224 c 128,-1,20
 943 1168 943 1168 984 1096 c 128,-1,21
 1025 1024 1025 1024 1047.5 949 c 0,22,23
 1084 827.333 1084 827.333 1084 686.167 c 0,24,25
 1084 399.311 1084 399.311 1001 237 c 0,26,27
 935.386 107.959 935.386 107.959 852 51.5 c 0,28,29
 753.785 -15 753.785 -15 584 -15 c 0,0,1
328 461 m 256,30,31
 328 328.534 328 328.534 376 261.5 c 0,32,33
 440.802 171 440.802 171 595 171 c 0,34,35
 799.923 171 799.923 171 842.5 355.5 c 0,36,37
 853 401 853 401 853 461.5 c 128,-1,38
 853 522 853 522 838.5 572.5 c 128,-1,39
 824 623 824 623 790.5 659 c 0,40,41
 719.778 735 719.778 735 562 735 c 0,42,43
 354.545 735 354.545 735 334 565.5 c 0,44,45
 328 516 328 516 328 461 c 256,30,31
EndSplineSet
EndChar

StartChar: summation
Encoding: 8721 8721 392
Width: 1196
Flags: HW
LayerCount: 2
Fore
SplineSet
569 511 m 1,0,-1
 63 1214 l 1,1,-1
 63 1349 l 1,2,-1
 1094 1349 l 1,3,-1
 1094 1161 l 1,4,-1
 373 1161 l 1,5,-1
 835 511 l 1,6,-1
 373 -140 l 1,7,-1
 1094 -140 l 1,8,-1
 1094 -328 l 1,9,-1
 63 -328 l 1,10,-1
 63 -193 l 1,11,-1
 569 511 l 1,0,-1
EndSplineSet
EndChar

StartChar: product
Encoding: 8719 8719 393
Width: 1706
Flags: HW
LayerCount: 2
Fore
SplineSet
327 1169 m 1,0,-1
 192 1169 l 1,1,-1
 192 1380 l 1,2,-1
 1482 1380 l 1,3,-1
 1482 1169 l 1,4,-1
 1347 1169 l 1,5,-1
 1347 -328 l 1,6,-1
 1109 -328 l 1,7,-1
 1109 1169 l 1,8,-1
 565 1169 l 1,9,-1
 565 -328 l 1,10,-1
 327 -328 l 1,11,-1
 327 1169 l 1,0,-1
EndSplineSet
EndChar

StartChar: pi
Encoding: 960 960 394
Width: 1365
Flags: HW
LayerCount: 2
Fore
SplineSet
212 822 m 1,0,-1
 37 822 l 1,1,-1
 37 1033 l 1,2,-1
 1211 1033 l 1,3,-1
 1211 822 l 1,4,-1
 1014 822 l 1,5,-1
 1014 396 l 1,6,7
 1011.55 192.639 1011.55 192.639 1136.5 168 c 0,8,9
 1172 161 1172 161 1211 156 c 1,10,-1
 1211 0 l 1,11,12
 1001.48 -29.9313 1001.48 -29.9313 880 87.5 c 0,13,14
 785 179.333 785 179.333 785 325 c 2,15,-1
 785 822 l 1,16,-1
 430 822 l 1,17,-1
 430 1 l 1,18,-1
 212 1 l 1,19,-1
 212 822 l 1,0,-1
EndSplineSet
EndChar

StartChar: integral
Encoding: 8747 8747 395
Width: 852
Flags: HW
LayerCount: 2
Fore
SplineSet
317 -485 m 128,-1,1
 261 -500 261 -500 196.75 -500 c 128,-1,2
 132.5 -500 132.5 -500 65 -482 c 1,3,-1
 65 -327 l 1,4,5
 198.844 -327 198.844 -327 236.422 -308.5 c 0,6,7
 311 -271.785 311 -271.785 311 -158 c 2,8,-1
 311 1115 l 2,9,10
 311 1284.82 311 1284.82 361 1365.5 c 0,11,12
 433.817 1483 433.817 1483 656 1483 c 0,13,14
 712.833 1483 712.833 1483 766 1472 c 1,15,-1
 766 1321 l 1,16,17
 658.2 1321 658.2 1321 610.1 1301.5 c 128,-1,18
 562 1282 562 1282 538 1253 c 128,-1,19
 514 1224 514 1224 514 1191.5 c 128,-1,20
 514 1159 514 1159 517 1141 c 1,21,-1
 517 -132 l 2,22,23
 517 -246.364 517 -246.364 503.5 -296.682 c 128,-1,24
 490 -347 490 -347 468.5 -382.5 c 128,-1,25
 447 -418 447 -418 410 -444 c 128,-1,0
 373 -470 373 -470 317 -485 c 128,-1,1
EndSplineSet
EndChar

StartChar: Omega
Encoding: 937 937 396
AltUni2: 002126.ffffffff.0
Width: 1706
Flags: HW
LayerCount: 2
Fore
SplineSet
160 224 m 1,0,-1
 400 224 l 1,1,2
 254.654 379.036 254.654 379.036 209.5 581.5 c 0,3,4
 194 651 194 651 194 769.5 c 128,-1,5
 194 888 194 888 235 1012.5 c 128,-1,6
 276 1137 276 1137 356.5 1221.5 c 0,7,8
 520.834 1394 520.834 1394 834 1394 c 256,9,10
 1149.04 1394 1149.04 1394 1319.5 1221.5 c 0,11,12
 1489 1049.97 1489 1049.97 1489 726 c 0,13,14
 1489 443.733 1489 443.733 1283 224 c 1,15,-1
 1522 224 l 1,16,-1
 1522 0 l 1,17,-1
 943 0 l 1,18,-1
 934 -3 l 1,19,-1
 934 138 l 1,20,21
 1195.03 353.137 1195.03 353.137 1247.5 573.5 c 0,22,23
 1265 647 1265 647 1265 735 c 128,-1,24
 1265 823 1265 823 1245 906 c 128,-1,25
 1225 989 1225 989 1176 1050.5 c 0,26,27
 1071.23 1182 1071.23 1182 834 1182 c 0,28,29
 494.855 1182 494.855 1182 435 906 c 0,30,31
 417 823 417 823 417 735 c 128,-1,32
 417 647 417 647 435 573.5 c 128,-1,33
 453 500 453 500 492.5 428 c 0,34,35
 571.208 284.532 571.208 284.532 749 138 c 1,36,-1
 749 -3 l 1,37,-1
 739 0 l 1,38,-1
 160 0 l 1,39,-1
 160 224 l 1,0,-1
EndSplineSet
EndChar

StartChar: radical
Encoding: 8730 8730 397
Width: 1361
Flags: HW
LayerCount: 2
Fore
SplineSet
61 857 m 1,0,-1
 455 857 l 1,1,-1
 729 116 l 1,2,-1
 1132 1482 l 1,3,-1
 1370 1482 l 1,4,-1
 828 -196 l 1,5,-1
 638 -196 l 1,6,-1
 283 647 l 1,7,-1
 61 647 l 1,8,-1
 61 857 l 1,0,-1
EndSplineSet
EndChar

StartChar: Delta
Encoding: 916 916 398
AltUni2: 002206.ffffffff.0
Width: 1537
Flags: HW
LayerCount: 2
Fore
SplineSet
182 151 m 1,0,-1
 676 1393 l 1,1,-1
 840 1393 l 1,2,-1
 1333 151 l 1,3,-1
 1333 0 l 1,4,-1
 182 0 l 1,5,-1
 182 151 l 1,0,-1
1072 226 m 1,6,-1
 766 984 l 1,7,-1
 758 1014 l 1,8,-1
 749 984 l 1,9,-1
 443 226 l 1,10,-1
 1072 226 l 1,6,-1
EndSplineSet
EndChar

StartChar: fraction
Encoding: 8260 8260 399
Width: 924
Flags: HW
LayerCount: 2
Fore
SplineSet
653 1554 m 1,0,-1
 894 1554 l 1,1,-1
 251 0 l 1,2,-1
 10 0 l 1,3,-1
 653 1554 l 1,0,-1
EndSplineSet
EndChar

StartChar: lozenge
Encoding: 9674 9674 400
Width: 1196
Flags: HW
LayerCount: 2
Fore
SplineSet
88 680 m 1,0,-1
 538 1360 l 1,1,-1
 658 1360 l 1,2,-1
 1108 681 l 1,3,-1
 658 0 l 1,4,-1
 538 0 l 1,5,-1
 88 680 l 1,0,-1
898 681 m 1,6,-1
 598 1145 l 1,7,-1
 298 680 l 1,8,-1
 598 215 l 1,9,-1
 898 681 l 1,6,-1
EndSplineSet
EndChar

StartChar: breve.cap
Encoding: 65549 -1 401
Width: 512
Flags: HW
LayerCount: 2
Fore
SplineSet
-21 1731.5 m 0,0,1
 -42 1789 -42 1789 -42 1835 c 128,-1,2
 -42 1881 -42 1881 -40 1903 c 1,3,-1
 81 1903 l 1,4,5
 107.979 1798.94 107.979 1798.94 159.5 1762 c 0,6,7
 205.526 1729 205.526 1729 303 1729 c 256,8,9
 399.868 1729 399.868 1729 435.434 1754.5 c 128,-1,10
 471 1780 471 1780 490 1814 c 128,-1,11
 509 1848 509 1848 524 1903 c 1,12,-1
 642 1903 l 1,13,14
 645 1877 645 1877 645 1830.5 c 128,-1,15
 645 1784 645 1784 624 1728 c 128,-1,16
 603 1672 603 1672 560.5 1632 c 0,17,18
 472.312 1549 472.312 1549 303 1549 c 0,19,20
 45.6522 1549 45.6522 1549 -21 1731.5 c 0,0,1
EndSplineSet
EndChar

StartChar: macron.cap
Encoding: 65550 -1 402
Width: 512
Flags: HW
LayerCount: 2
Fore
SplineSet
-45 1767 m 1,0,-1
 660 1767 l 1,1,-1
 660 1571 l 1,2,-1
 -45 1571 l 1,3,-1
 -45 1767 l 1,0,-1
EndSplineSet
EndChar
